<?xml version="1.0" encoding="utf-8"?>
<!-- Generator: Adobe Illustrator 21.0.0, SVG Export Plug-In . SVG Version: 6.00 Build 0)  -->
<svg version="1.1" xmlns="http://www.w3.org/2000/svg" xmlns:xlink="http://www.w3.org/1999/xlink" x="0px" y="0px" width="64px"
	 height="64px" viewBox="0 0 64 64" enable-background="new 0 0 64 64" xml:space="preserve">
<g id="Layer_1">
</g>
<g id="Layer_2">
</g>
<g id="messages">
</g>
<g id="messages_x5F_hover">
</g>
<g id="profile">
</g>
<g id="profile_x5F_hover">
</g>
<g id="view_x5F_hover">
</g>
<g id="view_x5F_feedback">
</g>
<g id="no_x5F_feedback_x5F_to_x5F_view">
</g>
<g id="download_x5F_hover">
</g>
<g id="download">
</g>
<g id="no_x5F_feedback_x5F_download">
</g>
<g id="link_x5F_hover">
</g>
<g id="assignment_x5F_link_copy">
</g>
<g id="Layer_21">
</g>
<g id="home_x5F_hover">
</g>
<g id="home_1_">
</g>
<g id="edit_x5F_profile">
</g>
<g id="preferences">
</g>
<g id="notifications">
</g>
<g id="my_x5F_posts">
</g>
<g id="logout">
</g>
<g id="assignment">
</g>
<g id="coursework">
	<g>
		<g>
			<path fill="#FFFFFF" d="M53.1178398,1.3328451H18.8746738c-2.8463535,0-5.1972647,2.0649414-5.6705723,4.7757158h-2.135417
				c-1.5935869,0-2.8855791,1.2918296-2.8855791,2.8854165v10.4231768v40.3636093
				c0,1.593586,1.2919922,2.8854179,2.8855791,2.8854179h5.3727217h4.6137695h30.027668
				c1.5935898,0,2.8854179-1.291832,2.8854179-2.8854179v-1.9760742c2.7804375-0.4138985,4.9204102-2.7890625,4.9204102-5.6850586
				V35.5890312V7.1038413C58.8886719,3.9166667,56.3050117,1.3328451,53.1178398,1.3328451z"/>
		</g>
		<g opacity="0.3">
			<g>
				<path fill="#32548C" d="M11.0686045,6.1086078h5.3727579v56.5576248h-5.3727579
					c-1.5935812,0-2.8854351-1.2918549-2.8854351-2.885437V8.9940424C8.1831694,7.4004612,9.4750233,6.1086078,11.0686045,6.1086078
					z"/>
			</g>
		</g>
		<g opacity="0.3">
			<g>
				<path fill="#32548C" d="M28.6551113,13.6362362H41.754467c1.5935822,0,2.8854332,1.291853,2.8854332,2.8854351v2.5023613
					c0,1.5935822-1.291851,2.8854351-2.8854332,2.8854351H28.6551113c-1.5935822,0-2.8854351-1.291853-2.8854351-2.8854351
					v-2.5023613C25.7696762,14.9280891,27.0615292,13.6362362,28.6551113,13.6362362z"/>
			</g>
		</g>
		<g opacity="0.3">
			<g>
				<path fill="#32548C" d="M53.1178246,1.3328993H18.8745975c-2.8463383,0-5.1972704,2.0649245-5.6704855,4.7756548H51.08284
					c1.5934677,0,2.8854332,1.2917886,2.8854332,2.8854346v31.3706512v17.4401131
					c2.7804718-0.4140434,4.9204216-2.7891006,4.9204216-5.6851044V35.5889816V7.1037688
					C58.8886948,3.9166524,56.3049393,1.3328993,53.1178246,1.3328993z"/>
			</g>
		</g>
		<g>
			<g>
				<path fill="#32548C" d="M58.8893242,53.8658867c-0.7369804,0-1.3333359-0.5963554-1.3333359-1.3333359V7.1041665
					c0-2.4466143-1.9895821-4.4375-4.4375-4.4375H18.0846348c-0.7369785,0-1.3333321-0.5963542-1.3333321-1.3333334
					S17.3476563,0,18.0846348,0h35.0338516c3.9166679,0,7.1041679,3.1875,7.1041679,7.1041665v45.4283829
					C60.2226563,53.2695313,59.6263008,53.8658867,58.8893242,53.8658867z"/>
			</g>
		</g>
		<g>
			<g>
				<path fill="#32548C" d="M41.7539063,23.2421875h-13.098959c-2.3255196,0-4.21875-1.8919277-4.21875-4.21875v-2.5013027
					c0-2.3268223,1.8932304-4.218749,4.21875-4.218749h13.098959c2.3255196,0,4.21875,1.8919268,4.21875,4.218749v2.5013027
					C45.9726563,21.3502598,44.0794258,23.2421875,41.7539063,23.2421875z M28.6549473,14.9700518
					c-0.8567696,0-1.5520821,0.6966152-1.5520821,1.552083v2.5013027c0,0.8554688,0.6953125,1.552084,1.5520821,1.552084h13.098959
					c0.8567696,0,1.5520821-0.6966152,1.5520821-1.552084v-2.5013027c0-0.8554678-0.6953125-1.552083-1.5520821-1.552083H28.6549473
					z"/>
			</g>
		</g>
		<g>
			<path fill="#32548C" d="M41.3216133,29.333334H29.0872402c-0.7369804,0-1.333334-0.5963554-1.333334-1.333334
				s0.5963535-1.333334,1.333334-1.333334h12.2343731c0.7369804,0,1.3333359,0.5963554,1.3333359,1.333334
				S42.0585938,29.333334,41.3216133,29.333334z"/>
		</g>
		<g>
			<path fill="#32548C" d="M51.0820313,64h-30.026041c-0.7369804,0-1.333334-0.5963554-1.333334-1.3333321
				c0-0.7369804,0.5963535-1.3333359,1.333334-1.3333359h30.026041c0.8567696,0,1.5520821-0.6966133,1.5520821-1.5520821V8.9934893
				c0-0.8554688-0.6953125-1.552083-1.5520821-1.552083H11.0690107c-0.8567715,0-1.552084,0.6966143-1.552084,1.552083V59.78125
				c0,0.8554688,0.6953125,1.5520821,1.552084,1.5520821h4.0390625V10.9700518c0-0.7369785,0.5963535-1.333333,1.333333-1.333333
				c0.7369785,0,1.333334,0.5963545,1.333334,1.333333v51.6966171C17.7747402,63.4036446,17.1783848,64,16.4414063,64h-5.3723955
				c-2.3255215,0-4.2187505-1.8919258-4.2187505-4.21875V8.9934893c0-2.3268228,1.893229-4.2187495,4.2187505-4.2187495h40.0130196
				c2.3255196,0,4.21875,1.8919268,4.21875,4.2187495V59.78125C55.3007813,62.1080742,53.4075508,64,51.0820313,64z"/>
		</g>
		<g>
			<g>
				<path fill="#32548C" d="M11.5872393,20.7526035h-6.476562c-0.7369795,0-1.3333335-0.5963535-1.3333335-1.3333321
					c0-0.7369804,0.596354-1.333334,1.3333335-1.333334h6.476562c0.7369795,0,1.333334,0.5963535,1.333334,1.333334
					C12.9205732,20.15625,12.3242188,20.7526035,11.5872393,20.7526035z"/>
			</g>
			<g>
				<path fill="#32548C" d="M11.5872393,35.7213554h-6.476562c-0.7369795,0-1.3333335-0.5963554-1.3333335-1.3333359
					c0-0.7369766,0.596354-1.3333321,1.3333335-1.3333321h6.476562c0.7369795,0,1.333334,0.5963554,1.333334,1.3333321
					C12.9205732,35.125,12.3242188,35.7213554,11.5872393,35.7213554z"/>
			</g>
			<g>
				<path fill="#32548C" d="M11.5872393,50.6888008H5.6184897c-0.7369795,0-1.3333335-0.5963516-1.3333335-1.3333321
					s0.596354-1.3333321,1.3333335-1.3333321h5.9687495c0.7369795,0,1.333334,0.5963516,1.333334,1.3333321
					S12.3242188,50.6888008,11.5872393,50.6888008z"/>
			</g>
		</g>
	</g>
</g>
<g id="forum">
</g>
<g id="quiz">
</g>
<g id="book">
</g>
<g id="database">
</g>
<g id="wiki">
</g>
<g id="choice">
</g>
<g id="workshop">
</g>
<g id="certificate">
</g>
<g id="scheduler">
</g>
<g id="equella">
</g>
<g id="file">
</g>
<g id="folder">
</g>
<g id="ims_x5F_content_x5F_package">
</g>
<g id="label">
</g>
<g id="lightbox_x5F_gallery">
</g>
<g id="nln_x5F_learning_x5F_object">
</g>
<g id="page">
</g>
<g id="subpage">
</g>
<g id="tab_x5F_display">
</g>
<g id="new_x5F_label">
</g>
<g id="url">
</g>
<g id="_x33_60_x5F_degree_x5F_diagnostics">
</g>
<g id="adobe_x5F_connect">
</g>
<g id="attendance_x5F_register">
</g>
<g id="booking">
</g>
<g id="chat">
</g>
<g id="checklist">
</g>
<g id="external_x5F_tool">
</g>
<g id="face_x5F_to_x5F_face">
</g>
<g id="forumNG">
</g>
<g id="glossary">
</g>
<g id="group_x5F_choice">
</g>
<g id="journal">
</g>
<g id="mediasite_x5F_content">
</g>
<g id="nanogong_x5F_voice">
</g>
<g id="questionnaire">
</g>
<g id="scorm_x5F_package">
</g>
<g id="survey">
</g>
<g id="tutorship">
</g>
<g id="advanced_x5F_forum">
</g>
<g id="subcourse">
</g>
<g id="lesson_1_">
</g>
<g id="adaptive_x5F_quiz">
</g>
<g id="ou_x5F_wiki">
</g>
<g id="support_x5F_tracker">
</g>
<g id="view_x5F_comments">
</g>
<g id="no_x5F_comment">
</g>
<g id="attention">
</g>
<g id="search">
</g>
<g id="submitted">
</g>
<g id="feedback">
</g>
<g id="T_x5F_I_x5F_N">
</g>
</svg>
