<?xml version="1.0" encoding="UTF-8"?><svg xmlns="http://www.w3.org/2000/svg" xmlns:xlink="http://www.w3.org/1999/xlink" viewBox="0 0 200 200"><defs><linearGradient id="Degradado_sin_nombre_70" x1="59.11" y1="120.82" x2="207.02" y2="-13.34" gradientUnits="userSpaceOnUse"><stop offset="0" stop-color="#6fd90d"/><stop offset="1" stop-color="#00ba10"/></linearGradient><linearGradient id="Degradado_sin_nombre_70-2" x1="29.67" y1="148.62" x2="91.21" y2="92.79" xlink:href="#Degradado_sin_nombre_70"/><linearGradient id="Degradado_sin_nombre_70-3" x1="172.95" y1="19.82" x2="181.41" y2="12.15" xlink:href="#Degradado_sin_nombre_70"/><linearGradient id="Degradado_sin_nombre_70-4" x1="70.59" y1="68.76" x2="177.53" y2="-28.24" xlink:href="#Degradado_sin_nombre_70"/><linearGradient id="Degradado_sin_nombre_70-5" x1="124.59" y1="100.04" x2="215.39" y2="17.68" xlink:href="#Degradado_sin_nombre_70"/><linearGradient id="Degradado_sin_nombre_70-6" x1="161.16" y1="25.75" x2="169.17" y2="18.49" xlink:href="#Degradado_sin_nombre_70"/></defs><g style="isolation:isolate;"><g id="Capa_1"><g><path d="M187.07,12.87c-.67-1.63-2.04-2.9-3.75-3.41-.07-.02-.13-.04-.2-.06,0,0-.07-.02-.2-.05-2.01-.51-17.11-4.16-38-4.55-.02,0-.03,0-.05,0-.52,0-1.05-.02-1.58-.02-.1,0-.2,0-.3,0-.52,0-1.05,0-1.58,0h-.01c-.72,0-1.45,0-2.19,.01-.18,0-.37,0-.55,0-.42,0-.85,.01-1.28,.02-23.89,.5-45.38,5.47-63.92,14.8-2.9,1.46-5.72,3.03-8.45,4.69-.13,.08-.25,.15-.38,.23-.5,.31-1,.61-1.49,.93-.44,.28-.89,.56-1.33,.85-.28,.18-.55,.36-.83,.55-.53,.35-1.06,.71-1.59,1.07-.12,.09-.25,.17-.37,.26-.63,.44-1.27,.89-1.9,1.35-.12,.09-.24,.18-.36,.26-.68,.5-1.35,1-2.02,1.51-.02,.02-.04,.03-.06,.05-.68,.52-1.36,1.06-2.04,1.6-.04,.03-.07,.06-.11,.08-.11,.09-.21,.17-.32,.25-.59,.48-1.17,.96-1.75,1.45,0,0-.02,.02-.03,.02-.65,.55-1.3,1.11-1.94,1.67-.07,.06-.14,.13-.22,.19C17.79,63.67,1.57,106.78,.01,164.89c0,.1,0,.2,0,.3-.03,1.34,.39,2.62,1.16,3.66,.54,.72,1.24,1.33,2.07,1.75,.63,.32,1.3,.52,1.98,.6,.23,.03,.45,.04,.68,.04,1.28,0,2.56-.42,3.61-1.23,.35-.28,.72-.54,1.09-.81,.18-.13,.37-.25,.55-.38,.18-.12,.36-.24,.54-.36,.27-.18,.55-.35,.83-.53,.07-.04,.14-.08,.2-.12,10.75-6.49,27.62-9.5,44.47-11.75,.02,0,.03,0,.05,0,4.58-.61,9.28-1.18,14.03-1.76,20.3-2.47,41.18-5.02,58.47-11.38,.07-.03,.15-.05,.22-.08,.48-.18,.96-.36,1.43-.54,.16-.06,.32-.13,.48-.19,.4-.16,.79-.31,1.18-.47,.24-.1,.48-.2,.72-.3,.32-.13,.64-.27,.95-.4,.33-.14,.65-.29,.98-.43,.23-.1,.46-.2,.69-.31,.56-.26,1.11-.51,1.66-.78,19.08-9.24,34.61-28.02,43.71-52.87,8.48-23.15,10.53-49.63,5.62-72.66-.07-.34-.18-.68-.31-1Z" style="fill:#00944c;"/><g><path d="M181.61,15.1S10.95-29.7,5.89,165.34c26.19-20.3,91.96-13.03,129.59-31.25,37.63-18.22,55.65-74.36,46.13-119Z" style="fill:url(#Degradado_sin_nombre_70);"/><path d="M5.89,165.34c11.29-8.75,29.94-12.38,50.52-15.13,1.87-15.23,5.27-30.28,7.55-45.98,.8-4.78,1.1-10.64,2.69-15.02C36.92,119.94,5.92,164.22,5.89,165.34Z" style="fill:url(#Degradado_sin_nombre_70-2); mix-blend-mode:screen; opacity:.44;"/><path d="M181.03,14.95c-.38-.09-.95-.23-1.69-.39-3.56,2.04-6.95,4.35-10.54,6.58,4.13-2.03,8.25-4.04,12.23-6.19Z" style="fill:url(#Degradado_sin_nombre_70-3); mix-blend-mode:screen;"/><path d="M20.15,87.77c28.93-16.34,66.91-23.35,71.69-25.74,9.56-5.18,18.32-11.55,27.87-17.52,8.36-4.78,17.12-7.17,25.48-12.34,3.8-2.28,7.91-3.59,12.04-5.16,3.8-2.05,7.68-3.96,11.56-5.86,3.58-2.23,6.98-4.54,10.54-6.58C162.68,10.89,58.71-7.8,20.15,87.77Z" style="fill:url(#Degradado_sin_nombre_70-4); mix-blend-mode:screen; opacity:.44;"/><path d="M157.24,27c-11.2,6.05-21.58,13.31-28.37,25.07-15.59,28.47-19.93,59.82-22.59,91.11,10.66-2.13,20.66-4.95,29.21-9.09,37.63-18.22,55.65-74.36,46.13-119,0,0-.21-.05-.59-.15-3.97,2.15-8.09,4.17-12.23,6.19-1.46,.91-2.95,1.81-4.49,2.66-2.32,1.31-4.7,2.29-7.07,3.2Z" style="fill:url(#Degradado_sin_nombre_70-5); mix-blend-mode:screen; opacity:.44;"/><path d="M164.3,23.8c1.55-.86,3.03-1.76,4.49-2.66-3.88,1.9-7.77,3.81-11.56,5.86,2.37-.9,4.75-1.89,7.07-3.2Z" style="fill:url(#Degradado_sin_nombre_70-6); mix-blend-mode:screen;"/><path d="M182.12,17.54c-14.43,4.6-28.23,10.52-41.47,17.71-1.69,.83-3.3,1.8-4.93,2.74l-4.91,2.8c-3.24,1.92-6.42,3.96-9.65,5.92-3.18,2.04-6.3,4.18-9.45,6.27-3.09,2.18-6.12,4.46-9.19,6.68l-8.99,6.99c-1.52,1.14-2.93,2.42-4.39,3.63l-4.36,3.68c-5.73,5-11.46,10.06-16.88,15.43-11.03,10.58-21.44,21.86-31.62,33.46,8.22-13.06,17.56-25.45,27.72-37.17,2.59-2.88,5.11-5.85,7.84-8.61l4.04-4.21,2.02-2.1c.68-.69,1.4-1.34,2.11-2.02l4.24-4.01c1.43-1.32,2.79-2.72,4.28-3.97l4.4-3.85c1.47-1.27,2.92-2.59,4.45-3.8,3.07-2.41,6.11-4.86,9.22-7.23,3.18-2.28,6.32-4.61,9.53-6.84l4.94-3.19c1.66-1.04,3.26-2.17,4.99-3.11l5.12-2.91c1.71-.96,3.41-1.94,5.19-2.79l5.3-2.59c.89-.43,1.76-.87,2.67-1.26l2.73-1.12,5.46-2.24c.9-.4,1.84-.69,2.78-1l2.81-.93c1.88-.59,3.72-1.29,5.63-1.8l5.74-1.43c.96-.23,1.9-.49,2.87-.68l2.92-.49c1.95-.33,3.89-.62,5.84-.89,1.37-.19,2.64,.76,2.83,2.13,.17,1.23-.58,2.37-1.72,2.73l-.1,.03Z" style="fill:#00944c;"/></g></g></g></g></svg>