<?xml version="1.0" encoding="UTF-8"?><svg xmlns="http://www.w3.org/2000/svg" xmlns:xlink="http://www.w3.org/1999/xlink" viewBox="0 0 200 200"><defs><linearGradient id="Degradado_sin_nombre_150" x1="70.6" y1="161.81" x2="85.08" y2="29.69" gradientUnits="userSpaceOnUse"><stop offset="0" stop-color="#ffa600"/><stop offset=".22" stop-color="#ffbd0c"/><stop offset=".52" stop-color="#ffd81b"/><stop offset=".79" stop-color="#ffe923"/><stop offset="1" stop-color="#ffef27"/></linearGradient><linearGradient id="Degradado_sin_nombre_156" x1="102.66" y1="29.48" x2="72.2" y2="89.48" gradientUnits="userSpaceOnUse"><stop offset="0" stop-color="#fff"/><stop offset="1" stop-color="#ffef27" stop-opacity="0"/></linearGradient><linearGradient id="Degradado_sin_nombre_142" x1="70.16" y1="229.22" x2="102.41" y2="11.15" gradientUnits="userSpaceOnUse"><stop offset="0" stop-color="#8bc1f7"/><stop offset="1" stop-color="#7b82d3"/></linearGradient></defs><g style="isolation:isolate;"><g id="Capa_1"><g><path d="M80.62,2.55c-1.06,0-2.14,.03-3.21,.07-16.77,.77-32.61,7.79-44.62,19.76-12,11.97-19.06,27.8-19.88,44.56-.54,11.11,1.53,21.82,6.15,31.81,4.39,9.48,11.04,17.96,19.23,24.51,4.03,3.23,6.35,8.06,6.35,13.26v4.4c-3.26,1.6-5.51,4.96-5.51,8.83v16.11c0,14.71,11.97,26.68,26.68,26.68h29.61c14.71,0,26.68-11.97,26.68-26.68v-16.11c0-3.87-2.25-7.22-5.51-8.83v-4.11c0-5.3,2.37-10.36,6.33-13.53,16.19-12.95,25.48-32.25,25.48-52.95C148.41,32.96,118,2.55,80.62,2.55Z" style="fill:#34468c;"/><g><path d="M142.84,70.34c0-35.34-29.46-63.8-65.17-62.15-31.8,1.47-57.64,27.23-59.19,59.03-1.02,20.92,8.3,39.7,23.3,51.7,5.34,4.28,8.44,10.77,8.44,17.61v27.68c0,9.87,8,17.87,17.87,17.87h25.07c9.87,0,17.87-8,17.87-17.87v-27.4c0-6.92,3.02-13.56,8.42-17.88,14.25-11.4,23.39-28.93,23.39-48.6Z" style="fill:url(#Degradado_sin_nombre_150);"/><g><g><line x1="61.25" y1="155.23" x2="61.25" y2="81.87" style="fill:none; stroke:#de7e00; stroke-linecap:round; stroke-linejoin:round; stroke-width:5px;"/><line x1="100.05" y1="155.23" x2="100.05" y2="81.87" style="fill:none; stroke:#de7e00; stroke-linecap:round; stroke-linejoin:round; stroke-width:5px;"/></g><path d="M49.33,81.87h31.34c4.49,0,8.13,4.64,8.13,10.35h0c0,5.72-3.64,10.35-8.13,10.35-4.49,0-8.13-4.64-8.13-10.35,0-5.72,3.64-10.35,8.13-10.35h31.34" style="fill:none; stroke:#de7e00; stroke-linecap:round; stroke-linejoin:round; stroke-width:5px;"/></g><g style="mix-blend-mode:screen;"><circle cx="82.15" cy="69.88" r="53.71" style="fill:url(#Degradado_sin_nombre_156);"/></g><g><path d="M44.71,149.76v16.11c0,11.66,9.45,21.11,21.11,21.11h29.61c11.66,0,21.11-9.45,21.11-21.11v-16.11c0-2.35-1.91-4.26-4.26-4.26H48.97c-2.35,0-4.26,1.91-4.26,4.26Z" style="fill:url(#Degradado_sin_nombre_142);"/><line x1="54.81" y1="158.53" x2="106.53" y2="158.53" style="fill:none; stroke:#6b9ce3; stroke-linecap:round; stroke-linejoin:round; stroke-width:3.98px;"/><line x1="54.81" y1="171.11" x2="106.53" y2="171.11" style="fill:none; stroke:#6b9ce3; stroke-linecap:round; stroke-linejoin:round; stroke-width:3.98px;"/></g></g></g></g></g></svg>