<?xml version="1.0" encoding="UTF-8"?><svg xmlns="http://www.w3.org/2000/svg" xmlns:xlink="http://www.w3.org/1999/xlink" viewBox="0 0 200 200"><defs><linearGradient id="Degradado_sin_nombre_38" x1="11.07" y1="134.49" x2="140.74" y2="121.84" gradientUnits="userSpaceOnUse"><stop offset="0" stop-color="#ff954f"/><stop offset="1" stop-color="#ff7140"/></linearGradient><linearGradient id="Degradado_sin_nombre_59" x1="6.43" y1="57.65" x2="193.76" y2="57.65" gradientUnits="userSpaceOnUse"><stop offset="0" stop-color="#ffa061"/><stop offset="1" stop-color="#ff924e"/></linearGradient></defs><g style="isolation:isolate;"><g id="Capa_1"><g><path d="M200,19.84s0,0,0,0c0-.01,0-.02,0-.04,0-.06,0-.11,0-.17,0-.07,0-.14,0-.21,0-.05-.01-.1-.02-.14,0-.06-.01-.11-.02-.17,0-.05-.01-.1-.02-.15-.01-.07-.03-.14-.04-.21,0-.01,0-.03,0-.04,0-.05-.02-.1-.03-.15,0-.02,0-.03-.01-.05-.01-.06-.03-.12-.05-.19-.02-.09-.05-.17-.07-.26-.02-.07-.05-.14-.07-.21-.03-.08-.06-.16-.09-.24,0-.01,0-.03-.02-.04,0-.02-.02-.04-.02-.05-.03-.06-.05-.12-.08-.18-.02-.05-.04-.09-.07-.14-.03-.06-.06-.12-.09-.18-.03-.05-.05-.1-.08-.15-.01-.02-.03-.04-.04-.07-.04-.07-.08-.13-.12-.2-.03-.06-.07-.11-.11-.17-.02-.02-.03-.05-.05-.07-.03-.05-.07-.09-.11-.14-.04-.06-.09-.12-.13-.17-.03-.04-.06-.07-.08-.11-.03-.03-.05-.06-.08-.09-.04-.05-.09-.1-.13-.15-.05-.06-.1-.11-.16-.16-.03-.03-.05-.05-.08-.08-.03-.03-.06-.06-.09-.08-.06-.05-.11-.1-.17-.15-.04-.04-.09-.08-.13-.12-.02-.02-.05-.04-.07-.05-.05-.04-.1-.08-.15-.11-.06-.05-.12-.09-.19-.14-.03-.02-.06-.04-.08-.06-.04-.02-.07-.04-.11-.07-.06-.04-.12-.08-.19-.12-.05-.03-.1-.06-.16-.09-.04-.02-.09-.05-.13-.07-.04-.02-.07-.04-.11-.06-.08-.04-.15-.07-.23-.11-.02-.01-.05-.02-.07-.03-.05-.02-.1-.04-.15-.06-.13-.05-.26-.1-.39-.14-.07-.02-.14-.04-.21-.07-.14-.04-.27-.07-.41-.1-.07-.01-.13-.03-.2-.04-.12-.02-.25-.04-.37-.06-.04,0-.08-.01-.13-.02-.02,0-.04,0-.06,0-.18-.02-.37-.03-.55-.03,0,0,0,0,0,0h0s-52.97,.12-85.24,.19c-1.45,0-2.86,0-4.22,0-1.02,0-2.01,0-2.98,0-2.57,0-4.92,.01-7.01,.02-.52,0-1.03,0-1.51,0-5.36,.01-8.6,.02-8.6,.02-1.61,0-3.16,.63-4.32,1.75L3.5,89.54c-2.07,1.02-3.5,3.14-3.5,5.6v68.94c0,3.45,2.79,6.24,6.24,6.24H115.97s.01,0,.02,0c.2,0,.39-.01,.59-.03,.11-.01,.22-.03,.32-.05,.09-.01,.18-.02,.27-.04,.13-.02,.25-.06,.37-.09,.07-.02,.14-.03,.21-.05,.12-.04,.25-.08,.37-.13,.07-.02,.13-.05,.2-.07,.12-.05,.23-.1,.34-.15,.07-.03,.14-.06,.21-.1,.1-.05,.2-.12,.3-.18,.07-.04,.15-.09,.22-.13,.09-.06,.18-.13,.27-.19,.07-.05,.15-.11,.22-.16,.09-.07,.17-.15,.25-.22,.05-.05,.11-.09,.17-.15l77.79-75.22c1.22-1.18,1.9-2.79,1.9-4.49V19.93s0-.02,0-.03c0-.02,0-.03,0-.05Z" style="fill:#992b15;"/><g><rect x="6.24" y="95.14" width="109.73" height="68.94" style="fill:url(#Degradado_sin_nombre_38);"/><polygon points="115.97 164.07 193.76 88.86 193.76 19.92 115.97 95.14 115.97 164.07" style="fill:#de4c2f;"/><polygon points="6.43 95.38 84.22 20.17 193.76 19.92 115.97 95.14 6.43 95.38" style="fill:url(#Degradado_sin_nombre_59);"/><polygon points="77.6 47.24 63.6 60.78 130.28 60.63 144.12 47.24 77.6 47.24" style="fill:#de4c2f;"/><polygon points="63.6 60.78 77.59 60.75 77.59 47.25 63.6 60.78" style="fill:#992b15;"/><polygon points="57.27 66.9 43.27 80.44 109.95 80.29 123.79 66.9 57.27 66.9" style="fill:#de4c2f;"/><polygon points="57.29 66.9 57.27 66.9 43.27 80.44 57.29 80.41 57.29 66.9" style="fill:#992b15;"/><polygon points="97.93 27.58 83.93 41.12 150.61 40.97 164.45 27.58 97.93 27.58" style="fill:#de4c2f;"/><polygon points="97.93 27.58 83.93 41.12 97.94 41.09 97.94 27.58 97.93 27.58" style="fill:#992b15;"/><polygon points="6.43 95.38 84.22 20.17 193.76 19.92 87.36 22.69 15.79 92 115.97 95.14 6.43 95.38" style="fill:#ff8a61; mix-blend-mode:screen;"/></g></g></g></g></svg>