<?xml version="1.0" encoding="UTF-8"?><svg xmlns="http://www.w3.org/2000/svg" xmlns:xlink="http://www.w3.org/1999/xlink" viewBox="0 0 200 200"><defs><linearGradient id="Degradado_sin_nombre_4" x1="-9.62" y1="92.46" x2="198.96" y2="92.46" gradientTransform="translate(-30.35 68.19) rotate(-32.19)" gradientUnits="userSpaceOnUse"><stop offset="0" stop-color="#9de32d"/><stop offset="1" stop-color="#41bf2a"/></linearGradient><linearGradient id="Degradado_sin_nombre_3" x1="6.93" y1="130.92" x2="188.07" y2="130.92" gradientUnits="userSpaceOnUse"><stop offset="0" stop-color="#9de32d" stop-opacity="0"/><stop offset="1" stop-color="#41bf2a"/></linearGradient></defs><g style="isolation:isolate;"><g id="Capa_1"><g id="tODby3"><g><path d="M54.02,146.03c-2.35,1.64-3.52,3.78-4.37,6.14-1.41,3.93-3.05,7.71-6.19,10.65-4.8,4.49-10.47,6.02-16.79,4.71-9.47-1.96-17.19-6.88-21.42-15.69-4.36-9.07-4.72-18.64,.69-27.53,3.83-6.29,10.07-8.66,17.34-8.35,2.02,.09,4.03,.39,6.04,.32,1.63-.06,3.25-.54,5.17-.88-.41-.99-.62-1.69-.97-2.31-3.61-6.45-8.53-11.89-13.55-17.23-3.67-3.9-7.5-7.66-11.31-11.42-5.89-5.82-5.04-14.48,1.98-18.92,11.26-7.13,22.56-14.22,33.85-21.32,3.35-2.11,6.75-2.2,10.08-.02,3.14,2.05,4.25,5.53,3.64,9.57-.44,2.88-.84,5.88-.5,8.73,.74,6.27,4.74,9.14,10.83,7.61,8.08-2.04,14.98-6.38,20.31-12.78,4.06-4.86,3.24-9.61-2.11-13.05-2.46-1.58-5.4-2.57-8.25-3.38-5.34-1.51-8.37-6.41-6.49-11.58,.62-1.72,1.97-3.53,3.5-4.52,11.54-7.45,23.16-14.78,34.85-22,6.69-4.13,14.67-.82,17.43,6.81,3,8.29,6.08,16.55,9.45,24.69,1.49,3.59,3.75,6.86,5.69,10.27,.27,.48,.71,.87,1.14,1.38,2.26-1.44,3.26-3.6,4.3-5.78,1.52-3.21,2.7-6.76,4.91-9.43,5.27-6.37,12.33-8,20.18-5.76,8.06,2.3,14.88,6.66,18.82,14.2,4.62,8.84,5.24,18.21,.56,27.27-3.76,7.28-10.38,9.93-18.34,9.61-2.01-.08-4.03-.38-6.04-.29-1.56,.07-3.09,.58-5.12,.99,1.22,2.09,1.98,3.93,3.19,5.39,5.01,6.02,10.07,12,15.28,17.85,2.67,3.01,5.77,5.64,8.53,8.58,4.87,5.21,3.69,13.8-2.34,17.61-11.37,7.17-22.77,14.32-34.14,21.5-3.39,2.14-6.83,2.44-10.23,.19-3.36-2.22-4.41-5.47-3.71-9.35,.68-3.76,1.3-7.51-.04-11.27-1.6-4.46-4.76-6.45-9.42-5.5-2.46,.5-4.92,1.32-7.16,2.44-5.12,2.56-9.97,5.58-13.74,10.04-.19,.22-.36,.45-.54,.68-3.37,4.39-2.91,8.54,1.33,12.14,2.58,2.19,5.68,3.24,8.9,4.03,3.01,.74,5.38,2.3,6.65,5.26,1.74,4.05,.49,8.58-3.25,10.95-11.79,7.48-23.59,14.96-35.47,22.32-5.59,3.46-13.81,.53-16.21-5.71-2.57-6.67-4.84-13.45-7.44-20.1-2.21-5.64-4.68-11.18-8.22-16.15-.36-.51-.78-.97-1.27-1.59Z" style="fill:#00944c;"/><path d="M81.83,186.05c-2.71,0-5.32-1.67-6.21-3.98-1.2-3.11-2.36-6.32-3.48-9.43-1.27-3.51-2.58-7.13-3.97-10.69-2.1-5.36-4.78-11.59-8.81-17.24-.31-.43-.64-.84-1.01-1.29l-.42-.52-2.92-3.65-3.83,2.67c-3.76,2.62-5.35,6.14-6.22,8.55-1.37,3.81-2.67,6.6-4.9,8.69-2.74,2.57-5.73,3.81-9.14,3.81-1.03,0-2.11-.12-3.22-.35-8.62-1.78-14.65-6.14-17.92-12.95-3.92-8.17-3.77-15.83,.45-22.76,2.45-4.02,6.31-5.98,11.82-5.98,.34,0,.69,0,1.04,.02,.67,.03,1.34,.09,2.01,.14,1.15,.09,2.34,.19,3.61,.19,.28,0,.55,0,.83-.01,1.55-.06,2.93-.35,4.27-.64,.51-.11,1.04-.22,1.6-.32l6.11-1.1-2.37-5.73c-.12-.3-.22-.56-.32-.81-.25-.64-.5-1.31-.9-2.03-3.87-6.92-8.96-12.57-14.28-18.21-3.46-3.68-7.08-7.26-10.59-10.71l-.85-.84c-1.76-1.74-2.61-3.85-2.39-5.94,.22-2.05,1.47-3.9,3.53-5.2,9.02-5.71,18.06-11.39,27.1-17.08l6.73-4.23c.9-.56,1.72-.85,2.45-.85s1.43,.26,2.23,.78c.48,.31,1.94,1.27,1.43,4.64-.51,3.36-.93,6.65-.52,10.07,.91,7.67,5.79,12.43,12.75,12.43,1.36,0,2.8-.19,4.27-.56,9.15-2.31,16.87-7.16,22.93-14.42,3.68-4.41,3.99-8.39,3.59-10.95-.4-2.59-1.91-6.34-6.84-9.51-3.12-2-6.59-3.14-9.58-3.98-1.42-.4-2.54-1.22-3.07-2.26-.43-.84-.46-1.78-.09-2.81,.31-.85,1.02-1.71,1.51-2.02,11.03-7.12,22.73-14.51,34.76-21.94,1.13-.7,2.3-1.05,3.48-1.05,2.86,0,5.45,2.08,6.62,5.3,2.67,7.38,5.9,16.11,9.53,24.9,1.2,2.89,2.76,5.48,4.27,7.98,.57,.95,1.15,1.9,1.69,2.85,.46,.82,1,1.4,1.39,1.82,.09,.09,.18,.19,.27,.3l2.81,3.34,3.69-2.34c3.45-2.19,4.92-5.28,6.09-7.76l.05-.1c.42-.88,.81-1.78,1.21-2.69,.95-2.19,1.86-4.26,3.04-5.7,2.73-3.3,5.98-4.9,9.93-4.9,1.57,0,3.26,.25,5.03,.76,7.62,2.17,12.78,6,15.76,11.71,4.09,7.82,4.27,15.44,.55,22.65-2.44,4.73-6.46,6.93-12.63,6.93-.35,0-.71,0-1.07-.02-.66-.03-1.33-.08-1.99-.13-1.12-.09-2.28-.18-3.51-.18-.32,0-.64,0-.96,.02-1.53,.07-2.9,.39-4.22,.71-.52,.12-1.08,.26-1.68,.38l-6.83,1.39,3.5,6.03c.37,.63,.69,1.24,.99,1.81,.75,1.42,1.53,2.89,2.68,4.27,5.87,7.06,10.76,12.78,15.39,17.98,1.6,1.8,3.29,3.43,4.93,5.01,1.3,1.25,2.53,2.43,3.68,3.67,1.28,1.37,1.87,3.27,1.62,5.21-.26,1.99-1.34,3.72-2.98,4.75-5.09,3.21-10.18,6.41-15.27,9.61-6.29,3.96-12.59,7.92-18.87,11.89-1.02,.65-1.94,.97-2.72,.97-.66,0-1.34-.24-2.08-.73-1.28-.84-1.98-1.85-1.54-4.28,.7-3.89,1.58-8.73-.26-13.85-2.06-5.75-6.42-9.04-11.96-9.04-1.02,0-2.08,.11-3.17,.33-2.94,.6-5.85,1.59-8.4,2.87-4.66,2.33-10.62,5.72-15.32,11.28-.24,.28-.46,.56-.68,.85-5.03,6.54-4.26,13.64,2.06,19,3.5,2.97,7.5,4.23,10.95,5.07,2.18,.53,2.85,1.46,3.24,2.37,.8,1.87,.28,3.73-1.33,4.75-12.48,7.92-23.76,15.06-35.42,22.29-.77,.47-1.7,.73-2.71,.73Z" style="fill:url(#Degradado_sin_nombre_4);"/><path d="M9.76,75.79c.05,1.81,.89,3.59,2.42,5.1l.85,.84c3.5,3.46,7.13,7.04,10.59,10.71,5.32,5.65,10.41,11.29,14.28,18.21,.4,.72,.66,1.39,.9,2.03,.09,.24,.2,.51,.32,.81l2.37,5.73-6.11,1.1c-.56,.1-1.09,.21-1.6,.32-1.34,.29-2.73,.58-4.27,.64-.28,0-.55,.01-.83,.01-1.27,0-2.46-.1-3.61-.19-.67-.06-1.34-.11-2.01-.14-.35-.01-.69-.02-1.04-.02-5.51,0-9.37,1.95-11.82,5.98-4.22,6.94-4.37,14.6-.45,22.76,3.27,6.81,9.3,11.17,17.92,12.95,1.11,.23,2.2,.35,3.22,.35,3.41,0,6.39-1.25,9.14-3.81,2.24-2.09,3.53-4.87,4.9-8.69,.87-2.41,2.46-5.93,6.22-8.55l3.83-2.67,2.92,3.65,.42,.52c.37,.45,.71,.86,1.01,1.29,4.02,5.64,6.71,11.88,8.81,17.24,1.39,3.56,2.7,7.19,3.97,10.69,1.12,3.11,2.28,6.32,3.48,9.43,.89,2.31,3.5,3.98,6.21,3.98,1.01,0,1.95-.25,2.71-.73,11.66-7.22,22.94-14.37,35.42-22.29,1.61-1.02,2.13-2.89,1.33-4.75-.39-.92-1.06-1.84-3.24-2.37-3.45-.84-7.45-2.1-10.95-5.07-6.32-5.36-7.09-12.46-2.06-19,.22-.29,.45-.57,.68-.85,4.7-5.56,10.65-8.95,15.32-11.28,2.55-1.28,5.45-2.27,8.4-2.87,1.08-.22,2.15-.33,3.17-.33,5.54,0,9.9,3.3,11.96,9.04,1.84,5.12,.96,9.96,.26,13.85-.44,2.43,.26,3.44,1.54,4.28,.74,.49,1.42,.73,2.08,.73,.78,0,1.7-.33,2.72-.97,6.29-3.97,12.58-7.93,18.87-11.89,5.09-3.2,10.18-6.41,15.27-9.61,1.35-.85,2.31-2.18,2.76-3.73L9.76,75.79Z" style="fill:url(#Degradado_sin_nombre_3); mix-blend-mode:screen;"/></g></g></g></g></svg>