<?xml version="1.0" encoding="UTF-8"?><svg id="Capa_1" xmlns="http://www.w3.org/2000/svg" xmlns:xlink="http://www.w3.org/1999/xlink" viewBox="0 0 200 200"><defs><linearGradient id="Degradado_sin_nombre_2" x1="92.12" y1="14.38" x2="106.51" y2="226.29" gradientUnits="userSpaceOnUse"><stop offset="0" stop-color="#ffe900"/><stop offset="1" stop-color="#ffba09"/></linearGradient></defs><path d="M94.7,160.01l-53.91,22.62c-2.51,1.05-5.25-.93-5.02-3.65l4.85-58.26c.08-.97-.23-1.93-.87-2.67L1.58,73.76c-1.78-2.06-.73-5.28,1.92-5.9l56.91-13.39c.95-.22,1.77-.82,2.27-1.65L93,2.83c1.41-2.33,4.79-2.33,6.21,0l30.32,49.99c.51,.83,1.32,1.43,2.27,1.65l56.91,13.39c2.65,.62,3.7,3.84,1.92,5.9l-38.17,44.29c-.64,.74-.95,1.7-.87,2.67l4.85,58.26c.23,2.72-2.51,4.7-5.02,3.65l-53.91-22.62c-.9-.38-1.91-.38-2.81,0Z" style="fill:#de5804;"/><path d="M96.85,9.89l29.66,48.9c.12,.2,.32,.34,.55,.4l55.67,13.1c.64,.15,.89,.92,.46,1.42l-37.34,43.32c-.15,.18-.23,.41-.21,.64l4.75,56.99c.05,.65-.6,1.13-1.21,.88l-52.74-22.13c-.22-.09-.46-.09-.67,0l-52.74,22.13c-.6,.25-1.26-.22-1.21-.88l4.75-56.99c.02-.23-.06-.46-.21-.64L9.02,73.7c-.43-.5-.18-1.27,.46-1.42l55.67-13.1c.23-.05,.42-.2,.55-.4L95.36,9.89c.34-.56,1.15-.56,1.49,0Z" style="fill:url(#Degradado_sin_nombre_2);"/></svg>