<?xml version="1.0" encoding="UTF-8"?><svg id="Capa_1" xmlns="http://www.w3.org/2000/svg" xmlns:xlink="http://www.w3.org/1999/xlink" viewBox="0 0 500 500"><defs><linearGradient id="Degradado_sin_nombre_314" x1="250.43" y1="300.89" x2="247.87" y2="-2.16" gradientUnits="userSpaceOnUse"><stop offset="0" stop-color="#fff1a1"/><stop offset=".19" stop-color="#ffd9b3"/><stop offset=".54" stop-color="#ffb3cf"/><stop offset=".82" stop-color="#ff9ce1"/><stop offset="1" stop-color="#ff94e8"/></linearGradient><linearGradient id="Degradado_sin_nombre_63" x1="250" y1="303.37" x2="250" y2="111.61" gradientUnits="userSpaceOnUse"><stop offset="0" stop-color="#2bf228"/><stop offset="1" stop-color="#00b555"/></linearGradient><linearGradient id="Degradado_sin_nombre_18" x1="250" y1="303.37" x2="250" y2="111.61" gradientUnits="userSpaceOnUse"><stop offset="0" stop-color="#60d929"/><stop offset="1" stop-color="#039c17"/></linearGradient><linearGradient id="Degradado_sin_nombre_63-2" x1="253.64" y1="392.87" x2="250.84" y2="104.03" xlink:href="#Degradado_sin_nombre_63"/><radialGradient id="Degradado_sin_nombre_15" cx="250" cy="250" fx="250" fy="250" r="247.8" gradientUnits="userSpaceOnUse"><stop offset=".54" stop-color="#ff496b"/><stop offset=".76" stop-color="#ff4768"/><stop offset=".91" stop-color="#ff425f"/><stop offset="1" stop-color="#ff3d55"/></radialGradient><radialGradient id="Degradado_sin_nombre_14" cx="250" cy="250" fx="250" fy="250" r="210.39" gradientUnits="userSpaceOnUse"><stop offset=".54" stop-color="#c23751"/><stop offset=".8" stop-color="#c2354e"/><stop offset=".96" stop-color="#c23045"/><stop offset="1" stop-color="#c22f42"/></radialGradient></defs><g><circle cx="250" cy="250" r="247.8" style="fill:url(#Degradado_sin_nombre_314);"/><path d="M336.03,17.55c-26.8-9.92-55.78-15.35-86.03-15.35s-59.23,5.43-86.03,15.35h172.07Z" style="fill:url(#Degradado_sin_nombre_63);"/><path d="M54.21,354.43s42.73-75.72,63.27-78.59c20.54-2.86,61.62,78.59,61.62,78.59H54.21Z" style="fill:#c5af72;"/><path d="M179.1,349.4s26.45-46.87,39.16-48.64c12.72-1.77,38.14,48.64,38.14,48.64h-77.31Z" style="fill:#d8caa3;"/><path d="M22.97,349.4c38.3,87.36,125.53,148.4,227.03,148.4s188.72-61.03,227.03-148.4H22.97Z" style="fill:url(#Degradado_sin_nombre_18);"/><path d="M333.38,16.59c-26.06-9.31-54.12-14.39-83.38-14.39s-57.32,5.08-83.38,14.39h166.75Z" style="fill:url(#Degradado_sin_nombre_63-2);"/><path d="M250,48.2c53.9,0,104.58,20.99,142.69,59.11,38.12,38.11,59.11,88.79,59.11,142.69s-20.99,104.58-59.11,142.69c-38.11,38.11-88.79,59.11-142.69,59.11s-104.58-20.99-142.69-59.11c-38.12-38.11-59.11-88.79-59.11-142.69s20.99-104.58,59.11-142.69c38.11-38.11,88.79-59.11,142.69-59.11m0-46C113.14,2.2,2.2,113.14,2.2,250s110.94,247.8,247.8,247.8,247.8-110.94,247.8-247.8S386.86,2.2,250,2.2h0Z" style="fill:url(#Degradado_sin_nombre_15);"/><path d="M250,48.2c53.9,0,104.58,20.99,142.69,59.11,38.12,38.11,59.11,88.79,59.11,142.69s-20.99,104.58-59.11,142.69c-38.11,38.11-88.79,59.11-142.69,59.11s-104.58-20.99-142.69-59.11c-38.12-38.11-59.11-88.79-59.11-142.69s20.99-104.58,59.11-142.69c38.11-38.11,88.79-59.11,142.69-59.11m0-8.59c-116.2,0-210.39,94.2-210.39,210.39s94.2,210.39,210.39,210.39,210.39-94.2,210.39-210.39S366.2,39.61,250,39.61h0Z" style="fill:url(#Degradado_sin_nombre_14);"/></g><g><polygon points="339.51 401.05 131.32 385.98 149.37 375.83 357.56 390.9 339.51 401.05" style="fill:#d1994b;"/><polygon points="357.56 390.9 357.56 394.88 339.32 405.45 339.51 401.05 357.56 390.9" style="fill:#764d23;"/><polygon points="339.51 401.05 131.32 385.98 131.62 389.9 339.32 405.45 339.51 401.05" style="fill:#93602c;"/></g><g><polygon points="366.24 386.24 158.05 371.17 176.1 361.01 384.29 376.08 366.24 386.24" style="fill:#c18642;"/><polygon points="384.29 376.08 384.29 380.07 366.05 390.64 366.24 386.24 384.29 376.08" style="fill:#764d23;"/><polygon points="366.24 386.24 158.05 371.17 158.36 375.08 366.05 390.64 366.24 386.24" style="fill:#93602c;"/></g><g><polygon points="346.13 390.64 137.93 375.57 155.99 365.41 364.18 380.48 346.13 390.64" style="fill:#e0a450;"/><polygon points="364.18 380.48 364.18 384.47 345.94 395.03 346.13 390.64 364.18 380.48" style="fill:#764d23;"/><polygon points="346.13 390.64 137.93 375.57 138.24 379.48 345.94 395.03 346.13 390.64" style="fill:#93602c;"/></g></svg>