<?xml version="1.0" encoding="UTF-8"?><svg id="Capa_1" xmlns="http://www.w3.org/2000/svg" xmlns:xlink="http://www.w3.org/1999/xlink" viewBox="0 0 500 500"><defs><linearGradient id="Degradado_sin_nombre_314" x1="249.37" y1="272.25" x2="254.68" y2="103.44" gradientUnits="userSpaceOnUse"><stop offset="0" stop-color="#fff1a1"/><stop offset=".19" stop-color="#ffd9b3"/><stop offset=".54" stop-color="#ffb3cf"/><stop offset=".82" stop-color="#ff9ce1"/><stop offset="1" stop-color="#ff94e8"/></linearGradient><linearGradient id="Degradado_sin_nombre_18" x1="256.03" y1="279.36" x2="256.03" y2="91.23" gradientUnits="userSpaceOnUse"><stop offset="0" stop-color="#60d929"/><stop offset="1" stop-color="#039c17"/></linearGradient><radialGradient id="Degradado_sin_nombre_15" cx="250" cy="252.2" fx="250" fy="252.2" r="247.8" gradientUnits="userSpaceOnUse"><stop offset=".54" stop-color="#ff496b"/><stop offset=".76" stop-color="#ff4768"/><stop offset=".91" stop-color="#ff425f"/><stop offset="1" stop-color="#ff3d55"/></radialGradient><radialGradient id="Degradado_sin_nombre_14" cx="250" cy="252.2" fx="250" fy="252.2" r="210.39" gradientUnits="userSpaceOnUse"><stop offset=".54" stop-color="#c23751"/><stop offset=".8" stop-color="#c2354e"/><stop offset=".96" stop-color="#c23045"/><stop offset="1" stop-color="#c22f42"/></radialGradient></defs><circle cx="250" cy="252.2" r="247.8" style="fill:url(#Degradado_sin_nombre_314);"/><path d="M89.38,391.73c5,4,8,10,13,15,61,63,153,77,232,51,61-19,96-76,133-128,1.3-1.71,2.52-3.45,3.7-5.21H40.98c10.99,25.3,26.87,47.47,48.41,67.21Z" style="fill:url(#Degradado_sin_nombre_18);"/><path d="M250,50.4c53.9,0,104.58,20.99,142.69,59.11,38.12,38.11,59.11,88.79,59.11,142.69s-20.99,104.58-59.11,142.69c-38.11,38.11-88.79,59.11-142.69,59.11s-104.58-20.99-142.69-59.11c-38.12-38.11-59.11-88.79-59.11-142.69s20.99-104.58,59.11-142.69c38.11-38.11,88.79-59.11,142.69-59.11m0-46C113.14,4.4,2.2,115.34,2.2,252.2s110.94,247.8,247.8,247.8,247.8-110.94,247.8-247.8S386.86,4.4,250,4.4h0Z" style="fill:url(#Degradado_sin_nombre_15);"/><path d="M250,50.4c53.9,0,104.58,20.99,142.69,59.11,38.12,38.11,59.11,88.79,59.11,142.69s-20.99,104.58-59.11,142.69c-38.11,38.11-88.79,59.11-142.69,59.11s-104.58-20.99-142.69-59.11c-38.12-38.11-59.11-88.79-59.11-142.69s20.99-104.58,59.11-142.69c38.11-38.11,88.79-59.11,142.69-59.11m0-8.59c-116.2,0-210.39,94.2-210.39,210.39s94.2,210.39,210.39,210.39,210.39-94.2,210.39-210.39S366.2,41.81,250,41.81h0Z" style="fill:url(#Degradado_sin_nombre_14);"/><g><rect x="81.73" y="253.5" width="147.86" height="71.21" style="fill:#ffd4a2;"/><g><rect x="104.28" y="269.04" width="93.6" height="55.91" style="fill:#555c78;"/><polygon points="106.28 324.95 106.28 271.04 195.88 271.04 195.88 324.95 199.88 324.95 199.88 267.04 102.28 267.04 102.28 324.95 106.28 324.95" style="fill:#d1994b;"/></g><polygon points="427.47 324.53 358.77 324.53 358.4 252.29 427.1 252.29 427.47 324.53" style="fill:#ffd4a2;"/><g><rect x="381.48" y="272.12" width="25.42" height="29.6" style="fill:#555c78;"/><path d="M404.9,274.12v25.6h-21.42v-25.6h21.42m2.61-4h-28.02v20.12h0v12.09c0,.29,.09,.56,.24,.78,.1,.15,.23,.28,.38,.38,.22,.15,.49,.24,.78,.24h28.02v-32.21h0c0-.58-.35-1.07-.85-1.28-.17-.07-.35-.11-.54-.11h0Z" style="fill:#d1994b;"/></g><rect x="223.54" y="205.65" width="142.02" height="118.75" style="fill:#ffd4a2;"/><g><rect x="274.09" y="248.73" width="41.44" height="63.25" style="fill:#555c78;"/><path d="M313.53,250.73v59.25h-37.44v-59.25h37.44m4-4h-45.44v67.25h45.44v-67.25h0Z" style="fill:#d1994b;"/></g></g><g><rect x="87.66" y="251.9" width="140.49" height="9.64" style="fill:#93602c;"/><rect x="360.59" y="252.29" width="62.15" height="9.64" style="fill:#93602c;"/><rect x="229.54" y="205.29" width="131.05" height="9.64" style="fill:#93602c;"/><rect x="223.33" y="205.29" width="9.64" height="119.71" style="fill:#d1994b;"/><rect x="81.46" y="251.9" width="9.64" height="73.1" style="fill:#d1994b;"/><rect x="355.77" y="205.29" width="9.64" height="119.71" style="fill:#d1994b;"/><rect x="418.07" y="252.29" width="9.64" height="72.71" style="fill:#d1994b;"/></g><rect x="218.01" y="308.87" width="153.6" height="15.81" style="fill:#93602c;"/></svg>