<?xml version="1.0" encoding="UTF-8"?><svg xmlns="http://www.w3.org/2000/svg" xmlns:xlink="http://www.w3.org/1999/xlink" viewBox="0 0 500 500"><defs><linearGradient id="Degradado_sin_nombre_314" x1="249.37" y1="272.25" x2="254.68" y2="103.44" gradientUnits="userSpaceOnUse"><stop offset="0" stop-color="#fff1a1"/><stop offset=".19" stop-color="#ffd9b3"/><stop offset=".54" stop-color="#ffb3cf"/><stop offset=".82" stop-color="#ff9ce1"/><stop offset="1" stop-color="#ff94e8"/></linearGradient><linearGradient id="Degradado_sin_nombre_18" x1="256.03" y1="279.36" x2="256.03" y2="91.23" gradientUnits="userSpaceOnUse"><stop offset="0" stop-color="#60d929"/><stop offset="1" stop-color="#039c17"/></linearGradient><radialGradient id="Degradado_sin_nombre_15" cx="250" cy="252.2" fx="250" fy="252.2" r="247.8" gradientUnits="userSpaceOnUse"><stop offset=".54" stop-color="#ff496b"/><stop offset=".76" stop-color="#ff4768"/><stop offset=".91" stop-color="#ff425f"/><stop offset="1" stop-color="#ff3d55"/></radialGradient><radialGradient id="Degradado_sin_nombre_14" cx="250" cy="252.2" fx="250" fy="252.2" r="210.39" gradientUnits="userSpaceOnUse"><stop offset=".54" stop-color="#c23751"/><stop offset=".8" stop-color="#c2354e"/><stop offset=".96" stop-color="#c23045"/><stop offset="1" stop-color="#c22f42"/></radialGradient><radialGradient id="Degradado_sin_nombre_360" cx="294.81" cy="316.77" fx="294.81" fy="316.77" r="54.59" gradientUnits="userSpaceOnUse"><stop offset="0" stop-color="#d9773b" stop-opacity=".99"/><stop offset=".45" stop-color="#da7a3f" stop-opacity=".99"/><stop offset=".98" stop-color="#dd864d" stop-opacity="1"/><stop offset="1" stop-color="#de874e"/></radialGradient></defs><g style="isolation:isolate;"><g id="Capa_1"><g><circle cx="250" cy="252.2" r="247.8" style="fill:url(#Degradado_sin_nombre_314);"/><path d="M89.38,391.73c5,4,8,10,13,15,61,63,153,77,232,51,61-19,96-76,133-128,1.3-1.71,2.52-3.45,3.7-5.21H40.98c10.99,25.3,26.87,47.47,48.41,67.21Z" style="fill:url(#Degradado_sin_nombre_18);"/><path d="M250,50.4c53.9,0,104.58,20.99,142.69,59.11,38.12,38.11,59.11,88.79,59.11,142.69s-20.99,104.58-59.11,142.69c-38.11,38.11-88.79,59.11-142.69,59.11s-104.58-20.99-142.69-59.11c-38.12-38.11-59.11-88.79-59.11-142.69s20.99-104.58,59.11-142.69c38.11-38.11,88.79-59.11,142.69-59.11m0-46C113.14,4.4,2.2,115.34,2.2,252.2s110.94,247.8,247.8,247.8,247.8-110.94,247.8-247.8S386.86,4.4,250,4.4h0Z" style="fill:url(#Degradado_sin_nombre_15);"/><path d="M250,50.4c53.9,0,104.58,20.99,142.69,59.11,38.12,38.11,59.11,88.79,59.11,142.69s-20.99,104.58-59.11,142.69c-38.11,38.11-88.79,59.11-142.69,59.11s-104.58-20.99-142.69-59.11c-38.12-38.11-59.11-88.79-59.11-142.69s20.99-104.58,59.11-142.69c38.11-38.11,88.79-59.11,142.69-59.11m0-8.59c-116.2,0-210.39,94.2-210.39,210.39s94.2,210.39,210.39,210.39,210.39-94.2,210.39-210.39S366.2,41.81,250,41.81h0Z" style="fill:url(#Degradado_sin_nombre_14);"/><g><g><polygon points="81.73 253.05 81.73 324.71 229.59 324.71 229.59 231.87 81.73 253.05" style="fill:#ffd4a2;"/><path d="M197.73,267.04H104.42c-1.19,0-2.15,.96-2.15,2.15v55.52h97.6v-55.52c0-1.19-.96-2.15-2.15-2.15Z" style="fill:#555c78;"/><path d="M76.85,256.43c-1.64,0-3.08-1.2-3.33-2.87-.28-1.84,.99-3.57,2.83-3.85l169.55-25.76c1.85-.29,3.57,.99,3.85,2.83,.28,1.84-.99,3.57-2.83,3.85l-169.55,25.76c-.17,.03-.34,.04-.51,.04Z" style="fill:#93602c;"/></g><g><g><polygon points="427.47 324.53 358.77 324.53 358.4 249.69 427.1 249.69 427.47 324.53" style="fill:#ffd4a2;"/><path d="M433.56,259.36l-3.92-24.62c-.33-2.04-2.09-3.55-4.16-3.55h-67.09v30.99h72.76c1.5,0,2.64-1.34,2.41-2.82Z" style="fill:#93602c;"/><rect x="379.48" y="270.12" width="29.41" height="33.6" style="fill:#555c78;"/></g><polygon points="365.56 324.4 223.54 324.4 223.54 204.74 294.55 156.62 365.56 204.74 365.56 324.4" style="fill:#ffd4a2;"/><rect x="272.09" y="246.73" width="45.44" height="65.25" style="fill:#555c78;"/><rect x="218.01" y="308.87" width="153.6" height="15.81" style="fill:url(#Degradado_sin_nombre_360);"/><path d="M332.43,260.06h-75.25c-1.21,0-2.01-1.26-1.49-2.36l10.99-23.35c.27-.58,.85-.95,1.49-.95h53.26c.64,0,1.22,.37,1.49,.95l10.99,23.35c.52,1.1-.28,2.36-1.49,2.36Z" style="fill:#93602c;"/><path d="M377.03,219.57c-.85,0-1.7-.25-2.44-.79l-79.78-57.26-79.78,57.26c-1.88,1.35-4.5,.92-5.84-.96-1.35-1.88-.92-4.5,.96-5.84l82.22-59.01c1.46-1.05,3.43-1.05,4.88,0l82.22,59.01c1.88,1.35,2.31,3.97,.96,5.84-.82,1.14-2.1,1.75-3.41,1.75Z" style="fill:#93602c;"/><rect x="277.47" y="186.88" width="33.79" height="38.6" style="fill:#555c78;"/><g><rect x="267.66" y="308.87" width="53.36" height="6.03" style="fill:#de9043;"/><rect x="267.66" y="308.87" width="53.36" height="6.03" style="fill:#de9043; mix-blend-mode:screen; opacity:.3;"/><rect x="260.53" y="314.9" width="67.62" height="6.03" style="fill:#de9043;"/><rect x="260.53" y="314.9" width="67.62" height="6.03" style="fill:#de9043; mix-blend-mode:screen; opacity:.5;"/><rect x="253.89" y="320.93" width="80.91" height="6.03" style="fill:#de9043;"/><rect x="253.89" y="320.93" width="80.91" height="6.03" style="fill:#de9043; mix-blend-mode:screen; opacity:.9;"/></g></g></g></g></g></g></svg>