<?xml version="1.0" encoding="UTF-8"?><svg xmlns="http://www.w3.org/2000/svg" xmlns:xlink="http://www.w3.org/1999/xlink" viewBox="0 0 500 500"><defs><linearGradient id="Degradado_sin_nombre_314" x1="249.37" y1="272.25" x2="254.68" y2="103.44" gradientUnits="userSpaceOnUse"><stop offset="0" stop-color="#fff1a1"/><stop offset=".19" stop-color="#ffd9b3"/><stop offset=".54" stop-color="#ffb3cf"/><stop offset=".82" stop-color="#ff9ce1"/><stop offset="1" stop-color="#ff94e8"/></linearGradient><radialGradient id="Degradado_sin_nombre_360" cx="-621.2" cy="304.03" fx="-621.2" fy="304.03" r="14.64" gradientTransform="translate(798.17) scale(.59 1)" gradientUnits="userSpaceOnUse"><stop offset="0" stop-color="#d9773b" stop-opacity=".99"/><stop offset=".45" stop-color="#da7a3f" stop-opacity=".99"/><stop offset=".98" stop-color="#dd864d" stop-opacity="1"/><stop offset="1" stop-color="#de874e"/></radialGradient><linearGradient id="Degradado_sin_nombre_18" x1="434.49" y1="266.63" x2="433.94" y2="326.04" gradientUnits="userSpaceOnUse"><stop offset="0" stop-color="#60d929"/><stop offset="1" stop-color="#039c17"/></linearGradient><radialGradient id="Degradado_sin_nombre_360-2" cx="-702.69" cy="307.2" fx="-702.69" fy="307.2" r="12.71" gradientTransform="translate(626.72) scale(.79 1)" xlink:href="#Degradado_sin_nombre_360"/><linearGradient id="Degradado_sin_nombre_18-2" x1="72.58" y1="262.22" x2="72.01" y2="323.96" xlink:href="#Degradado_sin_nombre_18"/><linearGradient id="Degradado_sin_nombre_18-3" x1="256.03" y1="279.36" x2="256.03" y2="91.23" xlink:href="#Degradado_sin_nombre_18"/><linearGradient id="Degradado_sin_nombre_469" x1="220.31" y1="279.36" x2="220.31" y2="91.23" gradientUnits="userSpaceOnUse"><stop offset="0" stop-color="#c6f6ff"/><stop offset="1" stop-color="#96ffec"/></linearGradient><radialGradient id="Degradado_sin_nombre_15" cx="250" cy="252.2" fx="250" fy="252.2" r="247.8" gradientUnits="userSpaceOnUse"><stop offset=".54" stop-color="#ff496b"/><stop offset=".76" stop-color="#ff4768"/><stop offset=".91" stop-color="#ff425f"/><stop offset="1" stop-color="#ff3d55"/></radialGradient><radialGradient id="Degradado_sin_nombre_14" cx="250" cy="252.2" fx="250" fy="252.2" r="210.39" gradientUnits="userSpaceOnUse"><stop offset=".54" stop-color="#c23751"/><stop offset=".8" stop-color="#c2354e"/><stop offset=".96" stop-color="#c23045"/><stop offset="1" stop-color="#c22f42"/></radialGradient><linearGradient id="Degradado_sin_nombre_321" x1="82.66" y1="278.29" x2="257.2" y2="278.29" gradientUnits="userSpaceOnUse"><stop offset="0" stop-color="#fcfcff"/><stop offset=".28" stop-color="#f8f8fe"/><stop offset=".5" stop-color="#eeeffc"/><stop offset=".71" stop-color="#dddff9"/><stop offset=".91" stop-color="#c5c8f4"/><stop offset="1" stop-color="#b8bcf2"/></linearGradient><linearGradient id="Degradado_sin_nombre_16" x1="423.06" y1="285.97" x2="378.64" y2="287.65" gradientUnits="userSpaceOnUse"><stop offset="0" stop-color="#fcfcff"/><stop offset="1" stop-color="#e3e5ff"/></linearGradient><linearGradient id="Degradado_sin_nombre_251" x1="393.89" y1="266.73" x2="394.45" y2="304.61" gradientUnits="userSpaceOnUse"><stop offset="0" stop-color="#059bff"/><stop offset="1" stop-color="#00e5ff"/></linearGradient><linearGradient id="Degradado_sin_nombre_251-2" x1="393.89" y1="267.06" x2="394.45" y2="304.36" xlink:href="#Degradado_sin_nombre_251"/><linearGradient id="Degradado_sin_nombre_13" x1="337.14" y1="176.72" x2="339.03" y2="145.46" gradientUnits="userSpaceOnUse"><stop offset="0" stop-color="#fff"/><stop offset="1" stop-color="#e6e6ff"/></linearGradient><linearGradient id="Degradado_sin_nombre_13-2" x1="294.52" y1="263.5" x2="292.34" y2="177.49" xlink:href="#Degradado_sin_nombre_13"/><linearGradient id="Degradado_sin_nombre_267" x1="294.34" y1="228.95" x2="294.82" y2="280.24" gradientUnits="userSpaceOnUse"><stop offset="0" stop-color="#de9043" stop-opacity=".99"/><stop offset=".11" stop-color="#de9043" stop-opacity=".96"/><stop offset=".25" stop-color="#de9043" stop-opacity=".9"/><stop offset=".39" stop-color="#de9043" stop-opacity=".79"/><stop offset=".55" stop-color="#de9043" stop-opacity=".64"/><stop offset=".71" stop-color="#de9043" stop-opacity=".45"/><stop offset=".87" stop-color="#de9043" stop-opacity=".21"/><stop offset="1" stop-color="#de9043" stop-opacity="0"/></linearGradient><radialGradient id="Degradado_sin_nombre_360-3" cx="294.81" cy="316.77" fx="294.81" fy="316.77" r="54.59" gradientTransform="matrix(1, 0, 0, 1, 0, 0)" xlink:href="#Degradado_sin_nombre_360"/><linearGradient id="Degradado_sin_nombre_17" x1="350.03" y1="316.37" x2="349.92" y2="328.89" gradientUnits="userSpaceOnUse"><stop offset="0" stop-color="#25b61c"/><stop offset="1" stop-color="#039c17"/></linearGradient><linearGradient id="Degradado_sin_nombre_17-2" x1="2692.86" y1="316.37" x2="2692.75" y2="328.89" gradientTransform="translate(2928.84) rotate(-180) scale(1 -1)" xlink:href="#Degradado_sin_nombre_17"/><linearGradient id="Degradado_sin_nombre_251-3" x1="294.02" y1="182.98" x2="294.67" y2="226.5" xlink:href="#Degradado_sin_nombre_251"/><linearGradient id="Degradado_sin_nombre_251-4" x1="294.02" y1="183.36" x2="294.66" y2="226.21" xlink:href="#Degradado_sin_nombre_251"/></defs><g style="isolation:isolate;"><g id="Capa_1"><g><circle cx="250" cy="252.2" r="247.8" style="fill:url(#Degradado_sin_nombre_314);"/><g><rect x="432.58" y="283.66" width="4.36" height="40.74" style="fill:url(#Degradado_sin_nombre_360);"/><path d="M449.56,287.82c0,17.14-6.84,20.01-15.27,20.01s-15.27-2.87-15.27-20.01,8.69-42.08,15.27-42.08,15.27,24.93,15.27,42.08Z" style="fill:url(#Degradado_sin_nombre_18);"/></g><g><rect x="68.89" y="289.78" width="6.98" height="34.84" style="fill:url(#Degradado_sin_nombre_360-2);"/><path d="M90.51,284.24c0,17.82-8.12,20.8-18.14,20.8s-18.14-2.98-18.14-20.8,10.32-43.73,18.14-43.73,18.14,25.91,18.14,43.73Z" style="fill:url(#Degradado_sin_nombre_18-2);"/></g><path d="M89.38,391.73c5,4,8,10,13,15,61,63,153,77,232,51,61-19,96-76,133-128,1.3-1.71,2.52-3.45,3.7-5.21H40.98c10.99,25.3,26.87,47.47,48.41,67.21Z" style="fill:url(#Degradado_sin_nombre_18-3);"/><path d="M368.33,360.79l-36.27-36.27H102.52l-30.23,49.67c5.25,6.05,10.94,11.9,17.09,17.54,5,4,8,10,13,15,43.92,45.35,103.9,65.31,163.53,63.23l-50.84-109.17h153.25Z" style="fill:url(#Degradado_sin_nombre_469);"/><path d="M250,50.4c53.9,0,104.58,20.99,142.69,59.11,38.12,38.11,59.11,88.79,59.11,142.69s-20.99,104.58-59.11,142.69c-38.11,38.11-88.79,59.11-142.69,59.11s-104.58-20.99-142.69-59.11c-38.12-38.11-59.11-88.79-59.11-142.69s20.99-104.58,59.11-142.69c38.11-38.11,88.79-59.11,142.69-59.11m0-46C113.14,4.4,2.2,115.34,2.2,252.2s110.94,247.8,247.8,247.8,247.8-110.94,247.8-247.8S386.86,4.4,250,4.4h0Z" style="fill:url(#Degradado_sin_nombre_15);"/><path d="M250,50.4c53.9,0,104.58,20.99,142.69,59.11,38.12,38.11,59.11,88.79,59.11,142.69s-20.99,104.58-59.11,142.69c-38.11,38.11-88.79,59.11-142.69,59.11s-104.58-20.99-142.69-59.11c-38.12-38.11-59.11-88.79-59.11-142.69s20.99-104.58,59.11-142.69c38.11-38.11,88.79-59.11,142.69-59.11m0-8.59c-116.2,0-210.39,94.2-210.39,210.39s94.2,210.39,210.39,210.39,210.39-94.2,210.39-210.39S366.2,41.81,250,41.81h0Z" style="fill:url(#Degradado_sin_nombre_14);"/><g><g><rect x="100.1" y="103.19" width="169.16" height="164.09" style="fill:#ffd4a2;"/><g><rect x="131.79" y="115.01" width="27.59" height="38.26" style="fill:#555c78;"/><path d="M157.37,117.01v34.26h-23.59v-34.26h23.59m4-4h-31.59v40.77c0,.47,.22,.88,.56,1.16,.07,.06,.15,.11,.24,.16,.21,.11,.44,.18,.7,.18h30.09v-42.26h0Z" style="fill:#d1994b;"/></g><g><rect x="210.77" y="115.01" width="27.59" height="38.26" style="fill:#555c78;"/><path d="M236.35,117.01v34.26h-23.59v-34.26h23.59m2.51-4h-30.09v40.77c0,.82,.67,1.49,1.49,1.49h30.09v-21.96h0v-18.81c0-.72-.51-1.32-1.19-1.46-.1-.02-.2-.03-.3-.03h0Z" style="fill:#d1994b;"/></g><rect x="106.3" y="94.91" width="163.39" height="9.64" style="fill:#93602c;"/><rect x="100.1" y="94.91" width="9.64" height="165.15" style="fill:#d1994b;"/><rect x="260.06" y="104.55" width="9.64" height="105.36" style="fill:#d1994b;"/><g><g><rect x="131.79" y="184.4" width="27.59" height="38.26" style="fill:#555c78;"/><path d="M157.37,186.4v34.26h-23.59v-34.26h23.59m2.51-4h-30.09v40.77c0,.56,.31,1.05,.77,1.3,.13,.07,.27,.13,.42,.16,.1,.02,.2,.03,.3,.03h30.09v-40.77h0c0-.65-.42-1.2-1-1.4-.16-.05-.32-.09-.49-.09h0Z" style="fill:#d1994b;"/></g><g><rect x="210.74" y="184.4" width="27.59" height="38.26" style="fill:#555c78;"/><path d="M236.33,186.4v34.26h-23.59v-34.26h23.59m2.51-4h-30.09v40.77c0,.31,.09,.6,.25,.83,.05,.08,.11,.15,.18,.22,.14,.14,.3,.24,.47,.32,.09,.04,.18,.07,.28,.09s.2,.03,.3,.03h30.09v-40.77h0c0-.67-.44-1.23-1.04-1.42-.14-.05-.29-.08-.45-.08h0Z" style="fill:#d1994b;"/></g></g></g><g><polygon points="81.73 253.05 81.73 324.71 229.59 324.71 229.59 231.87 81.73 253.05" style="fill:url(#Degradado_sin_nombre_321);"/><g><path d="M197.73,267.04H104.42c-1.19,0-2.15,.96-2.15,2.15v55.52h97.6v-55.52c0-1.19-.96-2.15-2.15-2.15Z" style="fill:#5a95c9;"/><line x1="102.28" y1="281.13" x2="199.88" y2="281.13" style="fill:none; mix-blend-mode:multiply; opacity:.4; stroke:#5a95c9; stroke-miterlimit:10; stroke-width:.97px;"/><line x1="102.28" y1="294.49" x2="199.88" y2="294.49" style="fill:none; mix-blend-mode:multiply; opacity:.4; stroke:#5a95c9; stroke-miterlimit:10; stroke-width:.97px;"/><line x1="102.28" y1="309.83" x2="199.88" y2="309.83" style="fill:none; mix-blend-mode:multiply; opacity:.4; stroke:#5a95c9; stroke-miterlimit:10; stroke-width:.97px;"/></g><path d="M76.85,256.43c-1.64,0-3.08-1.2-3.33-2.87-.28-1.84,.99-3.57,2.83-3.85l169.55-25.76c1.85-.29,3.57,.99,3.85,2.83,.28,1.84-.99,3.57-2.83,3.85l-169.55,25.76c-.17,.03-.34,.04-.51,.04Z" style="fill:#2096fe;"/></g><g><g><polygon points="427.47 324.53 358.77 324.53 358.4 249.69 427.1 249.69 427.47 324.53" style="fill:url(#Degradado_sin_nombre_16);"/><path d="M433.56,259.36l-3.92-24.62c-.33-2.04-2.09-3.55-4.16-3.55h-67.09v30.99h72.76c1.5,0,2.64-1.34,2.41-2.82Z" style="fill:#2096fe;"/><g style="opacity:.39;"><line x1="370.05" y1="237.31" x2="424.91" y2="237.31" style="fill:none; stroke:#fff; stroke-linecap:round; stroke-linejoin:round; stroke-width:.57px;"/><line x1="370.05" y1="244.75" x2="426.2" y2="244.75" style="fill:none; stroke:#fff; stroke-linecap:round; stroke-linejoin:round; stroke-width:.57px;"/><line x1="370.05" y1="252.19" x2="427.1" y2="252.19" style="fill:none; stroke:#fff; stroke-linecap:round; stroke-linejoin:round; stroke-width:.57px;"/></g><path d="M433.52,259.11h-75.12v3.07h72.76c1.5,0,2.64-1.34,2.41-2.82l-.04-.25Z" style="fill:#2196fc; mix-blend-mode:multiply;"/><g><rect x="379.48" y="270.12" width="29.41" height="33.6" rx="1.39" ry="1.39" style="fill:url(#Degradado_sin_nombre_251);"/><path d="M408.9,271.51c0-.77-.62-1.39-1.39-1.39h-7.91l-20.12,20.12v12.09c0,.77,.62,1.39,1.39,1.39h10.46l17.57-17.57v-14.64Z" style="fill:url(#Degradado_sin_nombre_251-2); mix-blend-mode:screen;"/><line x1="380.59" y1="288.13" x2="407.75" y2="288.13" style="fill:none; stroke:#de9043; stroke-linecap:round; stroke-linejoin:round; stroke-width:2.09px;"/><path d="M406.81,272.21v29.43h-25.24v-29.43h25.24m.69-2.09h-26.63c-.77,0-1.39,.62-1.39,1.39v30.82c0,.77,.62,1.39,1.39,1.39h26.63c.77,0,1.39-.62,1.39-1.39v-30.82c0-.77-.62-1.39-1.39-1.39h0Z" style="fill:#de9043;"/></g></g><rect x="321.26" y="141.89" width="31.16" height="79.35" style="fill:url(#Degradado_sin_nombre_13);"/><rect x="316.63" y="136.92" width="40.43" height="11.23" rx="2.4" ry="2.4" style="fill:#2096fe;"/><path d="M316.63,145.33v.42c0,1.33,1.08,2.4,2.4,2.4h35.62c1.33,0,2.4-1.08,2.4-2.4v-.42h-40.43Z" style="fill:#2196fc; mix-blend-mode:multiply;"/><polygon points="365.56 324.4 223.54 324.4 223.54 204.74 294.55 156.62 365.56 204.74 365.56 324.4" style="fill:url(#Degradado_sin_nombre_13-2);"/><rect x="272.09" y="246.73" width="45.44" height="65.25" style="fill:#de9043;"/><polygon points="317.53 246.73 272.09 246.73 272.09 311.98 280.05 311.98 317.53 274.51 317.53 246.73" style="fill:url(#Degradado_sin_nombre_267); mix-blend-mode:multiply; opacity:.68;"/><rect x="278.36" y="255.74" width="32.9" height="19.05" style="fill:none; mix-blend-mode:multiply; opacity:.5; stroke:#de9043; stroke-miterlimit:10; stroke-width:.7px;"/><rect x="278.36" y="280.1" width="32.9" height="23.62" style="fill:none; mix-blend-mode:multiply; opacity:.5; stroke:#de9043; stroke-miterlimit:10; stroke-width:.7px;"/><g><rect x="223.33" y="289.98" width="2.94" height="22.86" style="fill:#de9043;"/><rect x="236.01" y="289.98" width="2.94" height="22.86" style="fill:#de9043;"/><rect x="248.68" y="289.98" width="2.94" height="22.86" style="fill:#de9043;"/><rect x="261.35" y="289.98" width="2.94" height="22.86" style="fill:#de9043;"/><rect x="218.01" y="288.05" width="51.79" height="3.86" rx="1.93" ry="1.93" style="fill:#2096fe;"/></g><g><rect x="330.56" y="289.98" width="2.94" height="22.86" style="fill:#de9043;"/><rect x="343.23" y="289.98" width="2.94" height="22.86" style="fill:#de9043;"/><rect x="355.91" y="289.98" width="2.94" height="22.86" style="fill:#de9043;"/><rect x="368.58" y="289.98" width="2.94" height="22.86" style="fill:#de9043;"/><rect x="325.24" y="288.05" width="51.79" height="3.86" rx="1.93" ry="1.93" style="fill:#2096fe;"/></g><rect x="218.01" y="308.87" width="153.6" height="15.81" style="fill:url(#Degradado_sin_nombre_360-3);"/><path d="M318.41,317.42s8.77-11.73,12.26-1.41c5.3-4.39,11.92-4.03,10.75,1.9,0,0,7.02-8.84,9.93,.29,4.04-5.85,13.17-6.87,13.56-.61,0,0,9.85-10.42,10.98,2.75,2.79-2.43,8.72-3.75,3.84,4.44h-59.32l-2.01-7.36Z" style="fill:url(#Degradado_sin_nombre_17);"/><path d="M267.6,317.42s-8.77-11.73-12.26-1.41c-5.3-4.39-11.92-4.03-10.75,1.9,0,0-7.02-8.84-9.93,.29-4.04-5.85-13.17-6.87-13.56-.61,0,0-9.85-10.42-10.98,2.75-2.79-2.43-8.72-3.75-3.84,4.44h59.32s2.01-7.36,2.01-7.36Z" style="fill:url(#Degradado_sin_nombre_17-2);"/><path d="M332.43,260.06h-75.25c-1.21,0-2.01-1.26-1.49-2.36l10.99-23.35c.27-.58,.85-.95,1.49-.95h53.26c.64,0,1.22,.37,1.49,.95l10.99,23.35c.52,1.1-.28,2.36-1.49,2.36Z" style="fill:#2096fe;"/><g style="opacity:.39;"><line x1="268.35" y1="237.31" x2="321.26" y2="237.31" style="fill:none; stroke:#fff; stroke-linecap:round; stroke-linejoin:round; stroke-width:.57px;"/><line x1="265.81" y1="243.71" x2="324.09" y2="243.71" style="fill:none; stroke:#fff; stroke-linecap:round; stroke-linejoin:round; stroke-width:.57px;"/><line x1="261.43" y1="252.19" x2="327.3" y2="252.19" style="fill:none; stroke:#fff; stroke-linecap:round; stroke-linejoin:round; stroke-width:.57px;"/></g><path d="M333.65,257.11h-77.67l-.28,.6c-.52,1.1,.28,2.36,1.49,2.36h75.25c1.21,0,2.01-1.26,1.49-2.36l-.28-.6Z" style="fill:#2196fc; mix-blend-mode:multiply;"/><path d="M377.03,219.57c-.85,0-1.7-.25-2.44-.79l-79.78-57.26-79.78,57.26c-1.88,1.35-4.5,.92-5.84-.96-1.35-1.88-.92-4.5,.96-5.84l82.22-59.01c1.46-1.05,3.43-1.05,4.88,0l82.22,59.01c1.88,1.35,2.31,3.97,.96,5.84-.82,1.14-2.1,1.75-3.41,1.75Z" style="fill:#2096fe;"/><path d="M297.25,159.75c-1.46-1.05-3.43-1.05-4.88,0l-82.22,59.01c1.42,1.02,3.38,1.1,4.88,.02l79.78-57.26,79.78,57.26c.74,.53,1.59,.79,2.44,.79s1.73-.28,2.45-.8c0,0,0,0,0,0l-82.22-59.01Z" style="fill:#2196fc; mix-blend-mode:multiply;"/><g><rect x="277.47" y="186.88" width="33.79" height="38.6" rx="1.6" ry="1.6" style="fill:url(#Degradado_sin_nombre_251-3);"/><path d="M311.26,188.47c0-.88-.72-1.6-1.6-1.6h-9.08l-23.11,23.11v13.89c0,.88,.72,1.6,1.6,1.6h12.01l20.18-20.18v-16.82Z" style="fill:url(#Degradado_sin_nombre_251-4); mix-blend-mode:screen;"/><line x1="278.74" y1="207.56" x2="309.94" y2="207.56" style="fill:none; stroke:#de9043; stroke-linecap:round; stroke-linejoin:round; stroke-width:2.4px;"/><path d="M308.87,189.27v33.81h-29v-33.81h29m.8-2.4h-30.6c-.88,0-1.6,.72-1.6,1.6v35.41c0,.88,.72,1.6,1.6,1.6h30.6c.88,0,1.6-.72,1.6-1.6v-35.41c0-.88-.72-1.6-1.6-1.6h0Z" style="fill:#de9043;"/></g><g><rect x="267.66" y="308.87" width="53.36" height="6.03" style="fill:#de9043;"/><rect x="267.66" y="308.87" width="53.36" height="6.03" style="fill:#de9043; mix-blend-mode:screen; opacity:.3;"/><rect x="260.53" y="314.9" width="67.62" height="6.03" style="fill:#de9043;"/><rect x="260.53" y="314.9" width="67.62" height="6.03" style="fill:#de9043; mix-blend-mode:screen; opacity:.5;"/><rect x="253.89" y="320.93" width="80.91" height="6.03" style="fill:#de9043;"/><rect x="253.89" y="320.93" width="80.91" height="6.03" style="fill:#de9043; mix-blend-mode:screen; opacity:.9;"/></g><g><circle cx="311.26" cy="280.1" r="2.71" style="fill:#ffd331;"/><circle cx="312.37" cy="279.36" r=".8" style="fill:#fff;"/></g></g></g></g></g></g></svg>