<?xml version="1.0" encoding="UTF-8"?><svg xmlns="http://www.w3.org/2000/svg" xmlns:xlink="http://www.w3.org/1999/xlink" viewBox="0 0 200 200"><defs><linearGradient id="Degradado_sin_nombre_71" x1="940.49" y1="27.62" x2="977.27" y2="204.66" gradientTransform="translate(1048.17) rotate(-180) scale(1 -1)" gradientUnits="userSpaceOnUse"><stop offset="0" stop-color="#18cdff"/><stop offset=".14" stop-color="#18c5ff"/><stop offset=".34" stop-color="#18afff"/><stop offset=".6" stop-color="#188bff"/><stop offset=".89" stop-color="#195aff"/><stop offset="1" stop-color="#1a46ff"/></linearGradient><linearGradient id="Degradado_sin_nombre_71-2" x1="69.52" y1="27.79" x2="106.31" y2="204.83" gradientTransform="matrix(1, 0, 0, 1, 0, 0)" xlink:href="#Degradado_sin_nombre_71"/><linearGradient id="Degradado_sin_nombre_90" x1="16.92" y1="153.42" x2="56.98" y2="231.77" gradientTransform="translate(194.03 -39.82) rotate(43.52) scale(.96) skewX(4.63)" gradientUnits="userSpaceOnUse"><stop offset="0" stop-color="#fff" stop-opacity="0"/><stop offset=".17" stop-color="#fff" stop-opacity=".01"/><stop offset=".31" stop-color="#fff" stop-opacity=".05"/><stop offset=".42" stop-color="#fff" stop-opacity=".11"/><stop offset=".53" stop-color="#fff" stop-opacity=".2"/><stop offset=".64" stop-color="#fff" stop-opacity=".32"/><stop offset=".74" stop-color="#fff" stop-opacity=".46"/><stop offset=".84" stop-color="#fff" stop-opacity=".63"/><stop offset=".93" stop-color="#fff" stop-opacity=".83"/><stop offset="1" stop-color="#fff"/></linearGradient></defs><g style="isolation:isolate;"><g id="Capa_1"><g><path d="M152.45,74.39c-.18-.48-.42-.94-.73-1.37L104.85,8.57c-3.73-5.13-9.5-8.07-15.84-8.07-4.76,0-9.2,1.66-12.69,4.65-1.16,1-2.22,2.14-3.16,3.43L26.34,73.03c-.26,.35-.47,.73-.63,1.12-8.43,12.86-12.88,27.83-12.88,43.39,0,42.99,34.17,77.97,76.17,77.97,.65,0,1.3,0,1.94-.03,.1,0,.19,0,.29-.01,.56-.02,1.12-.04,1.67-.07,.03,0,.07,0,.1,0,18.81-.99,36.36-8.95,49.79-22.67,12.56-12.83,20.21-29.38,21.97-47.22,.01-.15,.02-.29,.04-.44,.04-.48,.09-.95,.12-1.43,.05-.61,.08-1.23,.12-1.84,0-.02,0-.03,0-.05,.07-1.26,.1-2.53,.11-3.8,0-.02,0-.04,0-.06,0,0,0,0,0,0,0-.11,0-.22,0-.33,0-15.46-4.39-30.34-12.72-43.14Z" style="fill:#094a82;"/><g><path d="M31.05,76.36h-.12L77.75,11.91c5.55-7.64,16.95-7.65,22.51,0l46.87,64.46h-.18c7.91,11.68,12.55,25.87,12.55,41.17,0,39.92-31.56,72.29-70.49,72.29-38.93,0-70.49-32.36-70.49-72.29,0-15.3,4.64-29.49,12.55-41.17Z" style="fill:url(#Degradado_sin_nombre_71);"/><path d="M108.96,170.74c-41.14,2.6-64.88-18.58-70.41-45.66-5.53-27.08,10.66-55.86,18.17-70.55,7.51-14.69,19.45-32.95,25.08-41.48s13.65-4.87,13.92-5.16c-5.88-3.23-13.67-1.89-17.96,4.02L30.94,76.36h.12c-7.91,11.68-12.55,25.87-12.55,41.17,0,39.92,31.56,72.29,70.49,72.29s70.32-32.2,70.49-71.97c-2.51,24.69-18.1,48.43-50.53,52.9Z" style="fill:url(#Degradado_sin_nombre_71-2); mix-blend-mode:multiply; opacity:.46;"/><ellipse cx="105.11" cy="118.8" rx="45.74" ry="41.76" transform="translate(-52.23 98.68) rotate(-41.21)" style="fill:url(#Degradado_sin_nombre_90);"/><path d="M87.83,25.89c1.19,9.67,13.33,28.36,18.82,24.63,5.49-3.73-3.84-17.26-7.68-22.3-3.84-5.04-12.33-12-11.14-2.33Z" style="fill:#fff;"/><ellipse cx="114.43" cy="60.34" rx="5.24" ry="6.94" transform="translate(-14.84 65.3) rotate(-30)" style="fill:#fff;"/></g></g></g></g></svg>