<svg id="Ebene_1" xmlns="http://www.w3.org/2000/svg" viewBox="0 0 16 16"><style>.st0{fill:none}.st1{stroke:#000;stroke-miterlimit:10}</style><path class="st0" d="M16 16H0M0 0h16"/><path d="M1 13.2h7v1H1v-1z"/><path vector-effect="non-scaling-stroke" class="st1" d="M12.9 13.7c0-.6.4-1 1-1s1 .4 1 1-.4 1-1 1c-.5 0-1-.5-1-1zM13 10c0-.6.4-1 1-1s1 .4 1 1-.4 1-1 1-1-.5-1-1zM13 6.2c0-.6.4-1 1-1s1 .4 1 1-.4 1-1 1-1-.4-1-1zM13 2.5c0-.6.4-1 1-1s1 .4 1 1-.4 1-1 1-1-.4-1-1zM9.5 13.7c0-.6.4-1 1-1s1 .4 1 1-.4 1-1 1-1-.5-1-1zM9.5 10c0-.6.4-1 1-1s1 .4 1 1-.4 1-1 1c-.5 0-1-.5-1-1zM9.5 6.2c0-.6.4-1 1-1s1 .4 1 1-.4 1-1 1c-.5 0-1-.4-1-1zM9.5 2.5c0-.6.4-1 1-1s1 .4 1 1-.4 1-1 1c-.5 0-1-.4-1-1z"/><path d="M1 2.2h7v1H1v-1zM1 5.6h7v1H1v-1zM1 9.5h7v1H1v-1z"/></svg>