<?xml version="1.0" encoding="UTF-8"?><svg xmlns="http://www.w3.org/2000/svg" xmlns:xlink="http://www.w3.org/1999/xlink" viewBox="0 0 500 500"><defs><linearGradient id="Degradado_sin_nombre_7" x1="251.38" y1="392.89" x2="248.59" y2="104.05" gradientUnits="userSpaceOnUse"><stop offset="0" stop-color="#fff"/><stop offset="1" stop-color="#00fbff"/></linearGradient><radialGradient id="Degradado_sin_nombre_676" cx="250" cy="250" fx="250" fy="250" r="247.8" gradientUnits="userSpaceOnUse"><stop offset=".54" stop-color="#0ed3ff"/><stop offset=".79" stop-color="#0cd0ff"/><stop offset=".95" stop-color="#05c7ff"/><stop offset="1" stop-color="#02c3ff"/></radialGradient><radialGradient id="Degradado_sin_nombre_678" cx="250" cy="250" fx="250" fy="250" r="210.39" gradientUnits="userSpaceOnUse"><stop offset=".54" stop-color="#1495ea"/><stop offset=".81" stop-color="#1392ea"/><stop offset=".98" stop-color="#1189ea"/><stop offset="1" stop-color="#1188ea"/></radialGradient></defs><g style="isolation:isolate;"><g id="Capa_1"><g><circle cx="250" cy="250" r="247.8" style="fill:url(#Degradado_sin_nombre_7);"/><g><path d="M439.76,349.2c-3.59-12.19-14.86-21.1-28.22-21.1-7.55,0-14.42,2.87-19.63,7.55-5.32-21.43-24.68-37.32-47.75-37.32-13.57,0-25.86,5.49-34.76,14.38-11.9-21.68-34.93-36.38-61.4-36.38-23.76,0-44.75,11.85-57.4,29.95-8.32-7.04-19.08-11.29-30.84-11.29-23.91,0-43.71,17.55-47.23,40.47-5.39-6.08-13.24-9.93-22-9.93-14.28,0-26.17,10.17-28.86,23.66h-26.52c48.73,67.88,128.33,112.11,218.27,112.11s169.54-44.23,218.27-112.11h-31.94Z" style="fill:#8c5831;"/><path d="M432.8,337.19c-8.74,53.04-56.88,52.15-85.37,24.04-74.08,71.42-142.55,26.33-163.33,1.83-16.98,5.65-35.44,4.64-44.03-13.49-9.09-19.31,1.42-42.35,19.26-54.57-23.71,.21-43.3,17.68-46.8,40.46-5.39-6.08-13.24-9.93-22-9.93-14.28,0-26.17,10.17-28.86,23.66h-26.52c48.73,67.88,128.33,112.11,218.27,112.11s169.54-44.23,218.27-112.11h-31.94c-1.34-4.56-3.76-8.66-6.96-12.01Z" style="fill:#8c5831; mix-blend-mode:multiply; opacity:.23;"/><g><path d="M184.32,316.12c26.14-53.86,104.16-56.78,128.4,.22-8.97-8.76-18.58-16.57-29.76-21.77-34.89-16.62-71.37-3.05-98.64,21.55h0Z" style="fill:#c16e32;"/><path d="M281.6,336.76c19.22-36.97,68.52-55.19,100.35-22.38,9.04,9.51,14.82,21.52,17.39,34.16-3.74-5.12-7.37-10.09-11.34-14.63-32.99-38.59-71.53-25.12-106.4,2.85h0Z" style="fill:#c16e32;"/><path d="M109.24,345.69c-1.67-9.62,1.41-19.76,6.84-27.86,11.11-16.79,32.82-25.51,52.47-22.55,9.75,1.45,18.93,5.45,26.01,11.73-8.97-1.4-17.64-2.42-26.47-1.8-25.66,1.59-48.64,16.18-58.85,40.48h0Z" style="fill:#c16e32;"/></g></g><path d="M250,48.2c53.9,0,104.58,20.99,142.69,59.11,38.12,38.11,59.11,88.79,59.11,142.69s-20.99,104.58-59.11,142.69c-38.11,38.11-88.79,59.11-142.69,59.11s-104.58-20.99-142.69-59.11c-38.12-38.11-59.11-88.79-59.11-142.69s20.99-104.58,59.11-142.69c38.11-38.11,88.79-59.11,142.69-59.11m0-46C113.14,2.2,2.2,113.14,2.2,250s110.94,247.8,247.8,247.8,247.8-110.94,247.8-247.8S386.86,2.2,250,2.2h0Z" style="fill:url(#Degradado_sin_nombre_676);"/><path d="M250,48.2c53.9,0,104.58,20.99,142.69,59.11,38.12,38.11,59.11,88.79,59.11,142.69s-20.99,104.58-59.11,142.69c-38.11,38.11-88.79,59.11-142.69,59.11s-104.58-20.99-142.69-59.11c-38.12-38.11-59.11-88.79-59.11-142.69s20.99-104.58,59.11-142.69c38.11-38.11,88.79-59.11,142.69-59.11m0-8.59c-116.2,0-210.39,94.2-210.39,210.39s94.2,210.39,210.39,210.39,210.39-94.2,210.39-210.39S366.2,39.61,250,39.61h0Z" style="fill:url(#Degradado_sin_nombre_678);"/><ellipse cx="185.49" cy="332.16" rx="9.68" ry="6.16" style="fill:#d39146;"/><ellipse cx="248.92" cy="306.47" rx="6.16" ry="9.68" transform="translate(-121.54 443.03) rotate(-71.15)" style="fill:#d39146;"/><ellipse cx="254.72" cy="352.96" rx="6.78" ry="4.31" transform="translate(-73.63 67.22) rotate(-13.15)" style="fill:#d39146;"/><ellipse cx="329.26" cy="327.93" rx="4.44" ry="2.82" transform="translate(-65.98 83.52) rotate(-13.15)" style="fill:#d39146;"/></g></g></g></svg>