<?xml version="1.0" encoding="UTF-8"?><svg xmlns="http://www.w3.org/2000/svg" xmlns:xlink="http://www.w3.org/1999/xlink" viewBox="0 0 500 500"><defs><linearGradient id="Degradado_sin_nombre_8" x1="251.38" y1="392.89" x2="248.59" y2="104.05" gradientUnits="userSpaceOnUse"><stop offset="0" stop-color="#fff"/><stop offset="1" stop-color="#9eecff"/></linearGradient><linearGradient id="Degradado_sin_nombre_6" x1="251.88" y1="455.16" x2="250.74" y2="337.79" gradientUnits="userSpaceOnUse"><stop offset="0" stop-color="#fff"/><stop offset="1" stop-color="#5eefff"/></linearGradient><linearGradient id="Degradado_sin_nombre_63" x1="249.89" y1="375.55" x2="250.63" y2="457.24" gradientUnits="userSpaceOnUse"><stop offset="0" stop-color="#2bf228"/><stop offset="1" stop-color="#00b555"/></linearGradient><radialGradient id="Degradado_sin_nombre_676" cx="250" cy="250" fx="250" fy="250" r="247.8" gradientUnits="userSpaceOnUse"><stop offset=".54" stop-color="#0ed3ff"/><stop offset=".79" stop-color="#0cd0ff"/><stop offset=".95" stop-color="#05c7ff"/><stop offset="1" stop-color="#02c3ff"/></radialGradient><radialGradient id="Degradado_sin_nombre_678" cx="250" cy="250" fx="250" fy="250" r="210.39" gradientUnits="userSpaceOnUse"><stop offset=".54" stop-color="#1495ea"/><stop offset=".81" stop-color="#1392ea"/><stop offset=".98" stop-color="#1189ea"/><stop offset="1" stop-color="#1188ea"/></radialGradient><linearGradient id="Degradado_sin_nombre_63-2" x1="249.16" y1="-26.14" x2="243.8" y2="230.6" xlink:href="#Degradado_sin_nombre_63"/><linearGradient id="Degradado_sin_nombre_63-3" x1="249.16" y1="-26.14" x2="243.8" y2="230.6" xlink:href="#Degradado_sin_nombre_63"/><linearGradient id="Degradado_sin_nombre_63-4" x1="247.65" y1="46.08" x2="243.66" y2="236.94" xlink:href="#Degradado_sin_nombre_63"/></defs><g style="isolation:isolate;"><g id="Capa_1"><g><circle cx="250" cy="250" r="247.8" style="fill:url(#Degradado_sin_nombre_8);"/><path d="M316.04,227.29h149.9c31.46,0,4.28-17.99-47.11-15.42,0,0-45.4-43.69-108.79-15.42l6,30.84Z" style="fill:#fff;"/><path d="M247.74,261.5s-132.56,0-167.78,0c-35.22,0-4.79-17.3,52.73-14.83,0,0,50.81-42.02,121.76-14.83l-6.71,29.66Z" style="fill:#fff;"/><g><path d="M323.4,226.84s-7.33-4.57-12.98,.82c-5.66,5.4,4.08,26.53,13.15,20.6,6.59,2.31,8.24,1.15,13.56-8.91,5.23-12.68-6.64-18.28-13.72-12.52Z" style="fill:#f04f4f;"/><path d="M324.45,243.54c-1.47,2.2-4.15,3.9-6.99,2.18s-7.36-6.69-8.65-11.85c.72,7.95,7.93,18.86,14.76,14.39,6.59,2.31,8.24,1.15,13.56-8.91,.45-1.09,.77-2.13,.98-3.12-6.89,12.79-11.52,9.88-13.65,7.3Z" style="fill:#f04f4f; mix-blend-mode:multiply;"/><ellipse cx="332.36" cy="229.09" rx="2.03" ry="4.04" transform="translate(-44.46 373.84) rotate(-55.59)" style="fill:#f04f4f; mix-blend-mode:screen;"/></g><path d="M365.33,326.06c-19.49-9.3-56.77,19.53-88.54,42.52-12.05-8.78-48.19-36.24-84.7-62.67-36.51-26.44-70.72,10.08-154,72.61,43.46,71.51,122.11,119.28,211.91,119.28,55.67,0,107.04-18.36,148.41-49.35,26.53-19.87,48.95-44.95,65.74-73.7,0,0-79.33-39.39-98.82-48.69Z" style="fill:url(#Degradado_sin_nombre_6);"/><path d="M48.59,388.08c44.97,62.64,118.41,103.45,201.41,103.45s156.44-40.81,201.41-103.45H48.59Z" style="fill:url(#Degradado_sin_nombre_63);"/><path d="M250,48.2c53.9,0,104.58,20.99,142.69,59.11,38.12,38.11,59.11,88.79,59.11,142.69s-20.99,104.58-59.11,142.69c-38.11,38.11-88.79,59.11-142.69,59.11s-104.58-20.99-142.69-59.11c-38.12-38.11-59.11-88.79-59.11-142.69s20.99-104.58,59.11-142.69c38.11-38.11,88.79-59.11,142.69-59.11m0-46C113.14,2.2,2.2,113.14,2.2,250s110.94,247.8,247.8,247.8,247.8-110.94,247.8-247.8S386.86,2.2,250,2.2h0Z" style="fill:url(#Degradado_sin_nombre_676);"/><path d="M250,48.2c53.9,0,104.58,20.99,142.69,59.11,38.12,38.11,59.11,88.79,59.11,142.69s-20.99,104.58-59.11,142.69c-38.11,38.11-88.79,59.11-142.69,59.11s-104.58-20.99-142.69-59.11c-38.12-38.11-59.11-88.79-59.11-142.69s20.99-104.58,59.11-142.69c38.11-38.11,88.79-59.11,142.69-59.11m0-8.59c-116.2,0-210.39,94.2-210.39,210.39s94.2,210.39,210.39,210.39,210.39-94.2,210.39-210.39S366.2,39.61,250,39.61h0Z" style="fill:url(#Degradado_sin_nombre_678);"/><path d="M402.8,90c-2.26-7.66-15.85-12.42-26.3-14.7,4.52-9.87,6.54-18.73-6.11-26.01-12.65-7.28-35.99-1.26-35.99-1.26,0,0-.59-18.53-5.59-22.03-9.9-6.6-22.53-5.71-33.95-1.26-.62-3.15-1.84-5.84-4.05-7.74-11.5-9.85-30.41-5.54-44.55,3.51-.15-.17-.28-.35-.45-.51-15.57-14.09-35.54-6.73-46.45,8.61-5.58-4.55-14.53-6.91-20.55-2.61-6.42,4.67-11.81,10.03-15.79,16.46-6.75-3.83-14.28-6.4-21.21,.54-7.77,7.77-13.53,17.04-16.6,27.09-7.13-3.72-15.39-3.35-21.4,4.91-3.78,6.14-5.33,12.51-5.8,18.88-7.09,2.48-25.8,15.86-8.13,33.26,5.33-6.93,11.15-13.56,17.44-19.84,37.85-37.85,88.09-58.8,141.58-59.09,.37,0,.74-.01,1.11-.01,53.9,0,104.58,20.99,142.69,59.11,1.25,1.25,2.47,2.51,3.68,3.78,6.61-5.76,8.69-13.42,6.43-21.08Z" style="fill:#00bfff; mix-blend-mode:multiply; opacity:.46;"/><g><path d="M152.42,229.43s-7.33-4.57-12.98,.82c-5.66,5.4,4.08,26.53,13.15,20.6,6.59,2.31,8.24,1.15,13.56-8.91,5.23-12.68-6.64-18.28-13.72-12.52Z" style="fill:#f04f4f;"/><path d="M153.47,246.13c-1.47,2.2-4.15,3.9-6.99,2.18s-7.36-6.69-8.65-11.85c.72,7.95,7.93,18.86,14.76,14.39,6.59,2.31,8.24,1.15,13.56-8.91,.45-1.09,.77-2.13,.98-3.12-6.89,12.79-11.52,9.88-13.65,7.3Z" style="fill:#f04f4f; mix-blend-mode:multiply;"/><ellipse cx="161.38" cy="231.68" rx="2.03" ry="4.04" transform="translate(-120.95 233.9) rotate(-55.59)" style="fill:#f04f4f; mix-blend-mode:screen;"/></g><g><path d="M331.65,208.78c-1.94-1.53-4.76-1.2-6.3,.74-11.93,15.11-23.97,30.15-36.09,45.12-4.94,6.13-9.9,12.24-14.89,18.33-2.17-26.06-4.7-52.18-7.63-78.22h-31.72c-.51,8.01-1.03,16.02-1.54,24-1.23,18.31-2.85,42.72-4.35,64.91-15.1-15.48-31.39-32.35-46-47.64-3.44-3.49-8.89,1.03-6.13,5.06,4.73,6.67,9.47,13.32,14.15,20.03,11.64,16.61,24.34,34.65,35.99,51.78-.01,.2-.03,.41-.04,.61l-5.31,74.63h60.17c-.05-1-.09-2-.14-3.01-1.17-23.9-2.62-47.79-4.33-71.66-.3-4.27-.62-8.55-.94-12.83,2.82-4.47,5.65-8.93,8.51-13.38,15.65-24.29,31.5-48.46,47.55-72.48,1.28-1.92,.9-4.56-.95-6.01Z" style="fill:#cc7f21;"/><polygon points="227.4 388.15 225.84 331.07 221.78 388.15 227.4 388.15" style="fill:#cc7f21; mix-blend-mode:multiply; opacity:.36;"/><path d="M249.54,388.15c4.83-37.66,11.98-75.2,8.89-113.88-6.83,47.15-11.8,80.25-16.01,113.88h7.13Z" style="fill:#cc7f21; mix-blend-mode:multiply; opacity:.71;"/><path d="M281.94,388.15c-.05-1-.09-2-.14-3.01-1.17-23.9-2.62-47.79-4.33-71.66-.05-.69-.1-1.38-.15-2.07-5.18,25.72-11.18,51.2-17.69,76.74h22.32Z" style="fill:#cc7f21; mix-blend-mode:multiply; opacity:.36;"/><path d="M241.6,314.23c-.03,.64,4.56-73.04,6.8-119.46h-7.67c-2.64,39.63,.91,118.83,.87,119.46Z" style="fill:#cc7f21; mix-blend-mode:multiply; opacity:.36;"/><path d="M327.98,207.93c-1.01,.2-1.95,.73-2.64,1.6-11.93,15.11-23.97,30.15-36.09,45.12-4.85,6.01-9.72,12.01-14.61,17.99-3.39,6.48-7.08,12.89-9.91,19.51,27.89-23.9,45.39-53.46,63.25-84.22Z" style="fill:#cc7f21; mix-blend-mode:multiply; opacity:.71;"/><path d="M222.65,300.19c-3.28-5.7-23.72-42.62-42.81-65.36-2.65,.33-4.8,3.42-2.85,6.26,4.73,6.67,9.47,13.32,14.15,20.03,11.64,16.61,35.99,51.78,35.99,51.78,0,0,6.34,1.81,9.33-7.88-6.98,4.13-10.54,.85-13.81-4.84Z" style="fill:#cc7f21; mix-blend-mode:multiply; opacity:.71;"/><g style="opacity:.54;"><path d="M176.99,241.1c3.77,5.32,7.55,10.64,11.29,15.98,3.48-1.34,6.85-3.24,9.47-5.77-4.99-5.18-9.9-10.31-14.64-15.26-3.44-3.49-8.89,1.03-6.13,5.06Z" style="fill:#cc7f21; mix-blend-mode:multiply;"/><path d="M235.01,194.76c-.51,8.01-1.03,16.02-1.54,24-.87,12.9-1.93,28.82-3,44.85,7.8,1.27,15.54-2.23,21.71-6.83,6.21,3.52,14.28,3.31,20.78,.05-1.84-20.7-3.91-41.41-6.23-62.07h-31.72Z" style="fill:#cc7f21; mix-blend-mode:multiply;"/><path d="M331.65,208.78c-1.94-1.53-4.76-1.2-6.3,.74-11.39,14.43-22.89,28.79-34.45,43.09,5.44,2.21,10.95,2.18,16.25,.66,8.43-12.86,16.91-25.69,25.46-38.47,1.28-1.92,.9-4.56-.95-6.01Z" style="fill:#cc7f21; mix-blend-mode:multiply;"/></g><path d="M199.16,242.16s-32.08,23.53-32.08-4.2c0,0-36.09,4.2-25.07-22.69,0,0-45.12-2.52-29.08-31.93,0,0-46.12-12.6-11.03-42.86,0,0-29.08-38.65,9.02-42.02,0,0-12.03-38.65,23.06-31.09,0,0-5.01-42.02,36.09-23.53,0,0,12.03-33.61,40.1-14.29,0,0,28.07-38.65,58.15-9.24,0,0,47.12-20.17,38.1,13.44,0,0,46.12-19.33,38.1,15.13,0,0,36.09-1.68,23.06,20.17,0,0,49.13,17.65,20.05,33.61,0,0,34.09,25.21-1,36.97,0,0,13.03,38.65-18.05,30.25,0,0,22.06,24.37-11.03,30.25,0,0,6.02,26.05-19.05,24.37,0,0,3.01,16.81-20.05,10.92,0,0-24.06,21.01-40.1,5.04,0,0-1,22.69-24.06,5.88,0,0-34.09,21.85-55.14-4.2Z" style="fill:url(#Degradado_sin_nombre_63-2);"/><g><path d="M281.05,75.38c-.36,.18-.72,.38-1.07,.61-4.36,3.44-9.93,4.75-14.88,3.04-3,7.04,5.89,24.44,14.22,18.99,6.59,2.31,8.24,1.15,13.56-8.91,1.53-3.71,1.59-6.81,.74-9.2-4.58,1.05-9.55-.08-12.56-4.53Z" style="fill:#f04f4f;"/><ellipse cx="288.32" cy="87.9" rx="4.11" ry="2.08" transform="translate(59.58 284.2) rotate(-57.59)" style="fill:#f04f4f; mix-blend-mode:screen;"/><path d="M280.2,93.29c-1.47,2.2-4.15,3.9-6.99,2.18-2.84-1.71-7.36-6.69-8.65-11.85,.72,7.95,7.93,18.86,14.76,14.39,6.59,2.31,8.24,1.15,13.56-8.91,.45-1.09,.77-2.13,.98-3.12-6.89,12.79-11.52,9.88-13.65,7.3Z" style="fill:#f04f4f; mix-blend-mode:multiply;"/><path d="M285.53,79.24c.38,.45,.86,.89,1.43,1.28,1.84,1.26,3.85,1.53,4.48,.6,.17-.25,.22-.56,.17-.9-2.09,.18-4.18-.11-6.08-.98Z" style="fill:#f04f4f; mix-blend-mode:screen;"/></g><g><path d="M195.94,134.58s-7.33-4.57-12.98,.82c-5.66,5.4,4.08,26.53,13.15,20.6,6.59,2.31,8.24,1.15,13.56-8.91,5.23-12.68-6.64-18.28-13.72-12.52Z" style="fill:#f04f4f;"/><path d="M196.99,151.28c-1.47,2.2-4.15,3.9-6.99,2.18-2.84-1.71-7.36-6.69-8.65-11.85,.72,7.95,7.93,18.86,14.76,14.39,6.59,2.31,8.24,1.15,13.56-8.91,.45-1.09,.77-2.13,.98-3.12-6.89,12.79-11.52,9.88-13.65,7.3Z" style="fill:#f04f4f; mix-blend-mode:multiply;"/><ellipse cx="206.32" cy="139.33" rx="2.17" ry="3.95" transform="translate(-40.08 103.72) rotate(-25.81)" style="fill:#f04f4f; mix-blend-mode:screen;"/></g><g><g><path d="M294.6,138.9s-.27-.17-.76-.41c-3.85,2.79-8.71,3.93-13.09,2.38-3.62,6.71,5.49,25.02,14.01,19.45,6.59,2.31,8.24,1.15,13.56-8.91,5.23-12.68-6.64-18.28-13.72-12.52Z" style="fill:#f04f4f;"/><path d="M295.65,155.6c-1.47,2.2-4.15,3.9-6.99,2.18-2.84-1.71-7.36-6.69-8.65-11.85,.72,7.95,7.93,18.86,14.76,14.39,6.59,2.31,8.24,1.15,13.56-8.91,.45-1.09,.77-2.13,.98-3.12-6.89,12.79-11.52,9.88-13.65,7.3Z" style="fill:#f04f4f; mix-blend-mode:multiply;"/><ellipse cx="303.56" cy="141.15" rx="2.03" ry="4.04" transform="translate(15.56 311.83) rotate(-55.59)" style="fill:#f04f4f; mix-blend-mode:screen;"/></g><path d="M164.86,121.43c7.72,12.42,16.99,14.19,30.25,9.27,.54-.21,.97,.58,.5,.92-8.02,6.5-20.26,7.45-27.32-1.08-2.18-2.57-3.74-5.53-4.43-8.76-.13-.59,.71-.89,.99-.35h0Z" style="fill:#02a21f;"/><path d="M186.08,126.75c6.55,4.17,12.59,5.46,19.99,2.92,1.02-.33,2.01-.79,3.11-1.09,.28-.08,.58,.09,.66,.37,.05,.19,0,.39-.13,.52-1.13,1.19-2.6,2.38-4.07,3.18-4.67,2.71-10.9,2.63-15.45-.28-2.02-1.25-3.74-2.87-4.91-4.93-.29-.49,.36-1.04,.8-.69h0Z" style="fill:#02a21f;"/><path d="M271.49,130.54c9.23,11.55,16.31,12.29,27.57,2.71,.44-.38,1.11,.21,.79,.69-5.3,9.12-16.32,13.55-24.48,5.03-2.24-2.3-3.87-5-4.83-7.97-.19-.56,.62-.96,.94-.46h0Z" style="fill:#02a21f;"/><path d="M256.24,70.83c10.49,10.42,17.61,10.33,27.7-.47,.39-.43,1.13,.08,.87,.59-4.21,9.67-14.66,15.33-23.74,7.81-2.49-2.03-4.42-4.52-5.72-7.36-.26-.54,.5-1.02,.88-.57h0Z" style="fill:#02a21f;"/><path d="M280.75,75.34c6.1,3.78,10.45,4.3,16.34-.08,.73-.59,1.48-1.2,2.33-1.74,.25-.16,.58-.09,.74,.16,.1,.16,.11,.35,.04,.51-.83,1.88-1.98,3.62-3.53,5.02-3.13,3.05-8.74,3.8-12.43,1.34-1.84-1.14-3.34-2.63-4.3-4.52-.26-.49,.37-1.01,.81-.67h0Z" style="fill:#02a21f;"/><g><g><path d="M227.43,190.68c-2.12,3.03-5.67,4.15-8.84,5.57,1.44,7.72,8.15,16.97,14.53,12.79,6.59,2.31,8.24,1.15,13.56-8.91,1.58-3.85,1.59-7.03,.64-9.46-6.19,3.92-13.7,5.33-19.89,0Z" style="fill:#f04f4f;"/><path d="M218.36,194.65c.05,.52,.12,1.06,.23,1.6,.08-.04,.16-.07,.24-.11-.18-.49-.34-.99-.47-1.49Z" style="fill:#f04f4f; mix-blend-mode:multiply;"/><path d="M234,204.32c-1.47,2.2-4.15,3.9-6.99,2.18-2.57-1.55-6.5-5.76-8.18-10.36-.08,.04-.16,.07-.24,.11,1.44,7.72,8.15,16.96,14.54,12.79,6.59,2.31,8.24,1.15,13.56-8.91,.45-1.09,.77-2.13,.98-3.12-6.89,12.79-11.52,9.88-13.65,7.3Z" style="fill:#f04f4f; mix-blend-mode:multiply;"/><path d="M245.24,192.15c.07-.11,.12-.23,.15-.36-.62,.32-1.24,.62-1.88,.88,.78,.09,1.42-.07,1.72-.52Z" style="fill:#f04f4f; mix-blend-mode:screen;"/></g><path d="M205.23,189.22c8.57,8.58,14.41,6.35,22.88-.74,.43-.37,1.09,.18,.82,.66-3.54,7.35-12.7,12.7-20,6.85-2.13-1.67-3.7-3.8-4.6-6.24-.21-.54,.54-.98,.91-.53h0Z" style="fill:#02a21f;"/><path d="M223.43,183.54c6.98,7.25,15.47,10.63,24.64,5.25,2.76-1.5,5.33-3.49,7.95-5.55,.23-.19,.57-.15,.75,.08,.15,.18,.15,.44,.03,.62-5.78,9.19-17.72,15.09-27.49,8.04-2.93-2.06-5.25-4.75-6.76-7.89-.26-.55,.49-1.04,.89-.57h0Z" style="fill:#02a21f;"/></g></g><path d="M387.65,102.67c29.08-15.97-20.05-33.61-20.05-33.61,13.03-21.85-23.06-20.17-23.06-20.17,8.02-34.45-38.1-15.13-38.1-15.13,9.02-33.61-38.1-13.44-38.1-13.44-30.08-29.41-58.15,9.24-58.15,9.24-28.07-19.33-40.1,14.29-40.1,14.29-41.11-18.49-36.09,23.53-36.09,23.53-35.09-7.56-23.06,31.09-23.06,31.09-38.1,3.36-9.02,42.02-9.02,42.02-35.09,30.25,11.03,42.86,11.03,42.86-16.04,29.41,29.08,31.93,29.08,31.93-11.03,26.89,25.07,22.69,25.07,22.69,0,27.73,32.08,4.2,32.08,4.2,21.05,26.05,55.14,4.2,55.14,4.2,23.06,16.81,24.06-5.88,24.06-5.88,16.04,15.97,40.1-5.04,40.1-5.04,23.06,5.88,20.05-10.92,20.05-10.92,25.07,1.68,19.05-24.37,19.05-24.37,33.09-5.88,11.03-30.25,11.03-30.25,31.08,8.4,18.05-30.25,18.05-30.25,35.09-11.76,1-36.97,1-36.97Zm-53.53,61.21c-9.53,11.43-25.95,15.09-40.69,10.21,.82,9.45-5.68,17.35-16.35,16.91-11.18,15.91-27.4,27.45-48.29,26.01-22.3-.93-40.27-18.26-45.92-38.36-21.75,3.5-36.41-12.88-25.39-31.25-38.6-5.96-29.85-39.98-15.36-51.37-13.91-34.11,21.35-37.17,27.83-34.65,15.32-33.52,41.16-14.42,47.74-8.8,23.81-34.98,56.49-21.96,62.93-2,22.46-9.74,81.09,8.29,52.36,61.93,11.3,15.84,14.39,35.45,1.13,51.36Z" style="fill:url(#Degradado_sin_nombre_63-3); mix-blend-mode:multiply; opacity:.3;"/><path d="M387.65,102.67c18.37-10.09,5.52-20.85-6.44-27.4,1.73,4.28,2.11,8.93,.22,13.96-.89,4.88-3.46,8.06-6.69,10.52,9,10.15,12.74,46.79-20.87,48.52,11.05,24.33,5.6,57.4-31.96,50.16,2.17,19.3-11.84,41.87-54.14,19.26-7.05,9.12-16.7,15.96-28.28,17.69-16.4,2.89-33.68,.47-43.73-12.95-9.91,9.9-24.59,14.51-38.28,8.74-7.81-3.47-7.74-13.38-5.12-20.87-9.56,.02-18.77-3.04-24.32-10.67-6.22-7.11-5.1-15.39,2.09-23.93-35.6-1.15-35.99-22.15-17.34-36.43-11.16-8.83-18.45-22.16-15.94-36.37-14.97,10.98,5.06,37.6,5.06,37.6-35.09,30.25,11.03,42.86,11.03,42.86-16.04,29.41,29.08,31.93,29.08,31.93-11.03,26.89,25.07,22.69,25.07,22.69,0,27.73,32.08,4.2,32.08,4.2,21.05,26.05,55.14,4.2,55.14,4.2,23.06,16.81,24.06-5.88,24.06-5.88,16.04,15.97,40.1-5.04,40.1-5.04,23.06,5.88,20.05-10.92,20.05-10.92,25.07,1.68,19.05-24.37,19.05-24.37,33.09-5.88,11.03-30.25,11.03-30.25,31.08,8.4,18.05-30.25,18.05-30.25,35.09-11.76,1-36.97,1-36.97Z" style="fill:url(#Degradado_sin_nombre_63-4); mix-blend-mode:multiply; opacity:.43;"/></g><g><path d="M359.69,113.58s-7.33-4.57-12.98,.82c-5.66,5.4,4.08,26.53,13.15,20.6,6.59,2.31,8.24,1.15,13.56-8.91,5.23-12.68-6.64-18.28-13.72-12.52Z" style="fill:#f04f4f;"/><path d="M360.74,130.28c-1.47,2.2-4.15,3.9-6.99,2.18-2.84-1.71-7.36-6.69-8.65-11.85,.72,7.95,7.93,18.86,14.76,14.39,6.59,2.31,8.24,1.15,13.56-8.91,.45-1.09,.77-2.13,.98-3.12-6.89,12.79-11.52,9.88-13.65,7.3Z" style="fill:#f04f4f; mix-blend-mode:multiply;"/><ellipse cx="368.65" cy="115.83" rx="2.03" ry="4.04" transform="translate(64.77 354.52) rotate(-55.59)" style="fill:#f04f4f; mix-blend-mode:screen;"/></g><g><path d="M172.82,73.35s-7.33-4.57-12.98,.82c-5.66,5.4,4.08,26.53,13.15,20.6,6.59,2.31,8.24,1.15,13.56-8.91,5.23-12.68-6.64-18.28-13.72-12.52Z" style="fill:#f04f4f;"/><path d="M173.87,90.05c-1.47,2.2-4.15,3.9-6.99,2.18-2.84-1.71-7.36-6.69-8.65-11.85,.72,7.95,7.93,18.86,14.76,14.39,6.59,2.31,8.24,1.15,13.56-8.91,.45-1.09,.77-2.13,.98-3.12-6.89,12.79-11.52,9.88-13.65,7.3Z" style="fill:#f04f4f; mix-blend-mode:multiply;"/><ellipse cx="181.78" cy="75.6" rx="2.03" ry="4.04" transform="translate(16.69 182.84) rotate(-55.59)" style="fill:#f04f4f; mix-blend-mode:screen;"/></g></g></g></g></svg>