<?xml version="1.0" encoding="UTF-8"?><svg xmlns="http://www.w3.org/2000/svg" xmlns:xlink="http://www.w3.org/1999/xlink" viewBox="0 0 500 500"><defs><linearGradient id="Degradado_sin_nombre_7" x1="251.38" y1="392.89" x2="248.59" y2="104.05" gradientUnits="userSpaceOnUse"><stop offset="0" stop-color="#fff"/><stop offset="1" stop-color="#00fbff"/></linearGradient><radialGradient id="Degradado_sin_nombre_676" cx="250" cy="250" fx="250" fy="250" r="247.8" gradientUnits="userSpaceOnUse"><stop offset=".54" stop-color="#0ed3ff"/><stop offset=".79" stop-color="#0cd0ff"/><stop offset=".95" stop-color="#05c7ff"/><stop offset="1" stop-color="#02c3ff"/></radialGradient><radialGradient id="Degradado_sin_nombre_678" cx="250" cy="250" fx="250" fy="250" r="210.39" gradientUnits="userSpaceOnUse"><stop offset=".54" stop-color="#1495ea"/><stop offset=".81" stop-color="#1392ea"/><stop offset=".98" stop-color="#1189ea"/><stop offset="1" stop-color="#1188ea"/></radialGradient></defs><g style="isolation:isolate;"><g id="Capa_1"><g><circle cx="250" cy="250" r="247.8" style="fill:url(#Degradado_sin_nombre_7);"/><path d="M247.8,294.9c5.12-7.05,10.63-14,11.72-22.57,1.58-15.37-8.37-32.71-15.37-46.17-1.43-2.6-4.38-7.82-5.85-10.4-6.22-11.15-11.29-25.19-7.44-38.35,5.7-19.98,32.21-24.79,43.34-6.86,2.24,3.72,3.45,7.85,3.87,11.95,.05,.52-.33,.99-.85,1.04-.47,.05-.89-.25-1.01-.69-9.02-32.66-57.01-16.07-27.82,26.76,1.69,2.5,5.03,7.56,6.66,10.09,10.86,17.72,24.67,39.74,19.08,61.44-2.33,9.01-7.31,16.52-12.25,23.79-2.68,3.95-8.06,4.97-12.01,2.29-4.07-2.75-5.01-8.41-2.06-12.33h0Z" style="fill:#43d31b;"/><g><path d="M436.65,351.56c-3.52-11.93-14.53-20.64-27.6-20.64-7.39,0-14.11,2.81-19.2,7.38-5.2-20.96-24.14-36.5-46.71-36.5-13.27,0-25.29,5.37-34,14.06-11.64-21.2-34.17-35.58-60.06-35.58-23.24,0-43.77,11.59-56.15,29.3-8.14-6.89-18.66-11.05-30.16-11.05-23.38,0-42.76,17.17-46.2,39.59-5.27-5.94-12.95-9.71-21.52-9.71-13.97,0-25.6,9.95-28.23,23.14h-25.94c47.67,66.4,125.53,109.66,213.5,109.66s165.84-43.26,213.5-109.66h-31.24Z" style="fill:#8c5831;"/><path d="M429.84,339.81c-27.98,24.43-63.28,31.49-91.15,3.99-72.46,69.86-131.79,45.28-152.12,21.32-16.61,5.53-34.67,4.54-43.07-13.2-8.89-18.89,1.39-41.42,18.84-53.38-23.19,.2-42.36,17.29-45.78,39.58-5.27-5.94-12.95-9.71-21.52-9.71-13.97,0-25.6,9.95-28.23,23.14h-25.94c47.67,66.4,125.53,109.66,213.5,109.66s165.84-43.26,213.5-109.66h-31.24c-1.32-4.46-3.68-8.47-6.81-11.75Z" style="fill:#8c5831; mix-blend-mode:multiply; opacity:.23;"/><g><path d="M186.79,319.19c25.38-52.66,102.1-55.47,125.6,.21-4.57-4.42-9.13-8.55-13.98-12.14-4.83-3.6-9.87-6.7-15.13-9.16-34.12-16.25-69.82-2.99-96.49,21.08h0Z" style="fill:#c16e32;"/><path d="M281.94,339.39c18.8-36.16,67.02-53.99,98.16-21.89,8.84,9.3,14.5,21.05,17.01,33.41-3.66-5.01-7.21-9.87-11.09-14.31-32.27-37.75-69.97-24.58-104.08,2.79h0Z" style="fill:#c16e32;"/><path d="M113.35,348.13c-1.64-9.41,1.38-19.33,6.7-27.25,10.87-16.43,32.11-24.95,51.32-22.06,9.53,1.42,18.51,5.33,25.44,11.48-8.78-1.37-17.25-2.37-25.89-1.76-25.1,1.55-47.58,15.82-57.57,39.6h0Z" style="fill:#c16e32;"/></g></g><path d="M250,48.2c53.9,0,104.58,20.99,142.69,59.11,38.12,38.11,59.11,88.79,59.11,142.69s-20.99,104.58-59.11,142.69c-38.11,38.11-88.79,59.11-142.69,59.11s-104.58-20.99-142.69-59.11c-38.12-38.11-59.11-88.79-59.11-142.69s20.99-104.58,59.11-142.69c38.11-38.11,88.79-59.11,142.69-59.11m0-46C113.14,2.2,2.2,113.14,2.2,250s110.94,247.8,247.8,247.8,247.8-110.94,247.8-247.8S386.86,2.2,250,2.2h0Z" style="fill:url(#Degradado_sin_nombre_676);"/><path d="M250,48.2c53.9,0,104.58,20.99,142.69,59.11,38.12,38.11,59.11,88.79,59.11,142.69s-20.99,104.58-59.11,142.69c-38.11,38.11-88.79,59.11-142.69,59.11s-104.58-20.99-142.69-59.11c-38.12-38.11-59.11-88.79-59.11-142.69s20.99-104.58,59.11-142.69c38.11-38.11,88.79-59.11,142.69-59.11m0-8.59c-116.2,0-210.39,94.2-210.39,210.39s94.2,210.39,210.39,210.39,210.39-94.2,210.39-210.39S366.2,39.61,250,39.61h0Z" style="fill:url(#Degradado_sin_nombre_678);"/></g></g></g></svg>