<?xml version="1.0" encoding="UTF-8"?><svg xmlns="http://www.w3.org/2000/svg" xmlns:xlink="http://www.w3.org/1999/xlink" viewBox="0 0 500 500"><defs><linearGradient id="Degradado_sin_nombre_7" x1="251.38" y1="392.89" x2="248.59" y2="104.05" gradientUnits="userSpaceOnUse"><stop offset="0" stop-color="#fff"/><stop offset="1" stop-color="#00fbff"/></linearGradient><radialGradient id="Degradado_sin_nombre_676" cx="250" cy="251.34" fx="250" fy="251.34" r="247.8" gradientUnits="userSpaceOnUse"><stop offset=".54" stop-color="#0ed3ff"/><stop offset=".79" stop-color="#0cd0ff"/><stop offset=".95" stop-color="#05c7ff"/><stop offset="1" stop-color="#02c3ff"/></radialGradient><radialGradient id="Degradado_sin_nombre_678" cx="250" cy="250" fx="250" fy="250" r="210.39" gradientUnits="userSpaceOnUse"><stop offset=".54" stop-color="#1495ea"/><stop offset=".81" stop-color="#1392ea"/><stop offset=".98" stop-color="#1189ea"/><stop offset="1" stop-color="#1188ea"/></radialGradient></defs><g style="isolation:isolate;"><g id="Capa_1"><g><circle cx="250" cy="250" r="247.8" style="fill:url(#Degradado_sin_nombre_7);"/><g><g><path d="M251.32,229.36s30.6,50.94,88.36,6.95c-12.18-4.65-21.88-15.75-38.45-22.82-16.56-7.07-39.21-2.34-49.92,15.87Z" style="fill:#00c735;"/><path d="M250.93,228.49c19.89-11.46,44.94-5.49,63.4,6.06-14.87-6.19-30.95-10.48-47.09-8.11-5.25,.72-10.4,2.09-15.53,3.8-1.07,.37-1.79-1.18-.79-1.75h0Z" style="fill:#009245;"/></g><g><path d="M252.21,229.89s-10.71-58.46-80.26-37.61c9.77,8.64,14.94,22.44,27.95,34.89,13.01,12.45,35.88,16,52.31,2.72Z" style="fill:#00c735;"/><path d="M250.93,230.74c-14.9-17.04-33.17-25.88-54.87-31.19,5.43,.48,10.84,1.38,16.16,2.74,15.88,4.15,31.67,12.88,40.26,27.32,.58,.98-.8,1.99-1.55,1.13h0Z" style="fill:#009245;"/></g><path d="M244.09,326.4c-.7,.82-.74,1.08-.81,1.25-.03,.1,.02,.11,.08-.01,.68-1.32,1.04-2.92,1.45-4.58,3.95-19.47,4.55-39.65,5.09-59.57,.48-17.38-.45-34.98-1.57-52.31,.04-5.89,.37-11.77,1.14-17.59,.07-.54,.57-.93,1.11-.86,.53,.07,.9,.54,.86,1.06-.89,11.5-.3,23.14,1.86,34.48,2.17,11.41,3.72,23.31,5,34.82,1.92,17.61,3.5,35.27,3.53,53.11-.05,4.76-.14,9.53-.98,14.43-.64,2.98-1.14,5.4-3.5,8.14-3.41,3.66-9.15,3.86-12.81,.45s-3.86-9.15-.45-12.81h0Z" style="fill:#43d31b;"/><g><path d="M249.89,212.39s42.25-27.07,18.14-73.64c0,0-49.38,36.06-18.14,73.64Z" style="fill:#00c735;"/><path d="M248.94,212.53c-3.06-16.07,2.77-34.4,9.87-48.75,1.09-2.12,2.3-4.18,3.48-6.24-.77,2.26-1.61,4.48-2.4,6.7-3.83,11.06-6.72,22.5-8.02,34.15-.54,4.6-.95,9.29-1.03,13.87,.05,1.15-1.63,1.41-1.9,.27h0Z" style="fill:#009245;"/></g></g><g><path d="M427.86,365.58c-3.35-11.35-13.83-19.65-26.27-19.65-7.03,0-13.43,2.67-18.28,7.03-4.95-19.95-22.97-34.74-44.45-34.74-12.63,0-24.07,5.11-32.36,13.39-11.07-20.18-32.52-33.86-57.16-33.86-22.12,0-41.66,11.03-53.44,27.89-7.75-6.55-17.76-10.51-28.71-10.51-22.25,0-40.69,16.34-43.97,37.68-5.02-5.66-12.32-9.24-20.48-9.24-13.29,0-24.37,9.47-26.87,22.03h-24.69c45.37,63.19,119.47,104.37,203.2,104.37s157.83-41.17,203.2-104.37h-29.74Z" style="fill:#8c5831;"/><path d="M421.37,354.4c-26.63,23.25-60.22,29.97-86.75,3.8-68.96,66.49-125.43,43.1-144.78,20.29-15.81,5.26-32.99,4.32-40.99-12.56-8.46-17.98,1.32-39.43,17.93-50.8-22.08,.19-40.31,16.46-43.57,37.67-5.02-5.66-12.32-9.24-20.48-9.24-13.29,0-24.37,9.47-26.87,22.03h-24.69c45.37,63.19,119.47,104.37,203.2,104.37s157.83-41.17,203.2-104.37h-29.74c-1.25-4.25-3.5-8.06-6.48-11.18Z" style="fill:#8c5831; mix-blend-mode:multiply; opacity:.23;"/><g><path d="M190.06,334.78c24.35-50.15,96.95-52.87,119.54,.2-8.35-8.16-17.3-15.43-27.71-20.27-32.48-15.47-66.45-2.84-91.83,20.06h0Z" style="fill:#c16e32;"/><path d="M280.61,354c22.49-42.41,79.85-52.81,103.86-5.84,2.66,5.39,4.62,11.02,5.75,16.81-3.48-4.77-6.86-9.39-10.56-13.62-30.68-35.96-66.71-23.33-99.06,2.65h0Z" style="fill:#c16e32;"/><path d="M120.16,362.31c-1.56-8.95,1.32-18.4,6.37-25.94,10.34-15.63,30.56-23.75,48.85-20.99,9.07,1.35,17.62,5.08,24.21,10.92-8.35-1.3-16.42-2.25-24.64-1.68-23.89,1.47-45.28,15.06-54.79,37.69h0Z" style="fill:#c16e32;"/></g></g><path d="M250,49.54c53.9,0,104.58,20.99,142.69,59.11,38.12,38.11,59.11,88.79,59.11,142.69s-20.99,104.58-59.11,142.69c-38.11,38.11-88.79,59.11-142.69,59.11s-104.58-20.99-142.69-59.11c-38.12-38.11-59.11-88.79-59.11-142.69s20.99-104.58,59.11-142.69c38.11-38.11,88.79-59.11,142.69-59.11m0-46C113.14,3.54,2.2,114.48,2.2,251.34s110.94,247.8,247.8,247.8,247.8-110.94,247.8-247.8S386.86,3.54,250,3.54h0Z" style="fill:url(#Degradado_sin_nombre_676);"/><path d="M250,48.2c53.9,0,104.58,20.99,142.69,59.11,38.12,38.11,59.11,88.79,59.11,142.69s-20.99,104.58-59.11,142.69c-38.11,38.11-88.79,59.11-142.69,59.11s-104.58-20.99-142.69-59.11c-38.12-38.11-59.11-88.79-59.11-142.69s20.99-104.58,59.11-142.69c38.11-38.11,88.79-59.11,142.69-59.11m0-8.59c-116.2,0-210.39,94.2-210.39,210.39s94.2,210.39,210.39,210.39,210.39-94.2,210.39-210.39S366.2,39.61,250,39.61h0Z" style="fill:url(#Degradado_sin_nombre_678);"/></g></g></g></svg>