<?xml version="1.0" encoding="UTF-8"?><svg xmlns="http://www.w3.org/2000/svg" xmlns:xlink="http://www.w3.org/1999/xlink" viewBox="0 0 500 500"><defs><linearGradient id="Degradado_sin_nombre_7" x1="251.38" y1="392.89" x2="248.59" y2="104.05" gradientUnits="userSpaceOnUse"><stop offset="0" stop-color="#fff"/><stop offset="1" stop-color="#00fbff"/></linearGradient><linearGradient id="Degradado_sin_nombre_144" x1="254.44" y1="168.5" x2="254.44" y2="416.59" gradientUnits="userSpaceOnUse"><stop offset="0" stop-color="#00fc19"/><stop offset="1" stop-color="#cc7f21"/></linearGradient><radialGradient id="Degradado_sin_nombre_676" cx="250" cy="250" fx="250" fy="250" r="247.8" gradientUnits="userSpaceOnUse"><stop offset=".54" stop-color="#0ed3ff"/><stop offset=".79" stop-color="#0cd0ff"/><stop offset=".95" stop-color="#05c7ff"/><stop offset="1" stop-color="#02c3ff"/></radialGradient><radialGradient id="Degradado_sin_nombre_678" cx="250" cy="250" fx="250" fy="250" r="210.39" gradientUnits="userSpaceOnUse"><stop offset=".54" stop-color="#1495ea"/><stop offset=".81" stop-color="#1392ea"/><stop offset=".98" stop-color="#1189ea"/><stop offset="1" stop-color="#1188ea"/></radialGradient></defs><g style="isolation:isolate;"><g id="Capa_1"><g><circle cx="250" cy="250" r="247.8" style="fill:url(#Degradado_sin_nombre_7);"/><g><g><path d="M255.94,231.27s39.79,15.73,53.55-34.69c-9,2.67-19.4,.57-31.96,3.78-12.56,3.21-23.44,15.82-21.59,30.91Z" style="fill:#00bb58;"/><path d="M255.33,230.94c6.35-15.27,23.29-22.8,38.9-24.28-11.19,2.98-22.32,7.54-30.47,15.97-2.69,2.71-5.03,5.74-7.21,8.96-.45,.68-1.54,.11-1.22-.65h0Z" style="fill:#009245;"/></g><path d="M246.55,336.7c-.45,.47-.68,.86-.93,1.32-.07,.14-.08,.2-.1,.25-.02,.08-.02,.09-.01,.1,.46-.5,.65-1.47,.96-2.38,1.5-5.35,2.3-11.07,3.08-16.75,1.93-15.8,2.82-31.93,3.1-47.92-.14-24.12,1.04-48.75-.83-72.78-.92-11.58-1.38-24.57-3.65-35.95-.73-3.94-1.67-7.83-2.97-11.58-.2-.55,.09-1.16,.64-1.35,.54-.19,1.12,.09,1.34,.61,1.53,3.83,2.62,7.79,3.6,11.75,1.69,6.92,2.86,13.99,3.86,21.04,1,4.99,1.3,10.09,1.7,15.15,.96,16.21,2.07,32.4,2.71,48.59,.3,6.99,.61,17.25,1.77,24.07,1.99,16.31,3.58,32.56,4.09,49.07,.18,6.43,.31,12.86-.42,19.45-.42,3.58-1.27,7.79-3.97,10.65-9.2,8.9-22.45-3.71-13.97-13.34h0Z" style="fill:url(#Degradado_sin_nombre_144);"/><g><path d="M247.97,155.98s-28.09-6.65-23.87-36.52c0,0,33.67,10.17,23.87,36.52Z" style="fill:#00c735;"/><path d="M247.43,156.09c-2.87-7.49-6.78-14.66-11.59-21.1-1.59-2.21-3.34-4.29-5.05-6.42,1.04,.89,2.07,1.79,3.07,2.73,6.79,6.72,13.05,14.91,14.65,24.58,.08,.66-.9,.87-1.08,.22h0Z" style="fill:#009245;"/></g><g><path d="M254.19,206.25s-34.85,15.73-49.28-28.69c8.14,2.01,17.34-.31,28.69,2.02,11.35,2.33,21.6,13.13,20.59,26.68Z" style="fill:#00ae52;"/><path d="M253.66,206.56c-8.42-11.94-20.61-17.77-34.69-20.66,13.9,.63,29.47,6.67,35.75,20.02,.31,.66-.62,1.23-1.06,.63h0Z" style="fill:#009245;"/></g><g><path d="M255.61,263.26s-12.86-52.91-75.38-30.2c9.39,7.39,14.84,19.74,27.4,30.45,12.56,10.71,33.66,12.75,47.99-.25Z" style="fill:#00c735;"/><path d="M254.48,264.11c-10.35-10.5-23.16-18.15-37.36-22.16-4.73-1.42-9.56-2.53-14.46-3.5,19.81,.62,41.51,7.54,53.18,24.54,.58,.86-.62,1.87-1.36,1.11h0Z" style="fill:#009245;"/></g><g><path d="M259.57,282.55s47.07,21.71,67.12-38.36c-11.06,2.63-23.5-.61-38.92,2.42-15.41,3.03-29.42,17.56-28.2,35.94Z" style="fill:#00ae52;"/><path d="M258.86,282.12c8.71-18.05,29.7-26.01,48.68-26.75-13.73,2.85-27.5,7.62-37.93,17.26-3.43,3.1-6.47,6.61-9.33,10.36-.59,.79-1.87,.02-1.43-.87h0Z" style="fill:#009245;"/></g></g><g><path d="M407.45,390.84c-2.95-10.02-12.21-17.33-23.18-17.33-6.21,0-11.85,2.36-16.13,6.2-4.37-17.6-20.27-30.65-39.22-30.65-11.15,0-21.24,4.51-28.55,11.81-9.77-17.81-28.69-29.88-50.44-29.88-19.52,0-36.76,9.74-47.15,24.61-6.84-5.78-15.67-9.28-25.33-9.28-19.64,0-35.91,14.42-38.8,33.25-4.43-4.99-10.87-8.15-18.07-8.15-11.73,0-21.5,8.35-23.71,19.44h-21.78c40.03,55.76,105.42,92.09,179.3,92.09s139.27-36.33,179.3-92.09h-26.24Z" style="fill:#8c5831;"/><path d="M401.73,380.97c-23.49,20.51-53.14,26.44-76.55,3.35-60.85,58.67-110.68,38.03-127.75,17.9-13.95,4.64-29.11,3.81-36.17-11.08-7.47-15.87,1.17-34.79,15.82-44.83-19.48,.17-35.57,14.52-38.45,33.24-4.43-4.99-10.87-8.15-18.07-8.15-11.73,0-21.5,8.35-23.71,19.44h-21.78c40.03,55.76,105.42,92.09,179.3,92.09s139.27-36.33,179.3-92.09h-26.24c-1.1-3.75-3.09-7.11-5.72-9.86Z" style="fill:#8c5831; mix-blend-mode:multiply; opacity:.23;"/><g><path d="M197.62,363.66c21.32-44.22,85.75-46.58,105.48,.18-7.37-7.2-15.26-13.61-24.45-17.88-28.22-13.63-58.82-2.52-81.03,17.7h0Z" style="fill:#c16e32;"/><path d="M277.53,380.62c15.69-30.29,56.31-45.36,82.43-18.38,7.42,7.81,12.18,17.68,14.29,28.06-3.07-4.21-6.05-8.29-9.31-12.02-26.77-31.59-58.93-20.68-87.4,2.34h0Z" style="fill:#c16e32;"/><path d="M135.95,387.95c-2.68-16.26,9.78-32.36,24.62-38.28,7.62-3.22,16.1-4.27,24.11-3.13,8.01,1.19,15.55,4.48,21.37,9.64-14.43-2.47-28.27-2.53-41.41,3.12-13,5.57-22.85,15.15-28.68,28.66h0Z" style="fill:#c16e32;"/></g></g><path d="M250,48.2c53.9,0,104.58,20.99,142.69,59.11,38.12,38.11,59.11,88.79,59.11,142.69s-20.99,104.58-59.11,142.69c-38.11,38.11-88.79,59.11-142.69,59.11s-104.58-20.99-142.69-59.11c-38.12-38.11-59.11-88.79-59.11-142.69s20.99-104.58,59.11-142.69c38.11-38.11,88.79-59.11,142.69-59.11m0-46C113.14,2.2,2.2,113.14,2.2,250s110.94,247.8,247.8,247.8,247.8-110.94,247.8-247.8S386.86,2.2,250,2.2h0Z" style="fill:url(#Degradado_sin_nombre_676);"/><path d="M250,48.2c53.9,0,104.58,20.99,142.69,59.11,38.12,38.11,59.11,88.79,59.11,142.69s-20.99,104.58-59.11,142.69c-38.11,38.11-88.79,59.11-142.69,59.11s-104.58-20.99-142.69-59.11c-38.12-38.11-59.11-88.79-59.11-142.69s20.99-104.58,59.11-142.69c38.11-38.11,88.79-59.11,142.69-59.11m0-8.59c-116.2,0-210.39,94.2-210.39,210.39s94.2,210.39,210.39,210.39,210.39-94.2,210.39-210.39S366.2,39.61,250,39.61h0Z" style="fill:url(#Degradado_sin_nombre_678);"/></g></g></g></svg>