<?xml version="1.0" encoding="UTF-8"?><svg xmlns="http://www.w3.org/2000/svg" xmlns:xlink="http://www.w3.org/1999/xlink" viewBox="0 0 500 500"><defs><linearGradient id="Degradado_sin_nombre_7" x1="251.38" y1="392.89" x2="248.59" y2="104.05" gradientUnits="userSpaceOnUse"><stop offset="0" stop-color="#fff"/><stop offset="1" stop-color="#00fbff"/></linearGradient><linearGradient id="Degradado_sin_nombre_144" x1="257.66" y1="131.55" x2="283.43" y2="277.55" gradientUnits="userSpaceOnUse"><stop offset="0" stop-color="#00fc19"/><stop offset="1" stop-color="#cc7f21"/></linearGradient><radialGradient id="Degradado_sin_nombre_676" cx="250" cy="250" fx="250" fy="250" r="247.8" gradientUnits="userSpaceOnUse"><stop offset=".54" stop-color="#0ed3ff"/><stop offset=".79" stop-color="#0cd0ff"/><stop offset=".95" stop-color="#05c7ff"/><stop offset="1" stop-color="#02c3ff"/></radialGradient><radialGradient id="Degradado_sin_nombre_678" cx="250" cy="250" fx="250" fy="250" r="210.39" gradientUnits="userSpaceOnUse"><stop offset=".54" stop-color="#1495ea"/><stop offset=".81" stop-color="#1392ea"/><stop offset=".98" stop-color="#1189ea"/><stop offset="1" stop-color="#1188ea"/></radialGradient></defs><g style="isolation:isolate;"><g id="Capa_1"><g><circle cx="250" cy="250" r="247.8" style="fill:url(#Degradado_sin_nombre_7);"/><g><path d="M341.41,197.72c-42.02-5.51-70.61,21.32-84.23,56.4-.2-3-.41-6-.63-9-.8-10.96-1.64-21.94-2.61-32.9,1.13-2.88,2.31-5.79,3.56-8.64,4.87-11.35,11.07-21.77,17.72-32.21,.32-.45-.29-1.03-.73-.7-9.52,6.85-17.2,17.26-21.76,28.57-2.11-21.27-4.86-42.47-8.92-63.44-.05-.26-.3-.44-.56-.4-.28,.04-.47,.29-.44,.56,4.21,35.67,5.52,71.58,5.74,107.48-4.11-8.27-9.27-16.11-15.47-22.99,.23-3.79,.04-7.41-.33-11.18-1.32-12.19-4.55-24.15-9.57-35.33-.24-.55-1.08-.25-.96,.31,2.69,13.48,5.56,27.64,6.29,41.49-2.83-2.71-5.85-5.22-9.05-7.49-6.41-4.67-13.65-8.11-21.08-10.43-.22-.07-.47,.02-.59,.24-.14,.24-.05,.55,.19,.69,6.75,3.61,13.07,7.83,18.72,12.96,15.51,13.91,25.89,32.82,31.85,52.67-.02,5.87-.07,11.73-.12,17.59-.07,4.95-.13,9.9-.18,14.84-2.04-3.61-4.38-7.03-6.96-10.23-4.31-5.27-9.27-9.96-14.71-13.88-5.43-3.95-11.27-7.22-17.4-9.71-.21-.09-.47-.02-.61,.18-.16,.23-.11,.55,.12,.71,5.34,3.79,10.42,7.82,15.06,12.22,4.66,4.38,8.81,9.2,12.41,14.34,5.57,8.13,9.82,17.24,11.87,26.84-.32,30.75-.75,61.5-2.64,92.18-.36,5.09-.8,10.26-1.64,15.24,0,0-.39,1.84-.39,1.84-.83,2.71,.6,5.68,3.41,6.46,2.66,.75,5.43-.8,6.19-3.46l.73-2.6c.6-2.41,1.04-4.81,1.39-7.19,1.37-8.87,2.17-18.78,2.81-27.75,2.4-38.65,2.38-77.38,.51-116.02,.04-.18,.08-.37,.12-.54,8.27-34.7,28.34-68.78,66.15-75.2,3.92-.78,8.45-1.28,12.44-1.35,0,0,4.21-.16,4.21-.16,.69-.03,.65-.91,.07-1.01Z" style="fill:url(#Degradado_sin_nombre_144);"/><path d="M341.41,197.72c-14.21-1.86-26.88-.02-37.96,4.58-26.26,20.99-46.33,49.88-53.62,82.98l4.29-4.88c-.02-1.13-.04-2.26-.06-3.4,.02,1.13,.04,2.26,.06,3.4l2.11-2.4-2.11,2.4c.92,51.43,2.37,102.1-6.81,152.68,2.5,.44,4.97-1.05,5.68-3.55l.73-2.6c.6-2.41,1.04-4.81,1.39-7.19,1.37-8.87,2.17-18.78,2.81-27.75,2.4-38.65,2.38-77.38,.51-116.02,.04-.18,.08-.37,.12-.54,8.27-34.7,28.34-68.78,66.15-75.2,3.92-.78,8.45-1.28,12.44-1.35,0,0,4.21-.16,4.21-.16,.69-.03,.65-.91,.07-1.01Z" style="fill:#cc7f21; mix-blend-mode:multiply; opacity:.55;"/><path d="M230.19,219.4c8.53,10.62,16.04,22.19,19.87,35.6,.74-32.7-.72-65.26-2.55-97.79-1.1-7.17-2.32-14.31-3.7-21.44-.05-.26-.3-.44-.56-.4-.28,.04-.47,.29-.44,.56,4.21,35.67,5.52,71.58,5.74,107.48-4.11-8.27-9.27-16.11-15.47-22.99,.23-3.79,.04-7.41-.33-11.18-1.28-11.83-4.37-23.43-9.14-34.32,3.21,14.64,7.81,28.9,6.57,44.46Z" style="fill:#b5cf57; mix-blend-mode:multiply; opacity:.55;"/><g><path d="M211.01,205.43s-30.23,31.15-64-9.74c9.44-1.28,18.18-7.56,31.14-9.84,12.96-2.28,28.28,4.85,32.86,19.58Z" style="fill:#00bb58;"/><path d="M210.58,205.98c-9.93-6.43-21.59-9.44-33.39-8.63-3.95,.18-7.9,.66-11.85,1.3,15.05-5.14,33.86-5.25,46.1,6.23,.61,.57-.14,1.56-.85,1.11h0Z" style="fill:#009245;"/></g><g><path d="M227.95,192.72s-30.29-12.51-20.17-45.23c0,0,35.91,17.47,20.17,45.23Z" style="fill:#00bb58;"/><path d="M227.33,192.74c-1.86-8.92-4.96-17.65-9.19-25.74-1.38-2.77-2.97-5.41-4.5-8.11,7.82,9.22,14.88,21.39,14.94,33.8-.03,.76-1.16,.81-1.25,.05h0Z" style="fill:#009245;"/></g><g><path d="M244.21,145.01s-24.03-9.93-16-35.88c0,0,28.49,13.86,16,35.88Z" style="fill:#00c735;"/><path d="M243.71,145.03c-1.7-8.29-4.86-16.29-9.02-23.66-.6-1.07-1.25-2.11-1.84-3.2,.8,.94,1.58,1.89,2.34,2.87,5.08,6.95,9.47,15.13,9.51,23.95-.02,.6-.92,.64-.99,.04h0Z" style="fill:#009245;"/></g><g><path d="M266.05,181.42s44.32,19.87,62.51-36.61c-10.34,2.57-22.03-.34-36.44,2.65-14.41,2.99-27.39,16.74-26.07,33.95Z" style="fill:#00c735;"/><path d="M265.37,181.02c7.98-17,27.58-24.66,45.35-25.55-12.84,2.8-25.69,7.41-35.37,16.55-3.19,2.94-6,6.26-8.64,9.8-.54,.75-1.75,.04-1.35-.8h0Z" style="fill:#009245;"/></g><g><path d="M283.86,220s48.75,32.95,82.23-30.66c-12.88,.92-26.22-5-44.04-4.43-17.82,.57-36.18,14.27-38.18,35.09Z" style="fill:#00bb58;"/><path d="M283.14,219.38c13.06-18.59,38.05-23.71,59.45-21.04-15.94,.67-32.16,3.51-45.66,12.38-4.42,2.84-8.46,6.22-12.35,9.89-.8,.78-2.1-.32-1.44-1.24h0Z" style="fill:#009245;"/></g><g><path d="M235.1,282.76s-13.71-60.27-85.06-35.54c10.53,8.54,16.51,22.66,30.59,35.02,14.07,12.36,37.99,15.04,54.47,.52Z" style="fill:#00c735;"/><path d="M233.81,283.71c-11.58-12.09-25.99-20.99-42.03-25.78-5.34-1.7-10.82-3.01-16.36-4.21,22.48,1.02,46.99,9.26,59.96,28.75,.65,.99-.74,2.11-1.56,1.24h0Z" style="fill:#009245;"/></g></g><g><path d="M384.7,408.73c-2.6-8.82-10.74-15.26-20.4-15.26-5.46,0-10.43,2.07-14.19,5.46-3.84-15.49-17.84-26.98-34.52-26.98-9.81,0-18.69,3.97-25.13,10.39-8.6-15.67-25.25-26.3-44.39-26.3-17.18,0-32.35,8.57-41.49,21.65-6.02-5.09-13.79-8.16-22.29-8.16-17.28,0-31.6,12.69-34.14,29.26-3.9-4.39-9.57-7.18-15.9-7.18-10.32,0-18.92,7.35-20.86,17.1h-19.17c35.23,49.07,92.77,81.04,157.79,81.04s122.56-31.97,157.79-81.04h-23.09Z" style="fill:#8c5831;"/><path d="M379.67,400.05c-20.68,18.05-46.77,23.27-67.36,2.95-53.55,51.63-97.4,33.47-112.42,15.75-12.28,4.09-25.62,3.35-31.83-9.75-6.57-13.96,1.03-30.62,13.92-39.45-17.14,.15-31.3,12.78-33.83,29.25-3.9-4.39-9.57-7.18-15.9-7.18-10.32,0-18.92,7.35-20.86,17.1h-19.17c35.23,49.07,92.77,81.04,157.79,81.04s122.56-31.97,157.79-81.04h-23.09c-.97-3.3-2.72-6.26-5.03-8.68Z" style="fill:#8c5831; mix-blend-mode:multiply; opacity:.23;"/><g><path d="M200.04,384.81c18.76-38.92,75.46-41,92.82,.16-6.48-6.33-13.43-11.98-21.52-15.74-24.83-11.99-51.76-2.22-71.31,15.58h0Z" style="fill:#c16e32;"/><path d="M270.36,399.74c13.81-26.66,49.55-39.91,72.54-16.18,6.53,6.87,10.72,15.56,12.57,24.69-2.7-3.71-5.33-7.29-8.2-10.57-23.56-27.8-51.86-18.2-76.92,2.06h0Z" style="fill:#c16e32;"/><path d="M145.76,406.2c-2.36-14.31,8.61-28.48,21.66-33.69,6.71-2.83,14.17-3.76,21.22-2.75,7.05,1.05,13.68,3.94,18.8,8.48-12.7-2.18-24.88-2.23-36.44,2.74-11.44,4.9-20.11,13.33-25.24,25.22h0Z" style="fill:#c16e32;"/></g></g><path d="M250,48.2c53.9,0,104.58,20.99,142.69,59.11,38.12,38.11,59.11,88.79,59.11,142.69s-20.99,104.58-59.11,142.69c-38.11,38.11-88.79,59.11-142.69,59.11s-104.58-20.99-142.69-59.11c-38.12-38.11-59.11-88.79-59.11-142.69s20.99-104.58,59.11-142.69c38.11-38.11,88.79-59.11,142.69-59.11m0-46C113.14,2.2,2.2,113.14,2.2,250s110.94,247.8,247.8,247.8,247.8-110.94,247.8-247.8S386.86,2.2,250,2.2h0Z" style="fill:url(#Degradado_sin_nombre_676);"/><path d="M250,48.2c53.9,0,104.58,20.99,142.69,59.11,38.12,38.11,59.11,88.79,59.11,142.69s-20.99,104.58-59.11,142.69c-38.11,38.11-88.79,59.11-142.69,59.11s-104.58-20.99-142.69-59.11c-38.12-38.11-59.11-88.79-59.11-142.69s20.99-104.58,59.11-142.69c38.11-38.11,88.79-59.11,142.69-59.11m0-8.59c-116.2,0-210.39,94.2-210.39,210.39s94.2,210.39,210.39,210.39,210.39-94.2,210.39-210.39S366.2,39.61,250,39.61h0Z" style="fill:url(#Degradado_sin_nombre_678);"/></g></g></g></svg>