<?xml version="1.0" encoding="UTF-8"?><svg xmlns="http://www.w3.org/2000/svg" xmlns:xlink="http://www.w3.org/1999/xlink" viewBox="0 0 500 500"><defs><linearGradient id="Degradado_sin_nombre_7" x1="251.38" y1="392.89" x2="248.59" y2="104.05" gradientUnits="userSpaceOnUse"><stop offset="0" stop-color="#fff"/><stop offset="1" stop-color="#00fbff"/></linearGradient><radialGradient id="Degradado_sin_nombre_676" cx="250" cy="250" fx="250" fy="250" r="247.8" gradientUnits="userSpaceOnUse"><stop offset=".54" stop-color="#0ed3ff"/><stop offset=".79" stop-color="#0cd0ff"/><stop offset=".95" stop-color="#05c7ff"/><stop offset="1" stop-color="#02c3ff"/></radialGradient><radialGradient id="Degradado_sin_nombre_678" cx="250" cy="250" fx="250" fy="250" r="210.39" gradientUnits="userSpaceOnUse"><stop offset=".54" stop-color="#1495ea"/><stop offset=".81" stop-color="#1392ea"/><stop offset=".98" stop-color="#1189ea"/><stop offset="1" stop-color="#1188ea"/></radialGradient></defs><g style="isolation:isolate;"><g id="Capa_1"><g><circle cx="250" cy="250" r="247.8" style="fill:url(#Degradado_sin_nombre_7);"/><g><g><path d="M252.86,141.03s24.91,9.83,33.51-21.73c-5.63,1.68-12.14,.37-20,2.38-7.86,2.01-14.67,9.91-13.5,19.35Z" style="fill:#00ae52;"/><path d="M252.48,140.82c3.97-9.57,14.57-14.27,24.34-15.21-9.49,2.34-18.3,7.15-23.58,15.62-.27,.43-.97,.06-.76-.41h0Z" style="fill:#009245;"/></g><g><path d="M248.37,124.06s-23.69,11.1-37.51-12.48c0,0,29.63-11.74,37.51,12.48Z" style="fill:#00ae52;"/><path d="M248.05,124.44c-6.26-3.71-13.07-6.59-20.11-8.45-2.37-.68-4.79-1.17-7.2-1.72,1.24,.04,2.48,.11,3.72,.21,8.61,.94,17.67,3.24,24.24,9.2,.43,.41-.16,1.13-.65,.76h0Z" style="fill:#009245;"/></g><g><path d="M178.06,233.23s20.17-10.62,11.05-32.62c0,0-23.74,14.41-11.05,32.62Z" style="fill:#00ae52;"/><path d="M177.62,233.26c-.71-8.79,3.29-17.3,8.17-24.37,0,0-1.35,2.94-1.35,2.94-3.04,6.76-5.14,14.01-5.95,21.38,0,.53-.81,.58-.87,.05h0Z" style="fill:#009245;"/></g><g><path d="M167.24,219.17s8.71-19.54-10.79-30.48c0,0-9.14,24.41,10.79,30.48Z" style="fill:#009e4b;"/><path d="M166.93,219.44c-5.62-6.07-7.63-14.67-8.12-22.72,0,0,.71,2.95,.71,2.95,1.7,6.76,4.34,13.31,8.03,19.22,.3,.39-.27,.89-.61,.54h0Z" style="fill:#00823d;"/></g><g><path d="M316.77,199.06s4.3,20.96,26.52,18.5c0,0-6.78-25.17-26.52-18.5Z" style="fill:#009334;"/><path d="M316.86,198.66c8.11,1.66,14.75,7.49,19.83,13.74,0,0-2.3-1.98-2.3-1.98-5.31-4.51-11.28-8.3-17.72-10.96-.47-.14-.3-.88,.18-.8h0Z" style="fill:#00823d;"/></g><g><path d="M281.43,220.98s-18.38-5.05-14.89-24.66c0,0,21.98,7.5,14.89,24.66Z" style="fill:#009334;"/><path d="M281.07,221.04c-1.99-5.88-5-11.42-8.7-16.4,0,0-1.63-2.16-1.63-2.16,5.26,4.89,10.05,11.13,11.05,18.44,.05,.44-.63,.55-.72,.12h0Z" style="fill:#00823d;"/></g><g><path d="M246.74,97s-21.35,1.29-24.75-20.8c0,0,26.07,.01,24.75,20.8Z" style="fill:#009e4b;"/><path d="M246.38,97.19c-4.24-5.53-9.45-10.31-15.18-14.27,0,0-2.51-1.7-2.51-1.7,7.36,3.29,14.71,8.19,18.42,15.58,.21,.45-.46,.81-.72,.38h0Z" style="fill:#00823d;"/></g><path d="M319.17,196.3c-.2-.19-.52-.18-.71,.02-6.12,6.5-12,13.18-17.78,19.93-5.06,5.96-10.08,11.97-15.04,18.02,.78-8.96,1.33-17.95,1.69-26.91,.05-1.95,.12-3.89,.13-5.84,.02-.58-.85-.69-.99-.14-3.69,14.18-6.67,28.63-9.1,43.09-4.84,6.05-9.62,12.14-14.31,18.3-.68-18.01-1.32-36.89-2.35-53.79-.36-5.17-.73-10.34-1.12-15.51,4.09-5.87,8.01-11.86,11.86-17.89,4.91-7.72,9.7-15.52,14.09-23.61,.36-.63-.55-1.26-1.01-.72-9.08,10.23-17.62,20.88-25.75,31.83-2.68-33.36-6.34-66.69-13.48-99.41-.04-.18-.21-.31-.4-.3-.21,.01-.37,.21-.35,.42,.27,3.91,.82,11.71,1.13,15.7,.85,12.83,1.38,34.23,1.64,47.09,.14,22.24,.49,53.64,.56,83.81-1.17-2.3-2.42-4.56-3.76-6.76-1.67-2.8-3.5-5.52-5.47-8.14-.71-4.08-1.56-8.05-2.49-12.04-2.24-9.53-4.98-18.95-8.2-28.19-1.63-4.61-3.38-9.18-5.31-13.67-.15-.36-.55-.58-.95-.5-.47,.09-.77,.56-.66,1.02,2.06,9.47,4.17,18.93,5.95,28.44,.95,4.86,1.83,9.77,2.66,14.68-4.78-4.66-10.08-8.77-15.87-12.1-5.36-2.98-11.09-5.37-17.03-6.79-.21-.05-.43,.03-.55,.23-.15,.24-.07,.56,.18,.7,6.83,4.19,13.17,8.71,18.78,14,15.25,14.15,25.68,32.69,32.7,52.16-.05,13.78-.19,26.64-.48,37.48-6.75-9.31-14.9-17.66-23.04-25.29-18.24-16.71-38.22-31.17-59.64-43.37-.2-.11-.47-.07-.63,.11-.18,.21-.16,.53,.05,.71,9.25,7.96,18.28,16.12,27.01,24.51,17.08,16.59,47.53,47.17,55.13,73.14-1.51,33.52-3.9,67.04-6.66,100.41,2.16,21.03,32.11,19.04,31.65-1.91-2.65-42.63-5.27-93.97-7.39-136.72-.03-.59-.05-1.2-.08-1.79,4.1-5.5,8.09-11.08,12.04-16.69,15.25-21.86,30.12-43.98,43.43-67.11,.11-.2,.08-.45-.09-.62Z" style="fill:#cc7f21;"/><path d="M194.17,241.15c-9.48-6.8-19.31-13.11-29.46-18.9-.2-.11-.47-.07-.63,.11-.18,.21-.16,.53,.05,.71,9.25,7.96,18.28,16.12,27.01,24.51,17.08,16.59,47.53,47.17,55.13,73.14-1.51,33.52-3.9,67.04-6.66,100.41,.71,6.94,4.46,11.36,9.14,13.43,.5-26.15,1.5-52.32,3.31-78.57,1-15-1-29-4-43-7.98-30.94-34.89-46.94-53.88-71.85Z" style="fill:#cc7f21; mix-blend-mode:multiply; opacity:.55;"/><path d="M258.74,182.45c-2.67-33.15-6.33-66.26-13.43-98.77-.04-.18-.21-.31-.4-.3-.21,.01-.37,.21-.35,.42,.27,3.91,.82,11.71,1.13,15.7,.23,3.42,7.98,57.6,10.22,88.58,1.45-2.41,1.81-3.03,2.83-5.63Z" style="fill:#cc7f21; mix-blend-mode:multiply; opacity:.55;"/><path d="M275.84,264.02c15.25-21.86,30.12-43.98,43.43-67.11,.11-.2,.08-.45-.09-.62-.2-.19-.52-.18-.71,.02-6.12,6.5-12,13.18-17.78,19.93-5.06,5.96-10.08,11.97-15.04,18.02,.78-8.96,1.33-17.95,1.69-26.91,.05-1.95,.12-3.89,.13-5.84,.02-.42-.45-.59-.75-.44-1.1,15.3-3.4,38.78-3.4,38.78l27.48-31.98s-47,73.08-47.01,72.83c4.1-5.5,8.09-11.08,12.04-16.69Z" style="fill:#cc7f21; mix-blend-mode:multiply; opacity:.55;"/><path d="M253.42,234.56c-.95,5.69-3.19,14.53-3.19,14.53,0,0-11.58-25.8-21.39-37.97-9.81-12.18-29.73-24.22-32.08-24.79-.21-.05-.43,.03-.55,.23-.15,.24-.07,.56,.18,.7,6.83,4.19,13.17,8.71,18.78,14,15.25,14.15,25.68,32.69,32.7,52.16-.05,12.54-.17,24.3-.41,34.48,1.62,5.3,2.78,10.77,3.6,16.08,3-23,3.37-45.44,2.37-69.44Z" style="fill:#cc7f21; mix-blend-mode:multiply; opacity:.55;"/><g><path d="M172.29,228.19s-25.91,25.3-53.16-9.56c7.9-.86,15.33-5.9,26.19-7.51,10.86-1.61,23.48,4.68,26.97,17.06Z" style="fill:#00c735;"/><path d="M171.92,228.64c-11.33-7.88-24.14-9.14-37.57-7.13,12.58-3.95,28.39-3.62,38.31,6.22,.5,.47-.17,1.3-.74,.91h0Z" style="fill:#009245;"/></g><g><path d="M197.14,187.14s-16.41-25.39,8.43-44.9c0,0,18.07,32.09-8.43,44.9Z" style="fill:#00ae52;"/><path d="M196.65,186.83c3.27-7.74,5.5-15.99,6.53-24.35,.4-2.82,.59-5.66,.84-8.51,.15,1.42,.26,2.86,.35,4.29,.26,10-.95,20.73-6.75,29.19-.42,.56-1.31,0-.97-.62h0Z" style="fill:#009245;"/></g><g><path d="M197.05,187.23s-19.27,6.54-27.93-12.89c0,0,23.93-6.53,27.93,12.89Z" style="fill:#00ae52;"/><path d="M196.77,187.5c-5.28-4.01-11.26-7.1-17.51-9.29,0,0-2.73-.93-2.73-.93,7.58,1.18,15.55,3.82,20.81,9.68,.3,.36-.22,.86-.57,.53h0Z" style="fill:#009245;"/></g><g><path d="M221.99,164.41s16.23-12.28,5.01-30.35c0,0-18.83,16.14-5.01,30.35Z" style="fill:#00a339;"/><path d="M221.61,164.49c-1.9-7.64,.38-15.73,3.66-22.66,0,0-.76,2.79-.76,2.79-1.7,6.41-2.5,13.09-2.14,19.71,.08,.46-.64,.63-.76,.17h0Z" style="fill:#009245;"/></g><g><path d="M227.53,180.15s15.82-3.21,14-19.97c0,0-19,5.08-14,19.97Z" style="fill:#00ae52;"/><path d="M227.23,180.08c1.27-6.11,5.68-11.11,10.39-14.94-4.05,4.47-7.5,9.5-9.79,15.08-.1,.36-.67,.23-.6-.14h0Z" style="fill:#009245;"/></g><g><path d="M284.85,153.16s20.96-4.25,18.55-26.48c0,0-25.18,6.73-18.55,26.48Z" style="fill:#00c735;"/><path d="M284.45,153.07c1.68-8.1,7.52-14.73,13.78-19.8,0,0-1.99,2.29-1.99,2.29-4.52,5.3-8.32,11.26-10.99,17.7-.14,.47-.89,.3-.8-.19h0Z" style="fill:#009245;"/></g><g><path d="M275.09,166.42s17.84,11.81,31.84-5.62c0,0-22.57-13.04-31.84,5.62Z" style="fill:#00a339;"/><path d="M274.87,166.07c6.91-4.55,15.73-5.11,23.74-4.27,0,0-3.03,.22-3.03,.22-6.95,.56-13.85,2.09-20.28,4.75-.43,.23-.84-.41-.43-.69h0Z" style="fill:#009245;"/></g><g><path d="M286.67,204.99s20.81-4.97,17.64-27.1c0,0-24.94,7.59-17.64,27.1Z" style="fill:#00c735;"/><path d="M286.27,204.91c1.4-8.16,7.01-14.98,13.09-20.26,0,0-1.91,2.36-1.91,2.36-4.34,5.46-7.93,11.54-10.38,18.06-.12,.47-.87,.33-.8-.16h0Z" style="fill:#009245;"/></g><g><path d="M247.39,101.92s19.59,6.47,24.82-18.19c-4.26,1.54-9.32,.82-15.28,2.71s-10.85,8.27-9.54,15.48Z" style="fill:#00c735;"/><path d="M247.09,101.78c2.62-7.53,10.63-11.63,18.05-12.77-7.22,2.22-13.77,6.31-17.45,13.05-.19,.35-.75,.09-.6-.28h0Z" style="fill:#009245;"/></g><g><path d="M316.82,198.32s30.21,20.42,50.96-19c-7.98,.57-16.25-3.1-27.3-2.74-11.05,.35-22.42,8.85-23.66,21.75Z" style="fill:#00c735;"/><path d="M316.38,197.93c8.06-11.54,23.67-14.69,36.84-13.04-9.98,.43-19.93,2.17-28.3,7.67-2.74,1.76-5.24,3.85-7.66,6.13-.49,.49-1.31-.21-.89-.77h0Z" style="fill:#009245;"/></g><g><path d="M190.42,237.97s-28.7-14.44-42.39,22.35c6.91-1.4,14.55,.88,24.16-.68,9.61-1.55,18.6-10.26,18.23-21.67Z" style="fill:#00ae52;"/><path d="M190.37,238.8c-8.68,.63-17,3.5-24.25,8.31-2.43,1.6-4.78,3.34-7.09,5.18,7.86-8.67,19.24-15.78,31.36-14.53,.61,.07,.6,1-.02,1.04h0Z" style="fill:#009245;"/></g></g><g><path d="M384.7,408.73c-2.6-8.82-10.74-15.26-20.4-15.26-5.46,0-10.43,2.07-14.19,5.46-3.84-15.49-17.84-26.98-34.52-26.98-9.81,0-18.69,3.97-25.13,10.39-8.6-15.67-25.25-26.3-44.39-26.3-17.18,0-32.35,8.57-41.49,21.65-6.02-5.09-13.79-8.16-22.29-8.16-17.28,0-31.6,12.69-34.14,29.26-3.9-4.39-9.57-7.18-15.9-7.18-10.32,0-18.92,7.35-20.86,17.1h-19.17c35.23,49.07,92.77,81.04,157.79,81.04s122.56-31.97,157.79-81.04h-23.09Z" style="fill:#8c5831;"/><path d="M379.67,400.05c-20.68,18.05-46.77,23.27-67.36,2.95-53.55,51.63-97.4,33.47-112.42,15.75-12.28,4.09-25.62,3.35-31.83-9.75-6.57-13.96,1.03-30.62,13.92-39.45-17.14,.15-31.3,12.78-33.83,29.25-3.9-4.39-9.57-7.18-15.9-7.18-10.32,0-18.92,7.35-20.86,17.1h-19.17c35.23,49.07,92.77,81.04,157.79,81.04s122.56-31.97,157.79-81.04h-23.09c-.97-3.3-2.72-6.26-5.03-8.68Z" style="fill:#8c5831; mix-blend-mode:multiply; opacity:.23;"/><g><path d="M200.04,384.81c18.76-38.92,75.46-41,92.82,.16-6.48-6.33-13.43-11.98-21.52-15.74-24.83-11.99-51.76-2.22-71.31,15.58h0Z" style="fill:#c16e32;"/><path d="M270.36,399.74c13.81-26.66,49.55-39.91,72.54-16.18,6.53,6.87,10.72,15.56,12.57,24.69-2.7-3.71-5.33-7.29-8.2-10.57-23.56-27.8-51.86-18.2-76.92,2.06h0Z" style="fill:#c16e32;"/><path d="M145.76,406.2c-2.36-14.31,8.61-28.48,21.66-33.69,6.71-2.83,14.16-3.76,21.22-2.75,7.05,1.05,13.68,3.94,18.8,8.48-12.7-2.18-24.88-2.23-36.44,2.74-11.44,4.9-20.11,13.33-25.24,25.22h0Z" style="fill:#c16e32;"/></g></g><path d="M250,48.2c53.9,0,104.58,20.99,142.69,59.11,38.12,38.11,59.11,88.79,59.11,142.69s-20.99,104.58-59.11,142.69c-38.11,38.11-88.79,59.11-142.69,59.11s-104.58-20.99-142.69-59.11c-38.12-38.11-59.11-88.79-59.11-142.69s20.99-104.58,59.11-142.69c38.11-38.11,88.79-59.11,142.69-59.11m0-46C113.14,2.2,2.2,113.14,2.2,250s110.94,247.8,247.8,247.8,247.8-110.94,247.8-247.8S386.86,2.2,250,2.2h0Z" style="fill:url(#Degradado_sin_nombre_676);"/><path d="M250,48.2c53.9,0,104.58,20.99,142.69,59.11,38.12,38.11,59.11,88.79,59.11,142.69s-20.99,104.58-59.11,142.69c-38.11,38.11-88.79,59.11-142.69,59.11s-104.58-20.99-142.69-59.11c-38.12-38.11-59.11-88.79-59.11-142.69s20.99-104.58,59.11-142.69c38.11-38.11,88.79-59.11,142.69-59.11m0-8.59c-116.2,0-210.39,94.2-210.39,210.39s94.2,210.39,210.39,210.39,210.39-94.2,210.39-210.39S366.2,39.61,250,39.61h0Z" style="fill:url(#Degradado_sin_nombre_678);"/></g></g></g></svg>