<?xml version="1.0" encoding="UTF-8"?><svg xmlns="http://www.w3.org/2000/svg" xmlns:xlink="http://www.w3.org/1999/xlink" viewBox="0 0 500 500"><defs><linearGradient id="Degradado_sin_nombre_7" x1="251.01" y1="394" x2="248.22" y2="105.16" gradientUnits="userSpaceOnUse"><stop offset="0" stop-color="#fff"/><stop offset="1" stop-color="#00fbff"/></linearGradient><linearGradient id="Degradado_sin_nombre_6" x1="252.82" y1="430.1" x2="251.56" y2="299.76" gradientUnits="userSpaceOnUse"><stop offset="0" stop-color="#fff"/><stop offset="1" stop-color="#5eefff"/></linearGradient><linearGradient id="Degradado_sin_nombre_63" x1="252.59" y1="389.19" x2="250.88" y2="450.6" gradientUnits="userSpaceOnUse"><stop offset="0" stop-color="#2bf228"/><stop offset="1" stop-color="#00b555"/></linearGradient><radialGradient id="Degradado_sin_nombre_676" cx="250" cy="250" fx="250" fy="250" r="247.8" gradientUnits="userSpaceOnUse"><stop offset=".54" stop-color="#0ed3ff"/><stop offset=".79" stop-color="#0cd0ff"/><stop offset=".95" stop-color="#05c7ff"/><stop offset="1" stop-color="#02c3ff"/></radialGradient><radialGradient id="Degradado_sin_nombre_678" cx="250" cy="250" fx="250" fy="250" r="210.39" gradientUnits="userSpaceOnUse"><stop offset=".54" stop-color="#1495ea"/><stop offset=".81" stop-color="#1392ea"/><stop offset=".98" stop-color="#1189ea"/><stop offset="1" stop-color="#1188ea"/></radialGradient></defs><g style="isolation:isolate;"><g id="Capa_1"><g><circle cx="249.63" cy="251.11" r="247.8" style="fill:url(#Degradado_sin_nombre_7);"/><path d="M42.15,342c2,14,12,24,17,38,5,15,21,22,27,37,2,5,12,5,16,10,3,2,6,5,9,7,9,7,18,10,27,14,16,6,31,14,47,21,30,11,64,12,94,0,8-3,16-8,24-10,67-20,126-56,155-118,1.46-3.12,2.91-6.24,4.36-9.37-30-14.85-70.76-34.98-85.03-41.79-23.6-11.26-68.75,23.65-107.22,51.49-14.59-10.63-58.36-43.88-102.57-75.89-34.19-24.76-66.72-3.92-126.35,41.82,.5,11.76-1.02,22.83,.81,34.74Z" style="fill:url(#Degradado_sin_nombre_6);"/><path d="M375.18,135.08l-35.76,33.91,3.42-36.02-1.02-.61-12.33,42.76,7.44-3.76-8.3,7.87-64.11,74.29-4.17-48.15,37.27-44.69s9.45-12.28-.21-5.14c-9.73,7.19-32.96,30.83-36.85,33.79l6.22-84.69-18.56,76.11-14.72-44.84-1.46,6.54,9.11,45.07-35.32-57.69-.59,3.73,5.43,11.93-36.49-12.52-4.74-.9,45.19,22.11,8.36,18.36-31.84-1.71,36.07,11,11.81,25.95-.02,8.91-2.48,61.39-52.1-37.3,10.06-23.97-.88-.48-14.2,20.86-27.96-20.02-.2,2.27,40.67,44.21-35.42-1.97-.28,2.84,42.05,6.03,34.85,37.89-3.52,79.29h44.32l-7.18-116,33.06-44.46,48.92-11.77-40.67-1.83,67.12-78.59Z" style="fill:#cc7f21;"/><polygon points="253.76 290.88 246.11 387.73 260.74 387.73 253.76 290.88" style="fill:#cc7f21; mix-blend-mode:multiply; opacity:.71;"/><polygon points="273.92 387.73 270.58 333.69 266.27 387.73 273.92 387.73" style="fill:#cc7f21; mix-blend-mode:multiply; opacity:.71;"/><polygon points="231.96 299.62 201.34 273.88 233.12 308.44 233.04 310.45 237.26 315.65 243.24 291.48 231.96 299.62" style="fill:#cc7f21; mix-blend-mode:multiply; opacity:.71;"/><path d="M151.45,217.17l-.2,2.27,10.93,11.89c1.59-.97,3.09-2.07,4.56-3.2l-15.3-10.96Z" style="fill:#cc7f21; mix-blend-mode:multiply; opacity:.71;"/><path d="M194.49,216.81l-.88-.48-8.94,13.13c1.11,.85,2.33,1.57,3.61,2.14l6.21-14.8Z" style="fill:#cc7f21; mix-blend-mode:multiply; opacity:.71;"/><path d="M225.05,281c-4-10-12-17-21-23,3.71,1.86,7.64,3.5,11.59,5.12l-31.21-22.35,.09-.21c-4.3-1.9-8.6-3.86-12.47-6.56,16,18,35,32,53,47Z" style="fill:#cc7f21; mix-blend-mode:multiply; opacity:.36;"/><polygon points="216.45 152.06 172.17 132.58 169.44 132.06 214.64 154.17 222.99 172.53 191.16 170.82 227.22 181.82 239.04 207.78 239.02 216.69 236.63 275.65 238.57 284.91 243.84 210.01 216.45 152.06" style="fill:#cc7f21; mix-blend-mode:multiply; opacity:.36;"/><path d="M205.84,129.82l-.59,3.73,4.33,9.51c1.41-.1,2.54-.68,3.41-1.56l-7.15-11.68Z" style="fill:#cc7f21; mix-blend-mode:multiply; opacity:.71;"/><path d="M238.59,151.38l-5.08-15.48-1.46,6.54,2.4,11.88c1.67-.67,3.03-1.69,4.14-2.94Z" style="fill:#cc7f21; mix-blend-mode:multiply; opacity:.71;"/><path d="M266.79,104.63l-9.86,40.43c2.48-1.15,4.91-2.53,7.19-4.15l2.67-36.28Z" style="fill:#cc7f21; mix-blend-mode:multiply; opacity:.71;"/><path d="M259.05,154c.76,2.64,1.94,5.29,3.55,7.55l.91-12.32c-2.61,1.02-5.2,1.78-4.46,4.76Z" style="fill:#cc7f21; mix-blend-mode:multiply; opacity:.71;"/><path d="M260.82,185.81l.8-10.92c-1.02-1.2-2.29-2.24-3.57-2.88-2.04,4.09-2.69,8.18-1.63,11.95,1.45,.68,2.95,1.24,4.4,1.86Z" style="fill:#cc7f21; mix-blend-mode:multiply; opacity:.71;"/><path d="M297.41,155.53c-3.57,2.64-8.96,7.49-14.54,12.73,.31,2.54,1.41,4.71,3.03,6.47l11.73-14.06s9.45-12.28-.21-5.14Z" style="fill:#cc7f21; mix-blend-mode:multiply; opacity:.36;"/><path d="M269.2,181.31c-2.34,2.24-4.39,4.21-5.95,5.66,1.03,.56,1.98,1.21,2.81,2.04-.82-.82-1.78-1.47-2.81-2.04-1.21,1.12-2.14,1.95-2.68,2.36l.26-3.52c-1.45-.61-2.95-1.18-4.4-1.86,.49,1.76,1.36,3.46,2.63,5.05-1.27-1.59-2.14-3.29-2.63-5.05-1.29-.6-2.53-1.3-3.64-2.22-.39,6.45,1.03,13.65,6.28,16.27,1.88,.94,3.86,1.59,5.85,1.91l9.72-11.65c-2.65-1.53-4.65-3.86-5.42-6.95Z" style="fill:#cc7f21; mix-blend-mode:multiply; opacity:.71;"/><path d="M261.09,213.85l-.62-7.19-3.8,1.75c1.07,2.16,2.6,3.97,4.42,5.44Z" style="fill:#cc7f21; mix-blend-mode:multiply; opacity:.71;"/><polygon points="286.03 245.81 260.47 265.8 269.79 320.96 266.74 271.73 286.03 245.81" style="fill:#cc7f21; mix-blend-mode:multiply; opacity:.36;"/><path d="M310.7,200.01c.13,.06,.26,.12,.39,.18-.06-.15-.1-.29-.17-.44l-.23,.26Z" style="fill:#cc7f21; mix-blend-mode:multiply; opacity:.71;"/><path d="M339.42,168.99l3.42-36.02-1.02-.61-3.98,13.8-1.85,25.67,.94-.47-.97,.92-.16,2.24,.16-2.24-7.33,6.95-4.8,5.56c-.17,3.59-1.19,7.04-2.78,10.21-.87,3.47-5.49,6.93-9.96,5.18,1.77,4.66-.62,10.01-3.04,10.82-3.13,1.57-6.82,3.4-10.62,4.37l-8.17,9.47c1.42,.19,2.83,.01,4.16-.4,.15-1.21,.36-2.37,.63-3.44-.27,1.07-.48,2.23-.63,3.44,2.25-.7,4.25-2.07,5.63-3.44-1.37,1.37-3.38,2.74-5.63,3.44-.42,3.4-.32,7.21,.56,10.66l5.82-7.83,3.92-.94c.24-4.9,1.52-9.37,5.15-12.63l-.82-.04,34.89-40.85c-.78-1.76-1.25-3.71-1.53-5.72l-2,1.89Z" style="fill:#cc7f21; mix-blend-mode:multiply; opacity:.36;"/><path d="M362.08,147.5c.32,.6,.63,1.21,.93,1.83l12.17-14.25-13.1,12.42Z" style="fill:#cc7f21; mix-blend-mode:multiply; opacity:.71;"/><path d="M333.82,214.83c-.68,1.59-1.32,3.16-1.9,4.72l16.82-4.05-14.91-.67Z" style="fill:#cc7f21; mix-blend-mode:multiply; opacity:.71;"/><path d="M156.51,261.68l-.28,2.84,9.77,1.4c.2-1.22,.38-2.45,.54-3.68l-10.02-.56Z" style="fill:#cc7f21; mix-blend-mode:multiply; opacity:.71;"/><path d="M48.59,388.08c44.97,62.64,118.41,103.45,201.41,103.45s156.44-40.81,201.41-103.45H48.59Z" style="fill:#8c5831;"/><path d="M270.72,420.88c85.76,0,96.44-23.96,69.42-32.79H151.62c1.3,8.1,11.64,11.77,39.34,11.77-17.76,14.28-6.01,21.02,79.76,21.02Z" style="fill:url(#Degradado_sin_nombre_63);"/><path d="M250,48.2c53.9,0,104.58,20.99,142.69,59.11,38.12,38.11,59.11,88.79,59.11,142.69s-20.99,104.58-59.11,142.69c-38.11,38.11-88.79,59.11-142.69,59.11s-104.58-20.99-142.69-59.11c-38.12-38.11-59.11-88.79-59.11-142.69s20.99-104.58,59.11-142.69c38.11-38.11,88.79-59.11,142.69-59.11m0-46C113.14,2.2,2.2,113.14,2.2,250s110.94,247.8,247.8,247.8,247.8-110.94,247.8-247.8S386.86,2.2,250,2.2h0Z" style="fill:url(#Degradado_sin_nombre_676);"/><path d="M250,48.2c53.9,0,104.58,20.99,142.69,59.11,38.12,38.11,59.11,88.79,59.11,142.69s-20.99,104.58-59.11,142.69c-38.11,38.11-88.79,59.11-142.69,59.11s-104.58-20.99-142.69-59.11c-38.12-38.11-59.11-88.79-59.11-142.69s20.99-104.58,59.11-142.69c38.11-38.11,88.79-59.11,142.69-59.11m0-8.59c-116.2,0-210.39,94.2-210.39,210.39s94.2,210.39,210.39,210.39,210.39-94.2,210.39-210.39S366.2,39.61,250,39.61h0Z" style="fill:url(#Degradado_sin_nombre_678);"/><g><g><g><path d="M144.86,264.16s-.28-14.08-17.34-11.86c1.95,2.39,2.64,5.82,5.21,9.23,2.57,3.41,7.78,5.11,12.13,2.63Z" style="fill:#00ae52;"/><path d="M144.84,264.39c-5.43,.01-9.9-4.2-12.31-8.73,3.06,4.14,7.19,7.45,12.36,8.28,.27,.04,.23,.46-.04,.45h0Z" style="fill:#009245;"/></g><g><path d="M139.14,267.65s-.19,10.53-12.96,8.88c1.46-1.79,1.97-4.35,3.89-6.91,1.92-2.55,5.82-3.83,9.07-1.98Z" style="fill:#00ae52;"/><path d="M139.16,267.82c-3.86,.62-6.95,3.1-9.24,6.2,1.8-3.39,5.14-6.54,9.2-6.54,.2,0,.23,.3,.03,.34h0Z" style="fill:#009245;"/></g><g><path d="M139.53,263.82s-5.51,8.98-15.67,1.08c2.17-.8,3.91-2.75,6.85-3.98s6.95-.35,8.82,2.9Z" style="fill:#00ae52;"/><path d="M139.46,263.98c-3.64-1.42-7.56-.86-11.11,.66,3.27-2,7.75-3.03,11.25-.96,.18,.1,.04,.38-.14,.31h0Z" style="fill:#009245;"/></g><g><path d="M145.65,264.88s6.45-7.95-4.07-14.71c-.04,2.24-1.26,4.47-1.43,7.56-.17,3.1,1.93,6.49,5.5,7.15Z" style="fill:#00c735;"/><path d="M145.54,264.99c-3.02-2.54-3.53-6.97-2.75-10.62-.24,3.73,.5,7.51,2.98,10.39,.13,.15-.09,.36-.24,.23h0Z" style="fill:#009245;"/></g><g><path d="M142.52,265.06s-5.44-8.67-15.24-.89c2.11,.76,3.82,2.64,6.7,3.8,2.88,1.16,6.76,.27,8.54-2.9Z" style="fill:#00c735;"/><path d="M142.59,265.21c-3.38,2.04-7.74,1.09-10.94-.83,3.45,1.43,7.27,1.95,10.8,.53,.18-.07,.31,.2,.14,.3h0Z" style="fill:#009245;"/></g><g><path d="M145.9,264.12s4.72,9.94-7.99,14.34c.53-2.35-.18-4.99,.42-8.27s3.66-6.29,7.56-6.07Z" style="fill:#00c735;"/><path d="M146,264.28c-3.33,2.39-5.06,6.13-5.75,10.1,.11-4.01,1.76-8.51,5.56-10.4,.19-.1,.36,.18,.19,.3h0Z" style="fill:#009245;"/></g></g><g><g><path d="M200.63,168.51s11.28-8.43-.48-21c-.8,2.98-3.19,5.54-4.46,9.61s.39,9.3,4.94,11.39Z" style="fill:#00ae52;"/><path d="M200.44,168.62c-3.18-4.41-2.36-10.49-.09-15.09-1.11,3.69-1.74,7.55-.79,11.3,.3,1.22,.74,2.4,1.27,3.57,.12,.24-.24,.45-.39,.23h0Z" style="fill:#009245;"/></g><g><path d="M194.46,165.9s-8.67,5.98-14.77-5.34c2.31,.14,4.68-.94,7.88-.87,3.19,.07,6.5,2.49,6.9,6.21Z" style="fill:#00ae52;"/><path d="M194.33,166.01c-2.76-2.77-6.57-3.84-10.42-3.89,3.8-.51,8.31,.36,10.68,3.66,.12,.16-.11,.37-.26,.22h0Z" style="fill:#009245;"/></g><g><path d="M197.8,163.98s-10.51,.76-10.02-12.1c1.92,1.29,4.51,1.57,7.23,3.25,2.71,1.68,4.34,5.45,2.79,8.86Z" style="fill:#00ae52;"/><path d="M197.63,164.01c-.97-3.79-3.72-6.64-7.01-8.64,3.53,1.49,6.98,4.53,7.34,8.58,.02,.2-.28,.26-.33,.06h0Z" style="fill:#009245;"/></g><g><path d="M200.51,169.57s10.22,.6,9.58-11.89c-1.84,1.28-4.37,1.58-6.98,3.25-2.62,1.67-4.15,5.35-2.6,8.64Z" style="fill:#00c735;"/><path d="M200.35,169.54c.3-3.94,3.61-6.93,7.02-8.42-3.17,1.98-5.81,4.79-6.7,8.48-.05,.19-.35,.14-.33-.06h0Z" style="fill:#009245;"/></g><g><path d="M198.54,167.13s3.87-9.48-8.16-12.9c.62,2.16,.09,4.64,.82,7.66,.73,3.01,3.72,5.65,7.34,5.25Z" style="fill:#00c735;"/><path d="M198.46,167.28c-3.63-1.56-5.4-5.65-5.71-9.37,.85,3.64,2.66,7.04,5.87,9.08,.16,.11,.02,.37-.16,.29h0Z" style="fill:#009245;"/></g><g><path d="M201.27,169.34s-5.32,9.63-16.3,1.87c2.22-.94,3.94-3.06,6.96-4.48,3.02-1.42,7.24-.69,9.34,2.6Z" style="fill:#00c735;"/><path d="M201.2,169.5c-3.88-1.31-7.93-.53-11.56,1.21,3.32-2.24,7.94-3.54,11.69-1.54,.19,.09,.07,.4-.13,.33h0Z" style="fill:#009245;"/></g></g><g><g><path d="M276.71,111.22s9.97,9.94,20.71-3.5c-3.07-.36-5.94-2.36-10.15-3.03-4.21-.67-9.15,1.72-10.56,6.53Z" style="fill:#00ae52;"/><path d="M276.57,111.04c3.9-3.78,10.04-3.84,14.92-2.27-3.81-.57-7.72-.63-11.29,.85-1.16,.48-2.27,1.08-3.35,1.77-.22,.15-.48-.18-.28-.36h0Z" style="fill:#009245;"/></g><g><path d="M278.4,104.74s-7.17-7.72,3.16-15.39c.19,2.3,1.61,4.5,2,7.67,.39,3.17-1.53,6.79-5.15,7.72Z" style="fill:#00ae52;"/><path d="M278.27,104.63c2.35-3.13,2.85-7.06,2.34-10.88,1.05,3.69,.84,8.28-2.08,11.1-.14,.14-.38-.06-.26-.22h0Z" style="fill:#009245;"/></g><g><path d="M280.78,107.76s-2.26-10.29,10.53-11.66c-1,2.08-.9,4.69-2.17,7.62-1.27,2.93-4.76,5.08-8.36,4.04Z" style="fill:#00ae52;"/><path d="M280.73,107.6c3.61-1.5,6.04-4.64,7.54-8.18-.96,3.71-3.47,7.56-7.43,8.5-.2,.05-.3-.24-.11-.32h0Z" style="fill:#009245;"/></g><g><path d="M275.64,111.25s.88,10.2,13.14,7.76c-1.53-1.64-2.19-4.09-4.22-6.44-2.03-2.35-5.89-3.33-8.92-1.32Z" style="fill:#00c735;"/><path d="M275.65,111.09c3.94-.27,7.38,2.57,9.35,5.74-2.42-2.86-5.58-5.06-9.36-5.41-.19-.02-.19-.32,.01-.33h0Z" style="fill:#009245;"/></g><g><path d="M277.77,108.95s9.94,2.46,11.59-9.93c-2.05,.92-4.58,.76-7.46,1.92-2.88,1.16-5.05,4.5-4.13,8.02Z" style="fill:#00c735;"/><path d="M277.62,108.89c1.02-3.82,4.82-6.15,8.45-7-3.48,1.37-6.58,3.65-8.14,7.11-.08,.18-.37,.07-.31-.12h0Z" style="fill:#009245;"/></g><g><path d="M275.98,111.97s-10.3-3.88-4.21-15.86c1.25,2.06,3.6,3.46,5.43,6.24s1.73,7.06-1.23,9.62Z" style="fill:#00c735;"/><path d="M275.81,111.92c.74-4.03-.62-7.92-2.87-11.26,2.7,2.96,4.64,7.35,3.21,11.35-.07,.2-.38,.12-.34-.09h0Z" style="fill:#009245;"/></g></g><g><g><path d="M161.87,216.56s12.41,6.66,18.83-9.29c-3.04,.53-6.36-.55-10.59,.01-4.23,.57-8.27,4.28-8.24,9.28Z" style="fill:#00ae52;"/><path d="M161.69,216.43c2.66-4.74,8.52-6.56,13.64-6.45-5.11,.63-10.02,2.62-13.27,6.71-.17,.21-.51-.03-.37-.26h0Z" style="fill:#009245;"/></g><g><path d="M161.63,209.87s-9.08-5.33-1.39-15.65c.84,2.15,2.83,3.85,4.11,6.77,1.28,2.92,.49,6.95-2.72,8.88Z" style="fill:#00ae52;"/><path d="M161.48,209.8c1.35-3.67,.71-7.58-.88-11.09,2.07,3.23,3.18,7.69,1.19,11.23-.09,.18-.38,.05-.31-.14h0Z" style="fill:#009245;"/></g><g><path d="M164.78,212.09s-5.12-9.21,6.75-14.19c-.36,2.28,.48,4.75,.11,7.92s-3.11,6.23-6.85,6.27Z" style="fill:#00ae52;"/><path d="M164.68,211.95c3.03-2.48,4.46-6.17,4.87-10,.14,3.83-1.16,8.24-4.68,10.28-.17,.11-.35-.15-.2-.28h0Z" style="fill:#009245;"/></g><g><path d="M160.86,216.91s3.77,9.52,14.82,3.67c-1.94-1.13-3.27-3.29-5.89-4.96-2.62-1.67-6.6-1.5-8.93,1.29Z" style="fill:#00c735;"/><path d="M160.82,216.75c3.7-1.39,7.81,.35,10.6,2.81-3.13-2.04-6.79-3.24-10.52-2.49-.19,.04-.27-.26-.08-.32h0Z" style="fill:#009245;"/></g><g><path d="M162.24,214.09s10.22-.49,8.25-12.84c-1.7,1.47-4.17,2.04-6.59,3.97-2.42,1.94-3.55,5.76-1.66,8.87Z" style="fill:#00c735;"/><path d="M162.07,214.08c-.12-3.95,2.85-7.28,6.08-9.13-2.94,2.31-5.26,5.38-5.75,9.15-.03,.19-.33,.17-.33-.02h0Z" style="fill:#009245;"/></g><g><path d="M161.39,217.49s-10.98-.76-8.58-13.99c1.79,1.62,4.44,2.29,7,4.42,2.56,2.14,3.68,6.27,1.58,9.57Z" style="fill:#00c735;"/><path d="M161.21,217.5c-.45-4.07-2.86-7.41-5.98-9.97,3.43,2.06,6.56,5.71,6.33,9.95,0,.21-.33,.23-.35,.02h0Z" style="fill:#009245;"/></g></g><g><g><path d="M271.23,101.48s12.76-5.96,3.8-20.65c-1.39,2.76-4.25,4.77-6.32,8.5-2.07,3.73-1.51,9.18,2.52,12.15Z" style="fill:#00ae52;"/><path d="M271.02,101.55c-2.21-4.96-.17-10.75,2.98-14.79-1.84,3.39-3.24,7.03-3.07,10.9,.05,1.26,.23,2.5,.52,3.75,.07,.26-.33,.39-.43,.14h0Z" style="fill:#009245;"/></g><g><path d="M265.72,97.67s-9.71,4.1-13.38-8.24c2.23,.61,4.78,.03,7.89,.75,3.11,.72,5.86,3.76,5.49,7.49Z" style="fill:#00ae52;"/><path d="M265.58,97.76c-2.14-3.28-5.66-5.1-9.42-5.93,3.83,.27,8.07,2.04,9.71,5.76,.09,.18-.18,.34-.3,.17h0Z" style="fill:#009245;"/></g><g><path d="M269.38,96.47s-10.44-1.4-7.34-13.89c1.61,1.66,4.1,2.45,6.42,4.65,2.32,2.2,3.14,6.22,.93,9.24Z" style="fill:#00ae52;"/><path d="M269.21,96.47c-.18-3.91-2.29-7.26-5.1-9.88,3.16,2.18,5.91,5.85,5.44,9.89-.02,.2-.33,.2-.34,0h0Z" style="fill:#009245;"/></g><g><path d="M270.9,102.5s9.88,2.67,11.8-9.69c-2.07,.88-4.6,.66-7.5,1.76-2.9,1.1-5.15,4.39-4.3,7.93Z" style="fill:#00c735;"/><path d="M270.75,102.44c1.1-3.79,4.94-6.05,8.59-6.82-3.51,1.29-6.66,3.51-8.29,6.94-.08,.18-.37,.06-.31-.12h0Z" style="fill:#009245;"/></g><g><path d="M269.46,99.71s5.71-8.49-5.36-14.29c.16,2.24-.86,4.56-.75,7.66,.11,3.1,2.5,6.29,6.12,6.63Z" style="fill:#00c735;"/><path d="M269.36,99.83c-3.24-2.26-4.13-6.63-3.68-10.33,.09,3.74,1.17,7.44,3.9,10.08,.14,.14-.06,.37-.22,.25h0Z" style="fill:#009245;"/></g><g><path d="M271.69,102.42s-7.17,8.35-16.34-1.48c2.37-.47,4.48-2.19,7.73-2.97,3.24-.77,7.23,.79,8.62,4.45Z" style="fill:#00c735;"/><path d="M271.59,102.57c-3.53-2.07-7.66-2.13-11.56-1.16,3.71-1.52,8.49-1.85,11.76,.87,.17,.13-.02,.4-.2,.29h0Z" style="fill:#009245;"/></g></g><g><path d="M155.69,223.14s7.75,7.59,15.93-2.83c-2.37-.26-4.59-1.78-7.84-2.26-3.25-.49-7.04,1.39-8.09,5.1Z" style="fill:#00ae52;"/><path d="M155.58,223.01c2.98-2.94,7.71-3.03,11.48-1.84-3.91-.63-7.98-.21-11.26,2.12-.17,.12-.37-.13-.22-.27h0Z" style="fill:#009245;"/></g><g><path d="M265.33,122.31s4.76,8.21,14.08,1.33c-1.93-.77-3.45-2.57-6.08-3.74s-6.25-.47-8.01,2.41Z" style="fill:#00c735;"/><path d="M265.26,122.17c3.2-1.78,7.2-.75,10.1,1.12-3.16-1.44-6.66-2.05-9.98-.84-.17,.06-.28-.2-.12-.28h0Z" style="fill:#009245;"/></g><g><g><path d="M191.37,219.95s13.1,5.17,17.62-11.43c-2.96,.88-6.38,.19-10.52,1.25-4.13,1.06-7.71,5.21-7.1,10.18Z" style="fill:#00ae52;"/><path d="M191.17,219.85c2.08-5.02,7.69-7.51,12.8-8-5,1.23-9.65,3.77-12.4,8.21-.14,.23-.51,.03-.4-.21h0Z" style="fill:#009245;"/></g><g><path d="M190.35,213.33s-9.64-4.24-3.21-15.38c1.09,2.04,3.26,3.49,4.87,6.25,1.62,2.75,1.29,6.84-1.67,9.13Z" style="fill:#00ae52;"/><path d="M190.19,213.28c.91-3.8-.18-7.61-2.16-10.91,2.43,2.97,4.06,7.26,2.49,11.01-.07,.19-.37,.1-.33-.1h0Z" style="fill:#009245;"/></g><g><path d="M193.74,215.17s-6.16-8.55,5.04-14.88c-.09,2.31,1.04,4.66,1.03,7.86s-2.36,6.55-6.07,7.02Z" style="fill:#00ae52;"/><path d="M193.62,215.04c2.72-2.81,3.7-6.65,3.67-10.5,.59,3.79-.19,8.32-3.44,10.75-.16,.13-.37-.1-.23-.25h0Z" style="fill:#009245;"/></g><g><path d="M190.41,220.41s4.85,9.01,15.14,1.91c-2.06-.9-3.64-2.89-6.43-4.24-2.79-1.35-6.73-.72-8.72,2.32Z" style="fill:#00c735;"/><path d="M190.34,220.26c3.51-1.81,7.79-.57,10.86,1.56-3.35-1.66-7.12-2.43-10.74-1.25-.19,.06-.3-.22-.12-.31h0Z" style="fill:#009245;"/></g><g><path d="M191.44,217.45s10.1-1.68,6.7-13.72c-1.51,1.66-3.91,2.51-6.09,4.72-2.18,2.21-2.85,6.13-.61,9Z" style="fill:#00c735;"/><path d="M191.28,217.46c-.58-3.91,1.98-7.56,4.98-9.77-2.66,2.64-4.6,5.96-4.65,9.76,0,.2-.31,.21-.33,.02h0Z" style="fill:#009245;"/></g><g><path d="M191,220.93s-10.99,.52-10.15-12.89c1.97,1.4,4.67,1.75,7.47,3.58,2.79,1.82,4.39,5.8,2.69,9.32Z" style="fill:#00c735;"/><path d="M190.83,220.96c-.92-3.99-3.71-7.03-7.1-9.2,3.65,1.65,7.18,4.9,7.45,9.14,.02,.21-.3,.26-.35,.06h0Z" style="fill:#009245;"/></g></g><g><g><path d="M207.89,129.82s13.1,5.17,17.62-11.43c-2.96,.88-6.38,.19-10.52,1.25-4.13,1.06-7.71,5.21-7.1,10.18Z" style="fill:#00ae52;"/><path d="M207.69,129.71c2.08-5.02,7.69-7.51,12.8-8-5,1.23-9.65,3.77-12.4,8.21-.14,.23-.51,.03-.4-.21h0Z" style="fill:#009245;"/></g><g><path d="M206.87,123.2s-9.64-4.24-3.21-15.38c1.09,2.04,3.26,3.49,4.87,6.25,1.62,2.75,1.29,6.84-1.67,9.13Z" style="fill:#00ae52;"/><path d="M206.7,123.15c.91-3.8-.18-7.61-2.16-10.91,2.43,2.97,4.06,7.26,2.49,11.01-.07,.19-.37,.1-.32-.1h0Z" style="fill:#009245;"/></g><g><path d="M210.25,125.03s-6.16-8.55,5.04-14.88c-.09,2.31,1.04,4.66,1.03,7.86s-2.36,6.55-6.07,7.02Z" style="fill:#00ae52;"/><path d="M210.14,124.91c2.72-2.81,3.7-6.65,3.67-10.5,.59,3.79-.19,8.32-3.44,10.75-.16,.13-.37-.11-.23-.25h0Z" style="fill:#009245;"/></g><g><path d="M206.92,130.28s4.85,9.01,15.14,1.91c-2.06-.9-3.64-2.89-6.43-4.24-2.79-1.35-6.73-.72-8.72,2.32Z" style="fill:#00c735;"/><path d="M206.86,130.13c3.51-1.81,7.79-.57,10.86,1.56-3.35-1.66-7.12-2.43-10.74-1.25-.19,.06-.3-.22-.12-.31h0Z" style="fill:#009245;"/></g><g><path d="M207.96,127.32s10.1-1.68,6.7-13.72c-1.51,1.66-3.91,2.51-6.09,4.72-2.18,2.21-2.85,6.13-.61,9Z" style="fill:#00c735;"/><path d="M207.79,127.33c-.58-3.91,1.98-7.56,4.98-9.77-2.65,2.64-4.6,5.96-4.65,9.76,0,.2-.31,.21-.33,.02h0Z" style="fill:#009245;"/></g><g><path d="M207.51,130.8s-10.99,.52-10.15-12.89c1.97,1.4,4.67,1.75,7.47,3.58,2.79,1.82,4.39,5.8,2.69,9.32Z" style="fill:#00c735;"/><path d="M207.34,130.83c-.92-3.99-3.71-7.03-7.1-9.2,3.65,1.65,7.18,4.9,7.45,9.14,.02,.21-.3,.26-.35,.06h0Z" style="fill:#009245;"/></g></g><g><g><path d="M265.61,116.53s12.5-6.48,2.96-20.79c-1.28,2.81-4.05,4.94-5.97,8.75-1.92,3.81-1.14,9.24,3.01,12.04Z" style="fill:#00ae52;"/><path d="M265.4,116.61c-2.41-4.87-.61-10.73,2.38-14.9-2.36,4.58-3.5,9.75-1.95,14.74,.08,.26-.31,.41-.43,.16h0Z" style="fill:#009245;"/></g><g><path d="M259.95,112.95s-9.53,4.49-13.7-7.69c2.25,.52,4.78-.16,7.91,.43,3.14,.59,6.01,3.52,5.79,7.26Z" style="fill:#00ae52;"/><path d="M259.81,113.04c-2.27-3.19-5.86-4.86-9.65-5.54,3.83,.12,8.14,1.71,9.94,5.36,.09,.18-.17,.34-.29,.18h0Z" style="fill:#009245;"/></g><g><path d="M263.56,111.6s-10.49-.97-7.91-13.58c1.68,1.59,4.2,2.28,6.6,4.38s3.39,6.08,1.31,9.19Z" style="fill:#00ae52;"/><path d="M263.39,111.6c-.34-3.9-2.58-7.16-5.5-9.67,3.24,2.05,6.15,5.61,5.84,9.66,0,.2-.32,.21-.34,0h0Z" style="fill:#009245;"/></g><g><path d="M265.32,117.56s9.98,2.26,11.39-10.16c-2.03,.96-4.56,.85-7.42,2.06-2.85,1.22-4.96,4.6-3.97,8.1Z" style="fill:#00c735;"/><path d="M265.17,117.5c.94-3.84,4.69-6.25,8.31-7.16-3.45,1.43-6.51,3.78-7.99,7.27-.08,.18-.36,.08-.31-.11h0Z" style="fill:#009245;"/></g><g><path d="M263.77,114.83s5.36-8.72-5.94-14.06c.26,2.23-.67,4.59-.44,7.69,.23,3.09,2.75,6.18,6.38,6.37Z" style="fill:#00c735;"/><path d="M263.67,114.96c-3.33-2.13-4.4-6.46-4.1-10.17,.24,3.73,1.47,7.38,4.3,9.91,.15,.13-.04,.37-.2,.26h0Z" style="fill:#009245;"/></g><g><path d="M266.11,117.45s-6.83,8.63-16.39-.81c2.35-.56,4.39-2.37,7.6-3.28,3.21-.91,7.26,.5,8.79,4.09Z" style="fill:#00c735;"/><path d="M266.02,117.6c-3.61-1.93-7.74-1.82-11.6-.69,3.64-1.67,8.41-2.19,11.79,.39,.17,.12,0,.4-.19,.3h0Z" style="fill:#009245;"/></g></g><g><path d="M260.05,140.19s-13.29,2.73-14.64-14.72c2.64,1.43,6,1.38,9.72,3.21,3.72,1.83,6.37,6.65,4.92,11.51Z" style="fill:#00ae52;"/><path d="M259.83,140.25c-1.78-4.84-5.64-8.35-10.27-10.52,4.87,1.48,9.68,5.14,10.7,10.39,.06,.26-.34,.38-.43,.13h0Z" style="fill:#009245;"/></g><g><path d="M191.19,224.57s-11.1-.68-8.79-14.07c1.82,1.62,4.5,2.27,7.11,4.41,2.6,2.14,3.78,6.31,1.68,9.66Z" style="fill:#00ae52;"/><path d="M191.01,224.58c-.49-4.11-2.96-7.47-6.13-10.02,3.49,2.06,6.67,5.71,6.48,10,0,.21-.33,.23-.36,.02h0Z" style="fill:#009245;"/></g><g><path d="M207.12,132.66s8.54,10.51,20.17-1.27c-2.9-.66-5.44-2.85-9.41-3.91s-8.93,.73-10.76,5.18Z" style="fill:#00c735;"/><path d="M207.01,132.48c4.11-3.23,9.99-2.66,14.5-.67-4.78-1.33-9.85-1.39-14.27,1.04-.23,.12-.44-.22-.23-.37h0Z" style="fill:#009245;"/></g><g><g><path d="M179.95,181.06s11.21-8.52-.63-20.99c-.78,2.99-3.15,5.56-4.39,9.64-1.24,4.08,.46,9.3,5.02,11.35Z" style="fill:#00ae52;"/><path d="M179.76,181.18c-3.21-4.38-2.43-10.47-.2-15.09-1.09,3.7-1.68,7.56-.71,11.3,.31,1.22,.76,2.4,1.3,3.56,.12,.24-.24,.45-.39,.23h0Z" style="fill:#009245;"/></g><g><path d="M177.53,182.17s-7.12,7.76-15.59-1.92c2.28-.38,4.36-1.96,7.49-2.6,3.13-.64,6.89,.98,8.11,4.52Z" style="fill:#00ae52;"/><path d="M177.43,182.31c-3.31-2.09-7.26-2.28-11.03-1.47,3.59-1.34,8.18-1.5,11.23,1.19,.15,.13-.03,.38-.2,.28h0Z" style="fill:#009245;"/></g><g><path d="M178.13,179.79s5.45,8.66,15.24,.88c-2.11-.76-3.82-2.63-6.7-3.79-2.88-1.16-6.76-.26-8.54,2.91Z" style="fill:#00c735;"/><path d="M178.06,179.64c3.38-2.05,7.74-1.09,10.94,.81-3.46-1.43-7.27-1.94-10.8-.52-.18,.07-.31-.2-.14-.3h0Z" style="fill:#009245;"/></g><g><path d="M179.13,181s1.66-10.1-10.83-10.76c1.08,1.97,1.12,4.51,2.5,7.28,1.39,2.77,4.89,4.68,8.32,3.48Z" style="fill:#00c735;"/><path d="M179.08,181.16c-3.89-.71-6.52-4.31-7.65-7.86,1.64,3.36,4.16,6.27,7.74,7.54,.18,.07,.1,.36-.09,.32h0Z" style="fill:#009245;"/></g><g><path d="M182.31,179.64s1.68,10.87-11.75,11.46c1.18-2.1,1.25-4.83,2.77-7.8,1.52-2.97,5.3-4.98,8.98-3.66Z" style="fill:#00c735;"/><path d="M182.36,179.81c-3.87,1.34-6.6,4.43-8.4,8.03,1.25-3.81,4.12-7.66,8.3-8.37,.21-.04,.29,.27,.09,.34h0Z" style="fill:#009245;"/></g></g><g><path d="M203.89,135.65s-12.59-6.3-3.25-20.75c1.32,2.79,4.12,4.88,6.09,8.67,1.97,3.78,1.27,9.22-2.84,12.08Z" style="fill:#00ae52;"/><path d="M203.68,135.57c1.47-5.02,.26-10.17-2.16-14.71,3.04,4.13,4.93,9.97,2.59,14.87-.11,.25-.5,.1-.43-.15h0Z" style="fill:#009245;"/></g><g><path d="M191.16,170.82s-7.89,11.66-21,.51c2.94-.94,5.38-3.44,9.39-4.91s9.31-.05,11.61,4.39Z" style="fill:#00ae52;"/><path d="M191.05,171.03c-4.78-2.12-10.05-1.59-14.87,.22,4.49-2.48,10.53-3.59,15.08-.62,.23,.14,.04,.51-.21,.4h0Z" style="fill:#009245;"/></g><g><g><path d="M201.68,178.07s3.42-13.66-13.63-15.98c1.26,2.82,1.02,6.31,2.61,10.27,1.59,3.96,6.17,6.97,11.02,5.71Z" style="fill:#00ae52;"/><path d="M201.6,178.28c-5.25-1.41-8.45-6.65-9.6-11.65,1.87,4.8,4.99,9.07,9.76,11.22,.24,.11,.1,.5-.16,.43h0Z" style="fill:#009245;"/></g><g><path d="M195.25,179.94s-2.94,10.11-14.83,5.18c1.88-1.35,3.04-3.69,5.56-5.65s6.62-2.17,9.27,.46Z" style="fill:#00ae52;"/><path d="M195.22,180.11c-3.89-.41-7.52,1.17-10.54,3.57,2.63-2.8,6.67-4.97,10.59-3.9,.2,.05,.14,.35-.06,.34h0Z" style="fill:#009245;"/></g><g><path d="M196.62,176.35s-7.67,7.22-15.41-3.06c2.3-.21,4.49-1.63,7.66-2.04,3.17-.41,6.8,1.49,7.75,5.11Z" style="fill:#00ae52;"/><path d="M196.51,176.48c-3.14-2.33-7.08-2.81-10.89-2.27,3.68-1.08,8.27-.9,11.11,2.01,.14,.14-.06,.38-.22,.26h0Z" style="fill:#009245;"/></g><g><path d="M202.26,178.97s8.3-5.98-.08-15.26c-.62,2.16-2.39,3.98-3.36,6.93s.16,6.76,3.44,8.34Z" style="fill:#00c735;"/><path d="M202.11,179.05c-2.25-3.24-1.58-7.65,.13-10.97-1.21,3.54-1.48,7.38,.16,10.81,.08,.18-.18,.33-.29,.16h0Z" style="fill:#009245;"/></g><g><path d="M199.19,178.32s-2.98-9.79-14.47-4.85c1.84,1.29,3,3.55,5.47,5.42s6.45,2.03,9-.57Z" style="fill:#00c735;"/><path d="M199.22,178.49c-3.8,1.08-7.75-.98-10.34-3.66,2.96,2.29,6.51,3.78,10.28,3.34,.19-.02,.25,.28,.06,.32h0Z" style="fill:#009245;"/></g><g><path d="M202.7,178.31s1.95,10.83-11.46,11.75c1.13-2.13,1.13-4.86,2.57-7.87s5.18-5.11,8.89-3.88Z" style="fill:#00c735;"/><path d="M202.75,178.48c-3.84,1.43-6.49,4.59-8.2,8.24,1.16-3.84,3.93-7.76,8.09-8.58,.21-.05,.3,.27,.1,.34h0Z" style="fill:#009245;"/></g></g><g><path d="M258.16,206.84s13.1,5.17,17.62-11.43c-2.96,.88-6.38,.19-10.52,1.25-4.13,1.06-7.71,5.21-7.1,10.18Z" style="fill:#00ae52;"/><path d="M257.96,206.73c2.08-5.02,7.69-7.51,12.8-8-5,1.23-9.65,3.77-12.4,8.21-.14,.23-.51,.03-.4-.21h0Z" style="fill:#009245;"/></g><g><g><path d="M235.81,139.78s11.21-8.52-.63-20.99c-.78,2.99-3.15,5.56-4.39,9.64-1.24,4.08,.46,9.3,5.02,11.35Z" style="fill:#00ae52;"/><path d="M235.61,139.89c-3.21-4.38-2.43-10.47-.2-15.09-1.09,3.7-1.68,7.56-.71,11.3,.31,1.22,.76,2.4,1.3,3.56,.12,.24-.24,.45-.39,.23h0Z" style="fill:#009245;"/></g><g><path d="M233.38,140.88s-7.12,7.76-15.59-1.92c2.28-.38,4.36-1.96,7.49-2.6s6.89,.98,8.11,4.52Z" style="fill:#00ae52;"/><path d="M233.28,141.02c-3.31-2.09-7.26-2.28-11.03-1.47,3.59-1.34,8.18-1.5,11.23,1.19,.15,.13-.03,.38-.2,.28h0Z" style="fill:#009245;"/></g><g><path d="M233.99,138.5s5.45,8.66,15.24,.88c-2.11-.76-3.82-2.63-6.7-3.79s-6.76-.26-8.54,2.91Z" style="fill:#00c735;"/><path d="M233.92,138.35c3.38-2.05,7.74-1.09,10.94,.81-3.46-1.43-7.27-1.94-10.8-.52-.18,.07-.31-.2-.14-.3h0Z" style="fill:#009245;"/></g><g><path d="M234.99,139.71s1.66-10.1-10.83-10.76c1.08,1.97,1.12,4.51,2.5,7.28,1.39,2.77,4.89,4.68,8.32,3.48Z" style="fill:#00c735;"/><path d="M234.94,139.87c-3.89-.71-6.52-4.31-7.65-7.86,1.64,3.36,4.16,6.27,7.74,7.54,.18,.07,.1,.36-.09,.32h0Z" style="fill:#009245;"/></g><g><path d="M238.17,138.35s1.68,10.87-11.75,11.46c1.18-2.1,1.25-4.83,2.77-7.8,1.52-2.97,5.3-4.98,8.98-3.66Z" style="fill:#00c735;"/><path d="M238.21,138.52c-3.87,1.34-6.6,4.43-8.4,8.03,1.25-3.81,4.12-7.66,8.3-8.37,.21-.04,.29,.27,.09,.34h0Z" style="fill:#009245;"/></g></g><g><path d="M234.28,149.11s-6.58-8.23,4.29-15.11c.02,2.31,1.27,4.61,1.42,7.8,.15,3.19-2.03,6.66-5.71,7.32Z" style="fill:#00ae52;"/><path d="M234.16,148.99c2.57-2.95,3.37-6.83,3.14-10.67,.78,3.76,.23,8.32-2.9,10.91-.15,.13-.37-.09-.24-.24h0Z" style="fill:#009245;"/></g><g><path d="M257.28,207.65s4.85,9.01,15.14,1.91c-2.06-.9-3.64-2.89-6.43-4.24-2.79-1.35-6.73-.72-8.72,2.32Z" style="fill:#00c735;"/><path d="M257.22,207.49c3.51-1.81,7.79-.57,10.86,1.56-3.35-1.66-7.12-2.43-10.74-1.25-.19,.06-.3-.22-.12-.31h0Z" style="fill:#009245;"/></g><g><path d="M205.52,135.48s-7.22,7.67-15.57-2.12c2.28-.35,4.38-1.9,7.52-2.51,3.14-.6,6.88,1.07,8.05,4.63Z" style="fill:#00ae52;"/><path d="M205.42,135.62c-3.28-2.13-7.23-2.37-11.01-1.61,3.61-1.3,8.2-1.4,11.21,1.33,.15,.13-.03,.38-.2,.27h0Z" style="fill:#009245;"/></g><g><path d="M208.38,132.9s-10.11,2.95-12.34-9.73c2.14,.86,4.74,.58,7.75,1.66,3.01,1.07,5.39,4.41,4.59,8.07Z" style="fill:#00ae52;"/><path d="M208.22,132.97c-1.74-3.5-5.03-5.71-8.67-6.97,3.77,.71,7.78,2.96,8.98,6.84,.07,.19-.22,.31-.31,.13h0Z" style="fill:#009245;"/></g><g><path d="M209.77,135.83s1.79-10.08-10.69-10.9c1.06,1.98,1.06,4.52,2.41,7.31,1.35,2.79,4.83,4.74,8.28,3.59Z" style="fill:#00c735;"/><path d="M209.72,135.99c-3.88-.76-6.46-4.39-7.55-7.96,1.6,3.38,4.08,6.33,7.64,7.64,.18,.07,.1,.36-.1,.32h0Z" style="fill:#009245;"/></g><g><path d="M209.9,135.84s-3.18,10.53-15.55,5.26c1.98-1.39,3.21-3.82,5.87-5.84,2.65-2.02,6.93-2.2,9.68,.58Z" style="fill:#00c735;"/><path d="M209.87,136.02c-4.07-.47-7.86,1.15-11.04,3.62,2.77-2.89,7.02-5.13,11.11-3.97,.21,.05,.15,.37-.06,.35h0Z" style="fill:#009245;"/></g><g><path d="M153.87,221.35s-10.65,8.69-19.78-5.4c3.02-.06,6-1.71,10.15-1.96,4.16-.24,8.72,2.56,9.62,7.36Z" style="fill:#00ae52;"/><path d="M153.72,221.51c-3.88-3.32-8.95-4.3-13.97-3.96,4.89-1.06,10.85-.41,14.27,3.64,.18,.2-.11,.49-.31,.32h0Z" style="fill:#009245;"/></g><g><path d="M156.31,221.99s-9.15-10.26,4.53-20c.19,3.01,1.98,5.91,2.4,10.06s-2.17,8.82-6.93,9.94Z" style="fill:#00ae52;"/><path d="M156.14,221.84c3.14-4.02,3.91-9.13,3.34-14.13,1.28,4.84,.88,10.82-3.01,14.42-.19,.18-.49-.09-.33-.29h0Z" style="fill:#009245;"/></g><g><path d="M155.86,224.07s7.46-11.08-7-18.65c.21,2.92-1.12,5.95-.99,10,.14,4.05,3.26,8.21,7.98,8.65Z" style="fill:#00c735;"/><path d="M155.72,224.23c-4.23-2.95-5.39-8.66-4.8-13.48,.12,4.88,1.52,9.69,5.08,13.16,.18,.18-.08,.48-.28,.33h0Z" style="fill:#009245;"/></g><g><path d="M156.3,223.26s.47,13.54-16.03,12.3c1.75-2.4,2.23-5.73,4.52-9.14,2.29-3.41,7.21-5.32,11.51-3.16Z" style="fill:#00c735;"/><path d="M156.33,223.47c-4.92,1.08-8.71,4.45-11.43,8.6,2.09-4.47,6.15-8.77,11.37-9.03,.26-.02,.32,.38,.07,.43h0Z" style="fill:#009245;"/></g><g><path d="M190.53,224.23s7.5,8.05,16.27-2.13c-2.38-.37-4.57-2.01-7.84-2.66-3.27-.65-7.19,1.08-8.43,4.79Z" style="fill:#00c735;"/><path d="M190.42,224.08c3.16-2.84,7.95-2.71,11.72-1.33-3.94-.82-8.06-.59-11.51,1.62-.18,.11-.37-.15-.21-.29h0Z" style="fill:#009245;"/></g><g><g><path d="M187,167.65s11.28-8.43-.48-21c-.8,2.98-3.19,5.54-4.46,9.61-1.27,4.07,.39,9.3,4.94,11.39Z" style="fill:#00ae52;"/><path d="M186.8,167.77c-3.18-4.41-2.36-10.49-.09-15.09-1.11,3.69-1.74,7.55-.79,11.3,.3,1.22,.74,2.4,1.27,3.57,.12,.24-.24,.45-.39,.23h0Z" style="fill:#009245;"/></g><g><path d="M180.83,165.05s-8.67,5.98-14.77-5.34c2.31,.14,4.68-.94,7.88-.87s6.5,2.49,6.9,6.21Z" style="fill:#00ae52;"/><path d="M180.7,165.16c-2.76-2.77-6.57-3.84-10.42-3.89,3.8-.51,8.31,.36,10.68,3.66,.12,.16-.11,.37-.26,.22h0Z" style="fill:#009245;"/></g><g><path d="M184.16,163.13s-10.51,.76-10.02-12.1c1.92,1.29,4.51,1.57,7.23,3.25s4.34,5.45,2.79,8.86Z" style="fill:#00ae52;"/><path d="M184,163.16c-.97-3.79-3.72-6.64-7.01-8.64,3.53,1.49,6.98,4.53,7.34,8.58,.02,.2-.28,.26-.33,.06h0Z" style="fill:#009245;"/></g><g><path d="M186.88,168.72s10.22,.6,9.58-11.89c-1.84,1.28-4.37,1.58-6.98,3.25-2.62,1.67-4.15,5.35-2.6,8.64Z" style="fill:#00c735;"/><path d="M186.72,168.69c.3-3.94,3.61-6.93,7.02-8.42-3.17,1.98-5.81,4.79-6.7,8.48-.05,.19-.35,.14-.33-.06h0Z" style="fill:#009245;"/></g><g><path d="M184.9,166.28s3.87-9.48-8.16-12.9c.62,2.16,.09,4.64,.82,7.66,.73,3.01,3.72,5.65,7.34,5.25Z" style="fill:#00c735;"/><path d="M184.82,166.43c-3.63-1.56-5.4-5.65-5.71-9.37,.85,3.64,2.66,7.04,5.87,9.08,.16,.11,.02,.37-.16,.29h0Z" style="fill:#009245;"/></g><g><path d="M187.64,168.48s-5.32,9.63-16.3,1.87c2.22-.94,3.94-3.06,6.96-4.48,3.02-1.42,7.24-.69,9.34,2.6Z" style="fill:#00c735;"/><path d="M187.57,168.65c-3.88-1.31-7.93-.53-11.56,1.21,3.32-2.24,7.94-3.54,11.69-1.54,.19,.09,.07,.4-.13,.33h0Z" style="fill:#009245;"/></g></g><g><g><path d="M341.08,136.21s14.08-.2,11.95-17.27c-2.4,1.94-5.83,2.61-9.25,5.15-3.42,2.55-5.15,7.75-2.7,12.11Z" style="fill:#00ae52;"/><path d="M340.85,136.19c.02-5.43,4.26-9.87,8.8-12.26-4.16,3.03-7.49,7.15-8.35,12.31-.05,.27-.46,.22-.45-.05h0Z" style="fill:#009245;"/></g><g><path d="M337.62,130.47s-10.53-.25-8.81-13.01c1.78,1.47,4.34,1.99,6.88,3.93,2.54,1.93,3.8,5.84,1.93,9.08Z" style="fill:#00ae52;"/><path d="M337.45,130.49c-.6-3.86-3.06-6.97-6.15-9.27,3.38,1.82,6.51,5.17,6.49,9.24,0,.2-.31,.23-.34,.03h0Z" style="fill:#009245;"/></g><g><path d="M341.45,130.88s-8.94-5.56-.99-15.68c.79,2.17,2.73,3.92,3.94,6.88,1.21,2.95,.31,6.96-2.95,8.8Z" style="fill:#00ae52;"/><path d="M341.29,130.81c1.44-3.63,.9-7.56-.59-11.11,1.98,3.28,2.99,7.76,.9,11.25-.1,.18-.38,.04-.31-.14h0Z" style="fill:#009245;"/></g><g><path d="M340.36,137s7.91,6.49,14.73-3.99c-2.24-.05-4.46-1.29-7.56-1.48-3.1-.19-6.5,1.89-7.18,5.46Z" style="fill:#00c735;"/><path d="M340.24,136.88c2.56-3.01,6.99-3.49,10.63-2.69-3.73-.26-7.51,.46-10.41,2.92-.15,.13-.36-.09-.23-.24h0Z" style="fill:#009245;"/></g><g><path d="M340.19,133.87s8.7-5.39,.98-15.23c-.77,2.11-2.66,3.81-3.84,6.68-1.18,2.87-.31,6.76,2.85,8.56Z" style="fill:#00c735;"/><path d="M340.04,133.94c-2.02-3.39-1.04-7.74,.89-10.93-1.45,3.45-1.99,7.26-.59,10.79,.07,.18-.2,.31-.3,.14h0Z" style="fill:#009245;"/></g><g><path d="M341.11,137.25s-9.97,4.66-14.29-8.07c2.35,.55,4.99-.16,8.26,.47s6.27,3.69,6.03,7.6Z" style="fill:#00c735;"/><path d="M340.96,137.35c-2.37-3.34-6.1-5.09-10.06-5.81,4,.14,8.5,1.81,10.37,5.62,.1,.19-.18,.36-.3,.19h0Z" style="fill:#009245;"/></g></g><g><g><path d="M291.8,217.41s13.47-4.11,6.67-19.92c-1.77,2.53-4.88,4.13-7.45,7.53s-2.79,8.88,.78,12.39Z" style="fill:#00ae52;"/><path d="M291.58,217.45c-1.5-5.22,1.34-10.67,5.03-14.23-2.3,3.1-4.19,6.51-4.57,10.36-.13,1.25-.12,2.51-.01,3.79,.03,.27-.38,.34-.45,.08h0Z" style="fill:#009245;"/></g><g><path d="M286.88,212.86s-10.18,2.69-12.09-10.04c2.12,.92,4.73,.7,7.7,1.85,2.98,1.15,5.27,4.55,4.38,8.18Z" style="fill:#00ae52;"/><path d="M286.72,212.93c-1.65-3.54-4.88-5.84-8.49-7.19,3.75,.81,7.7,3.15,8.81,7.07,.06,.19-.23,.31-.32,.12h0Z" style="fill:#009245;"/></g><g><path d="M290.67,212.19s-10.14-2.85-5.32-14.78c1.36,1.87,3.72,3,5.7,5.51,1.98,2.5,2.23,6.59-.38,9.28Z" style="fill:#00ae52;"/><path d="M290.5,212.16c.37-3.89-1.24-7.51-3.67-10.5,2.82,2.6,5.03,6.62,4,10.56-.05,.2-.35,.15-.34-.05h0Z" style="fill:#009245;"/></g><g><path d="M291.33,218.37s9.41,4.03,13.04-7.93c-2.17,.58-4.64,0-7.67,.69-3.03,.68-5.71,3.62-5.37,7.25Z" style="fill:#00c735;"/><path d="M291.19,218.29c1.62-3.6,5.75-5.3,9.46-5.54-3.66,.79-7.09,2.54-9.18,5.71-.11,.16-.37,.01-.29-.16h0Z" style="fill:#009245;"/></g><g><path d="M290.3,215.41s6.85-7.6-3.3-14.9c-.15,2.24-1.49,4.4-1.82,7.48s1.59,6.58,5.13,7.42Z" style="fill:#00c735;"/><path d="M290.17,215.51c-2.89-2.69-3.16-7.15-2.19-10.75-.44,3.72,.11,7.53,2.44,10.53,.12,.16-.11,.36-.25,.22h0Z" style="fill:#009245;"/></g><g><path d="M292.12,218.4s-8.27,7.25-15.97-3.76c2.41-.13,4.75-1.54,8.07-1.85,3.32-.31,7.05,1.8,7.91,5.62Z" style="fill:#00c735;"/><path d="M292,218.54c-3.21-2.55-7.28-3.19-11.28-2.78,3.88-.99,8.67-.63,11.52,2.51,.15,.15-.07,.39-.24,.26h0Z" style="fill:#009245;"/></g></g><g><g><path d="M230.26,224.31s8.64-11.12-6.02-20.12c.01,3.09-1.61,6.18-1.76,10.45-.15,4.26,2.83,8.87,7.77,9.67Z" style="fill:#00ae52;"/><path d="M230.1,224.47c-4.23-3.41-5.05-9.49-4.08-14.53-.23,5.14,.91,10.32,4.4,14.21,.18,.2-.11,.5-.32,.32h0Z" style="fill:#009245;"/></g><g><path d="M223.62,223.43s-6.78,8.07-15.66-1.24c2.26-.47,4.27-2.15,7.37-2.92,3.1-.78,6.93,.68,8.3,4.17Z" style="fill:#00ae52;"/><path d="M223.52,223.57c-3.39-1.94-7.36-1.96-11.08-.99,3.53-1.5,8.11-1.85,11.27,.7,.16,.12-.01,.38-.19,.28h0Z" style="fill:#009245;"/></g><g><path d="M226.33,220.69s-9.93,3.51-12.86-9.02c2.19,.74,4.77,.32,7.83,1.22,3.06,.9,5.62,4.1,5.03,7.8Z" style="fill:#00ae52;"/><path d="M226.17,220.77c-1.94-3.4-5.34-5.42-9.05-6.48,3.8,.5,7.93,2.52,9.35,6.33,.08,.19-.2,.32-.31,.15h0Z" style="fill:#009245;"/></g><g><path d="M230.42,225.37s10.01-2.12,6.09-14c-1.44,1.72-3.79,2.68-5.87,4.98-2.08,2.3-2.58,6.25-.22,9.02Z" style="fill:#00c735;"/><path d="M230.26,225.38c-.75-3.88,1.65-7.64,4.54-9.98-2.54,2.75-4.33,6.15-4.22,9.95,0,.2-.3,.22-.33,.03h0Z" style="fill:#009245;"/></g><g><path d="M227.87,223.54s1.22-10.16-11.28-10.28c1.17,1.92,1.31,4.45,2.82,7.17,1.51,2.71,5.09,4.46,8.46,3.12Z" style="fill:#00c735;"/><path d="M227.84,223.7c-3.91-.54-6.7-4.02-7.98-7.52,1.78,3.29,4.43,6.09,8.06,7.2,.19,.06,.12,.35-.08,.32h0Z" style="fill:#009245;"/></g><g><path d="M231.09,224.94s-2.59,10.7-15.23,6.12c1.89-1.5,2.99-3.99,5.53-6.16s6.8-2.59,9.7,.04Z" style="fill:#00c735;"/><path d="M231.07,225.12c-4.09-.24-7.79,1.59-10.82,4.23,2.61-3.04,6.72-5.51,10.87-4.58,.21,.04,.17,.36-.04,.35h0Z" style="fill:#009245;"/></g></g><g><g><path d="M341.26,216.63s-4.77,13.25,11.95,17.27c-.97-2.93-.38-6.38-1.57-10.48-1.18-4.1-5.44-7.55-10.39-6.79Z" style="fill:#00ae52;"/><path d="M341.36,216.43c5.08,1.93,7.74,7.46,8.38,12.55-1.38-4.96-4.06-9.53-8.58-12.14-.23-.14-.05-.51,.2-.41h0Z" style="fill:#009245;"/></g><g><path d="M347.85,215.41s3.94-9.77,15.28-3.67c-2,1.15-3.39,3.36-6.1,5.06s-6.8,1.5-9.18-1.39Z" style="fill:#00ae52;"/><path d="M347.89,215.25c3.83,.8,7.6-.41,10.84-2.49-2.89,2.52-7.14,4.28-10.93,2.82-.19-.07-.11-.37,.09-.33h0Z" style="fill:#009245;"/></g><g><path d="M346.12,218.85s8.36-6.41,15.02,4.59c-2.31-.03-4.63,1.18-7.82,1.27-3.19,.09-6.62-2.16-7.2-5.86Z" style="fill:#00ae52;"/><path d="M346.24,218.73c2.89,2.63,6.76,3.5,10.61,3.36-3.77,.7-8.32,.06-10.85-3.12-.13-.15,.09-.37,.24-.24h0Z" style="fill:#009245;"/></g><g><path d="M340.77,215.68s-8.86,5.12-1.46,15.19c.84-2.08,2.78-3.72,4.04-6.55,1.27-2.83,.52-6.75-2.59-8.64Z" style="fill:#00c735;"/><path d="M340.93,215.61c1.91,3.45,.8,7.77-1.23,10.9,1.56-3.4,2.21-7.19,.93-10.77-.07-.18,.21-.31,.3-.13h0Z" style="fill:#009245;"/></g><g><path d="M343.76,216.63s1.99,10.04,13.91,6.28c-1.7-1.46-2.63-3.83-4.9-5.94-2.27-2.11-6.22-2.67-9.01-.34Z" style="fill:#00c735;"/><path d="M343.75,216.46c3.89-.7,7.62,1.75,9.92,4.68-2.71-2.57-6.09-4.42-9.89-4.35-.2,0-.22-.3-.03-.33h0Z" style="fill:#009245;"/></g><g><path d="M340.27,216.29s-.85-10.97,12.58-10.54c-1.34,2.01-1.61,4.72-3.35,7.57-1.74,2.85-5.66,4.56-9.23,2.97Z" style="fill:#00c735;"/><path d="M340.24,216.12c3.96-1.04,6.91-3.92,8.98-7.37-1.54,3.7-4.68,7.32-8.91,7.72-.21,.03-.27-.29-.07-.35h0Z" style="fill:#009245;"/></g></g><g><g><path d="M152.04,211.6s11.28-8.43-.48-21c-.8,2.98-3.19,5.54-4.46,9.61-1.27,4.07,.39,9.3,4.94,11.39Z" style="fill:#00ae52;"/><path d="M151.85,211.71c-3.18-4.41-2.36-10.49-.09-15.09-1.11,3.69-1.74,7.55-.79,11.3,.3,1.22,.74,2.4,1.27,3.57,.12,.24-.24,.45-.39,.23h0Z" style="fill:#009245;"/></g><g><path d="M145.87,208.99s-8.67,5.98-14.77-5.34c2.31,.14,4.68-.94,7.88-.87,3.19,.07,6.5,2.49,6.9,6.21Z" style="fill:#00ae52;"/><path d="M145.75,209.1c-2.76-2.77-6.57-3.84-10.42-3.89,3.8-.51,8.31,.36,10.68,3.66,.12,.16-.11,.37-.26,.22h0Z" style="fill:#009245;"/></g><g><path d="M149.21,207.07s-10.51,.76-10.02-12.1c1.92,1.29,4.51,1.57,7.23,3.25,2.71,1.68,4.34,5.45,2.79,8.86Z" style="fill:#00ae52;"/><path d="M149.04,207.1c-.97-3.79-3.72-6.64-7.01-8.64,3.53,1.49,6.98,4.53,7.34,8.58,.02,.2-.28,.26-.33,.06h0Z" style="fill:#009245;"/></g><g><path d="M151.93,212.66s10.22,.6,9.58-11.89c-1.84,1.28-4.37,1.58-6.98,3.25-2.62,1.67-4.15,5.35-2.6,8.64Z" style="fill:#00c735;"/><path d="M151.76,212.63c.3-3.94,3.61-6.93,7.02-8.42-3.17,1.98-5.81,4.79-6.7,8.48-.05,.19-.35,.14-.33-.06h0Z" style="fill:#009245;"/></g><g><path d="M149.95,210.22s3.87-9.48-8.16-12.9c.62,2.16,.09,4.64,.82,7.66s3.72,5.65,7.34,5.25Z" style="fill:#00c735;"/><path d="M149.87,210.37c-3.63-1.56-5.39-5.65-5.71-9.37,.85,3.64,2.66,7.04,5.87,9.08,.16,.11,.02,.37-.16,.29h0Z" style="fill:#009245;"/></g><g><path d="M152.68,212.43s-5.32,9.63-16.3,1.87c2.22-.94,3.94-3.06,6.96-4.48,3.02-1.42,7.24-.69,9.34,2.6Z" style="fill:#00c735;"/><path d="M152.61,212.59c-3.88-1.31-7.93-.53-11.56,1.21,3.32-2.24,7.94-3.54,11.69-1.54,.19,.09,.07,.4-.13,.33h0Z" style="fill:#009245;"/></g></g><g><g><path d="M153.56,261.15s13.25-4.77,5.68-20.22c-1.64,2.62-4.67,4.36-7.07,7.89-2.41,3.52-2.35,9.01,1.39,12.33Z" style="fill:#00ae52;"/><path d="M153.34,261.21c-1.75-5.15,.82-10.72,4.33-14.46-2.15,3.2-3.87,6.71-4.06,10.57-.07,1.25,0,2.51,.17,3.78,.04,.27-.36,.36-.44,.1h0Z" style="fill:#009245;"/></g><g><path d="M148.42,256.86s-10.04,3.19-12.56-9.43c2.16,.81,4.76,.47,7.79,1.47,3.03,1,5.49,4.28,4.78,7.96Z" style="fill:#00ae52;"/><path d="M148.27,256.93c-1.83-3.46-5.16-5.59-8.83-6.77,3.78,.63,7.84,2.77,9.14,6.63,.07,.19-.21,.32-.31,.14h0Z" style="fill:#009245;"/></g><g><path d="M152.17,256s-10.27-2.35-6.04-14.5c1.45,1.8,3.86,2.82,5.96,5.22,2.1,2.4,2.56,6.48,.08,9.28Z" style="fill:#00ae52;"/><path d="M152,255.98c.18-3.91-1.61-7.44-4.18-10.31,2.94,2.46,5.35,6.37,4.51,10.35-.04,.2-.35,.16-.34-.04h0Z" style="fill:#009245;"/></g><g><path d="M153.14,262.14s9.59,3.56,12.64-8.56c-2.14,.68-4.64,.23-7.63,1.06-2.99,.83-5.53,3.9-5.01,7.5Z" style="fill:#00c735;"/><path d="M152.99,262.06c1.44-3.68,5.48-5.57,9.18-6-3.61,.96-6.95,2.88-8.89,6.15-.1,.17-.37,.03-.29-.15h0Z" style="fill:#009245;"/></g><g><path d="M151.96,259.23s6.47-7.93-4.03-14.72c-.04,2.24-1.27,4.46-1.45,7.56s1.91,6.49,5.48,7.16Z" style="fill:#00c735;"/><path d="M151.84,259.34c-3.02-2.55-3.51-6.98-2.72-10.63-.25,3.73,.48,7.51,2.95,10.4,.13,.15-.09,.36-.24,.23h0Z" style="fill:#009245;"/></g><g><path d="M153.93,262.13s-7.91,7.65-16.14-2.98c2.4-.25,4.67-1.77,7.97-2.25,3.3-.47,7.13,1.45,8.17,5.22Z" style="fill:#00c735;"/><path d="M153.81,262.27c-3.33-2.39-7.43-2.83-11.41-2.22,3.83-1.17,8.63-1.06,11.63,1.94,.15,.14-.05,.4-.22,.27h0Z" style="fill:#009245;"/></g></g><g><g><path d="M157.48,267.32s-.28-14.08-17.34-11.86c1.95,2.39,2.64,5.82,5.21,9.23,2.57,3.41,7.78,5.11,12.13,2.63Z" style="fill:#00ae52;"/><path d="M157.46,267.54c-5.43,.01-9.9-4.2-12.31-8.73,3.06,4.14,7.2,7.45,12.36,8.28,.27,.04,.23,.46-.04,.45h0Z" style="fill:#009245;"/></g><g><path d="M151.77,270.81s-.19,10.53-12.96,8.88c1.46-1.79,1.97-4.35,3.89-6.91,1.92-2.55,5.82-3.83,9.07-1.98Z" style="fill:#00ae52;"/><path d="M151.78,270.98c-3.86,.62-6.95,3.1-9.24,6.2,1.8-3.39,5.14-6.54,9.2-6.54,.2,0,.23,.3,.03,.34h0Z" style="fill:#009245;"/></g><g><path d="M152.15,266.98s-5.51,8.98-15.67,1.08c2.17-.8,3.91-2.75,6.85-3.98s6.95-.35,8.82,2.9Z" style="fill:#00ae52;"/><path d="M152.08,267.13c-3.64-1.42-7.56-.86-11.11,.66,3.27-2,7.75-3.03,11.25-.96,.18,.1,.05,.38-.14,.31h0Z" style="fill:#009245;"/></g><g><path d="M158.28,268.03s6.45-7.95-4.07-14.71c-.04,2.24-1.26,4.47-1.43,7.56-.17,3.1,1.93,6.49,5.5,7.15Z" style="fill:#00c735;"/><path d="M158.16,268.15c-3.02-2.54-3.53-6.97-2.75-10.62-.24,3.73,.5,7.51,2.98,10.39,.13,.15-.09,.36-.24,.23h0Z" style="fill:#009245;"/></g><g><path d="M155.15,268.22s-5.44-8.67-15.24-.89c2.11,.76,3.82,2.64,6.7,3.8,2.88,1.16,6.76,.27,8.54-2.9Z" style="fill:#00c735;"/><path d="M155.22,268.36c-3.38,2.04-7.74,1.09-10.94-.83,3.46,1.43,7.27,1.95,10.8,.53,.18-.07,.31,.2,.14,.3h0Z" style="fill:#009245;"/></g><g><path d="M158.53,267.28s4.72,9.94-7.99,14.34c.53-2.35-.18-4.99,.42-8.27,.61-3.28,3.66-6.29,7.56-6.07Z" style="fill:#00c735;"/><path d="M158.62,267.43c-3.33,2.39-5.06,6.13-5.75,10.1,.11-4.01,1.76-8.51,5.56-10.4,.19-.1,.36,.18,.19,.3h0Z" style="fill:#009245;"/></g></g><g><g><path d="M178.29,133.95s7.9-11.66-7.32-19.68c.22,3.08-1.2,6.27-1.07,10.54,.13,4.27,3.41,8.66,8.39,9.15Z" style="fill:#00ae52;"/><path d="M178.14,134.12c-4.45-3.13-5.66-9.14-5.02-14.23,.11,5.15,1.58,10.24,5.32,13.89,.19,.19-.08,.51-.3,.34h0Z" style="fill:#009245;"/></g><g><path d="M171.61,133.5s-6.23,8.49-15.71-.22c2.23-.62,4.12-2.42,7.16-3.4s6.96,.23,8.55,3.62Z" style="fill:#00ae52;"/><path d="M171.53,133.65c-3.51-1.72-7.47-1.48-11.12-.26,3.43-1.73,7.97-2.38,11.29-.03,.17,.11,.01,.38-.17,.3h0Z" style="fill:#009245;"/></g><g><path d="M174.14,130.6s-9.68,4.15-13.43-8.16c2.23,.59,4.78,0,7.89,.7s5.88,3.73,5.53,7.46Z" style="fill:#00ae52;"/><path d="M173.99,130.68c-2.15-3.26-5.69-5.06-9.45-5.87,3.83,.25,8.08,1.99,9.74,5.7,.09,.18-.18,.34-.29,.17h0Z" style="fill:#009245;"/></g><g><path d="M178.53,134.99s9.85-2.77,5.16-14.36c-1.32,1.81-3.61,2.92-5.53,5.35-1.93,2.43-2.17,6.41,.37,9.01Z" style="fill:#00c735;"/><path d="M178.37,135.02c-1-3.82,1.14-7.73,3.88-10.26-2.35,2.91-3.92,6.42-3.56,10.21,.02,.2-.28,.24-.33,.05h0Z" style="fill:#009245;"/></g><g><path d="M175.87,133.34s.55-10.22-11.93-9.52c1.29,1.84,1.6,4.36,3.28,6.97,1.68,2.61,5.37,4.12,8.65,2.56Z" style="fill:#00c735;"/><path d="M175.84,133.5c-3.94-.28-6.95-3.58-8.46-6.98,1.99,3.16,4.82,5.78,8.51,6.66,.19,.05,.14,.35-.06,.33h0Z" style="fill:#009245;"/></g><g><path d="M179.17,134.52s-1.88,10.84-14.79,7.1c1.79-1.62,2.73-4.18,5.11-6.51,2.39-2.33,6.61-3.02,9.68-.6Z" style="fill:#00c735;"/><path d="M179.16,134.7c-4.09,.03-7.67,2.09-10.52,4.93,2.4-3.21,6.35-5.94,10.54-5.28,.21,.03,.19,.35-.02,.35h0Z" style="fill:#009245;"/></g></g><g><g><path d="M263.9,191.94s13.1,5.17,17.62-11.43c-2.96,.88-6.38,.19-10.52,1.25-4.13,1.06-7.71,5.21-7.1,10.18Z" style="fill:#00ae52;"/><path d="M263.7,191.84c2.08-5.02,7.69-7.51,12.8-8-5,1.23-9.65,3.77-12.4,8.21-.14,.23-.51,.03-.4-.21h0Z" style="fill:#009245;"/></g><g><path d="M262.88,185.32s-9.64-4.24-3.21-15.38c1.09,2.04,3.26,3.49,4.87,6.25,1.62,2.75,1.29,6.84-1.67,9.13Z" style="fill:#00ae52;"/><path d="M262.72,185.27c.91-3.8-.18-7.61-2.16-10.91,2.43,2.97,4.06,7.26,2.49,11.01-.07,.19-.37,.1-.32-.1h0Z" style="fill:#009245;"/></g><g><path d="M266.27,187.16s-6.16-8.55,5.04-14.88c-.09,2.31,1.04,4.66,1.03,7.86,0,3.19-2.36,6.55-6.07,7.02Z" style="fill:#00ae52;"/><path d="M266.15,187.03c2.72-2.81,3.7-6.65,3.67-10.5,.59,3.79-.19,8.32-3.44,10.75-.16,.13-.37-.1-.23-.25h0Z" style="fill:#009245;"/></g><g><path d="M262.94,192.4s4.85,9.01,15.14,1.91c-2.06-.9-3.64-2.89-6.43-4.24-2.79-1.35-6.73-.72-8.72,2.32Z" style="fill:#00c735;"/><path d="M262.88,192.25c3.51-1.81,7.79-.57,10.86,1.56-3.35-1.66-7.12-2.43-10.74-1.25-.19,.06-.3-.22-.12-.31h0Z" style="fill:#009245;"/></g><g><path d="M263.97,189.44s10.1-1.68,6.7-13.72c-1.51,1.66-3.91,2.51-6.09,4.72-2.18,2.21-2.85,6.13-.61,9Z" style="fill:#00c735;"/><path d="M263.81,189.45c-.58-3.91,1.98-7.56,4.98-9.77-2.65,2.64-4.6,5.96-4.65,9.76,0,.2-.31,.21-.33,.02h0Z" style="fill:#009245;"/></g><g><path d="M263.53,192.92s-10.99,.52-10.15-12.89c1.97,1.4,4.67,1.75,7.47,3.58s4.39,5.8,2.69,9.32Z" style="fill:#00c735;"/><path d="M263.36,192.95c-.92-3.99-3.71-7.03-7.1-9.2,3.65,1.65,7.18,4.9,7.45,9.14,.02,.21-.3,.26-.35,.06h0Z" style="fill:#009245;"/></g></g><g><path d="M286.59,169.17s4.76,8.21,14.08,1.33c-1.93-.77-3.45-2.57-6.08-3.74-2.63-1.17-6.25-.47-8.01,2.41Z" style="fill:#00c735;"/><path d="M286.53,169.03c3.2-1.78,7.2-.75,10.1,1.12-3.16-1.44-6.66-2.05-9.98-.84-.17,.06-.28-.2-.12-.28h0Z" style="fill:#009245;"/></g><g><path d="M259.59,151.89s8.54,10.51,20.17-1.27c-2.9-.66-5.44-2.85-9.41-3.91s-8.93,.73-10.76,5.18Z" style="fill:#00c735;"/><path d="M259.48,151.71c4.11-3.23,9.99-2.66,14.5-.67-4.78-1.33-9.85-1.39-14.27,1.04-.23,.12-.44-.22-.23-.37h0Z" style="fill:#009245;"/></g><g><path d="M262.95,141.11s12.59,5.26,16.94-11.63c-2.85,.9-6.14,.2-10.12,1.27-3.98,1.08-7.42,5.3-6.83,10.36Z" style="fill:#00ae52;"/><path d="M262.75,141.01c1.91-4.97,7.29-7.64,12.31-8.15-4.91,1.24-9.33,3.94-11.91,8.35-.14,.23-.51,.04-.4-.2h0Z" style="fill:#009245;"/></g><g><path d="M295.11,220.33s13.1,5.17,17.62-11.43c-2.96,.88-6.38,.19-10.52,1.25-4.13,1.06-7.71,5.21-7.1,10.18Z" style="fill:#00ae52;"/><path d="M294.91,220.22c2.08-5.02,7.69-7.51,12.8-8-5,1.23-9.65,3.77-12.4,8.21-.14,.23-.51,.03-.4-.21h0Z" style="fill:#009245;"/></g><g><path d="M296.22,222.1s8.54,10.51,20.17-1.27c-2.9-.66-5.44-2.85-9.41-3.91-3.97-1.06-8.93,.73-10.76,5.18Z" style="fill:#00c735;"/><path d="M296.11,221.92c4.11-3.23,9.99-2.66,14.5-.67-4.78-1.33-9.85-1.39-14.27,1.04-.23,.12-.44-.22-.23-.37h0Z" style="fill:#009245;"/></g><g><path d="M312.05,202.96s-13.78-2.88-8.44-19.23c1.99,2.36,5.23,3.67,8.1,6.83,2.87,3.16,3.58,8.59,.34,12.41Z" style="fill:#00ae52;"/><path d="M311.83,202.94c.14-5.23-2.34-9.9-5.84-13.68,4,3.21,7.31,8.38,6.3,13.72-.04,.27-.46,.23-.45-.04h0Z" style="fill:#009245;"/></g><g><path d="M311.68,203.22s4.76,8.21,14.08,1.33c-1.93-.77-3.45-2.57-6.08-3.74-2.63-1.17-6.25-.47-8.01,2.41Z" style="fill:#00c735;"/><path d="M311.62,203.08c3.2-1.78,7.2-.75,10.1,1.12-3.16-1.44-6.66-2.05-9.98-.84-.17,.06-.28-.2-.12-.28h0Z" style="fill:#009245;"/></g><g><g><path d="M331.14,187.31s-.83,14.06,16.35,13.18c-1.76-2.54-2.17-6.01-4.47-9.6-2.29-3.6-7.36-5.7-11.89-3.57Z" style="fill:#00ae52;"/><path d="M331.18,187.08c5.42,.41,9.54,4.97,11.59,9.66-2.72-4.37-6.59-7.99-11.67-9.22-.26-.06-.19-.48,.08-.45h0Z" style="fill:#009245;"/></g><g><path d="M337.11,184.27s1.02-10.48,13.61-7.84c-1.6,1.67-2.3,4.19-4.41,6.58-2.11,2.39-6.1,3.36-9.2,1.26Z" style="fill:#00ae52;"/><path d="M337.1,184.1c3.9-.32,7.17-2.55,9.69-5.46-2.06,3.23-5.63,6.12-9.69,5.8-.2-.01-.21-.32,0-.34h0Z" style="fill:#009245;"/></g><g><path d="M336.42,188.06s6.2-8.52,15.71,.15c-2.22,.63-4.11,2.44-7.14,3.43-3.03,.99-6.96-.2-8.57-3.58Z" style="fill:#00ae52;"/><path d="M336.51,187.91c3.52,1.7,7.47,1.44,11.12,.21-3.42,1.74-7.96,2.41-11.29,.08-.17-.11-.02-.38,.17-.3h0Z" style="fill:#009245;"/></g><g><path d="M330.4,186.53s-7.05,7.42,2.91,14.99c.21-2.24,1.61-4.36,2.02-7.43,.41-3.07-1.41-6.62-4.93-7.56Z" style="fill:#00c735;"/><path d="M330.53,186.43c2.81,2.77,2.97,7.23,1.91,10.8,.53-3.7,.09-7.53-2.16-10.59-.11-.16,.12-.35,.25-.21h0Z" style="fill:#009245;"/></g><g><path d="M333.54,186.59s4.75,9.07,15.12,2.08c-2.05-.92-3.6-2.93-6.38-4.31-2.78-1.38-6.72-.8-8.74,2.23Z" style="fill:#00c735;"/><path d="M333.48,186.44c3.53-1.77,7.8-.48,10.84,1.68-3.33-1.7-7.1-2.51-10.72-1.37-.19,.06-.3-.23-.12-.31h0Z" style="fill:#009245;"/></g><g><path d="M330.09,187.26s-3.93-10.28,9.08-13.67c-.72,2.31-.21,4.99-1.07,8.21-.86,3.22-4.14,5.98-8.01,5.46Z" style="fill:#00c735;"/><path d="M330.01,187.1c3.5-2.12,5.52-5.72,6.53-9.62-.43,3.98-2.42,8.35-6.36,9.93-.19,.08-.34-.2-.16-.31h0Z" style="fill:#009245;"/></g></g><g><g><path d="M335.45,177.87s12.97,5.49,17.9-10.99c-2.98,.81-6.39,.03-10.55,.99-4.16,.96-7.84,5.02-7.35,10Z" style="fill:#00ae52;"/><path d="M335.25,177.76c2.21-4.97,7.88-7.32,12.99-7.68-5.03,1.1-9.74,3.53-12.6,7.91-.15,.22-.51,.02-.4-.22h0Z" style="fill:#009245;"/></g><g><path d="M334.59,171.23s-9.54-4.47-2.83-15.45c1.04,2.06,3.17,3.57,4.72,6.37,1.55,2.79,1.12,6.87-1.89,9.09Z" style="fill:#00ae52;"/><path d="M334.43,171.18c1.01-3.78,0-7.61-1.89-10.96,2.36,3.03,3.88,7.36,2.22,11.07-.08,.19-.37,.09-.32-.11h0Z" style="fill:#009245;"/></g><g><path d="M337.93,173.15s-5.95-8.69,5.41-14.75c-.15,2.31,.92,4.69,.84,7.88s-2.52,6.49-6.24,6.87Z" style="fill:#00ae52;"/><path d="M337.82,173.02c2.79-2.75,3.87-6.56,3.93-10.41,.49,3.8-.39,8.31-3.71,10.66-.16,.12-.37-.11-.22-.26h0Z" style="fill:#009245;"/></g><g><path d="M334.47,178.31s4.63,9.13,15.09,2.29c-2.04-.95-3.56-2.98-6.32-4.39-2.76-1.42-6.71-.89-8.77,2.11Z" style="fill:#00c735;"/><path d="M334.41,178.15c3.55-1.72,7.81-.37,10.82,1.82-3.31-1.74-7.06-2.6-10.7-1.51-.19,.06-.29-.23-.11-.31h0Z" style="fill:#009245;"/></g><g><path d="M335.58,175.37s10.13-1.43,7.03-13.55c-1.55,1.62-3.97,2.41-6.2,4.57-2.23,2.15-3,6.06-.83,8.98Z" style="fill:#00c735;"/><path d="M335.41,175.38c-.48-3.92,2.17-7.51,5.22-9.65-2.72,2.57-4.74,5.84-4.89,9.64,0,.2-.31,.2-.33,0h0Z" style="fill:#009245;"/></g><g><path d="M335.05,178.84s-11,.25-9.83-13.14c1.93,1.45,4.63,1.87,7.38,3.76,2.75,1.89,4.25,5.9,2.46,9.38Z" style="fill:#00c735;"/><path d="M334.88,178.87c-.82-4.01-3.54-7.12-6.87-9.37,3.61,1.74,7.05,5.08,7.22,9.32,.01,.21-.31,.26-.35,.05h0Z" style="fill:#009245;"/></g></g><g><g><path d="M321.05,186.92s13.1,5.17,17.62-11.43c-2.96,.88-6.38,.19-10.52,1.25-4.13,1.06-7.71,5.21-7.1,10.18Z" style="fill:#00ae52;"/><path d="M320.85,186.81c2.08-5.02,7.69-7.51,12.8-8-5,1.23-9.65,3.77-12.4,8.21-.14,.23-.51,.03-.4-.21h0Z" style="fill:#009245;"/></g><g><path d="M320.03,180.3s-9.64-4.24-3.21-15.38c1.09,2.04,3.26,3.49,4.87,6.25,1.62,2.75,1.29,6.84-1.67,9.13Z" style="fill:#00ae52;"/><path d="M319.87,180.25c.91-3.8-.18-7.61-2.16-10.91,2.43,2.97,4.06,7.26,2.49,11.01-.07,.19-.37,.1-.32-.1h0Z" style="fill:#009245;"/></g><g><path d="M323.42,182.14s-6.16-8.55,5.04-14.88c-.09,2.31,1.04,4.66,1.03,7.86,0,3.19-2.36,6.55-6.07,7.02Z" style="fill:#00ae52;"/><path d="M323.3,182.01c2.72-2.81,3.7-6.65,3.67-10.5,.59,3.79-.19,8.32-3.44,10.75-.16,.13-.37-.1-.23-.25h0Z" style="fill:#009245;"/></g><g><path d="M320.08,187.38s4.85,9.01,15.14,1.91c-2.06-.9-3.64-2.89-6.43-4.24-2.79-1.35-6.73-.72-8.72,2.32Z" style="fill:#00c735;"/><path d="M320.02,187.23c3.51-1.81,7.79-.57,10.86,1.56-3.35-1.66-7.12-2.43-10.74-1.25-.19,.06-.3-.22-.12-.31h0Z" style="fill:#009245;"/></g><g><path d="M321.12,184.42s10.1-1.68,6.7-13.72c-1.51,1.66-3.91,2.51-6.09,4.72-2.18,2.21-2.85,6.13-.61,9Z" style="fill:#00c735;"/><path d="M320.96,184.43c-.58-3.91,1.98-7.56,4.98-9.77-2.65,2.64-4.6,5.96-4.65,9.76,0,.2-.31,.21-.33,.02h0Z" style="fill:#009245;"/></g><g><path d="M320.68,187.9s-10.99,.52-10.15-12.89c1.97,1.4,4.67,1.75,7.47,3.58,2.79,1.82,4.39,5.8,2.69,9.32Z" style="fill:#00c735;"/><path d="M320.5,187.93c-.92-3.99-3.71-7.03-7.1-9.2,3.65,1.65,7.18,4.9,7.45,9.14,.02,.21-.3,.26-.35,.06h0Z" style="fill:#009245;"/></g></g><g><path d="M368.66,142.2s13.1,5.17,17.62-11.43c-2.96,.88-6.38,.19-10.52,1.25-4.13,1.06-7.71,5.21-7.1,10.18Z" style="fill:#00ae52;"/><path d="M368.46,142.09c2.08-5.02,7.69-7.51,12.8-8-5,1.23-9.65,3.77-12.4,8.21-.14,.23-.51,.03-.4-.21h0Z" style="fill:#009245;"/></g><g><path d="M366.83,143.71s4.85,9.01,15.14,1.91c-2.06-.9-3.64-2.89-6.43-4.24-2.79-1.35-6.73-.72-8.72,2.32Z" style="fill:#00c735;"/><path d="M366.77,143.56c3.51-1.81,7.79-.57,10.86,1.56-3.35-1.66-7.12-2.43-10.74-1.25-.19,.06-.3-.22-.12-.31h0Z" style="fill:#009245;"/></g><g><path d="M367.67,144.21s-9.32-4.23-2.93-14.98c1.03,1.99,3.12,3.43,4.66,6.13,1.54,2.69,1.17,6.66-1.73,8.85Z" style="fill:#00c735;"/><path d="M367.51,144.16c.93-3.68-.09-7.4-1.97-10.63,2.32,2.91,3.85,7.11,2.28,10.73-.07,.18-.36,.09-.31-.1h0Z" style="fill:#009245;"/></g><g><g><path d="M297.41,155.53s13.16-5.02,5.29-20.32c-1.59,2.65-4.58,4.45-6.92,8.02s-2.18,9.05,1.63,12.3Z" style="fill:#00ae52;"/><path d="M297.19,155.59c-1.85-5.11,.61-10.73,4.05-14.54-2.08,3.25-3.74,6.78-3.85,10.65-.04,1.26,.05,2.51,.25,3.78,.05,.27-.36,.37-.44,.11h0Z" style="fill:#009245;"/></g><g><path d="M292.19,151.34s-9.98,3.38-12.75-9.19c2.18,.77,4.76,.38,7.81,1.32s5.57,4.18,4.93,7.87Z" style="fill:#00ae52;"/><path d="M292.03,151.41c-1.89-3.42-5.27-5.49-8.96-6.59,3.8,.55,7.9,2.62,9.27,6.45,.07,.19-.21,.32-.31,.15h0Z" style="fill:#009245;"/></g><g><path d="M295.92,150.4s-10.31-2.15-6.32-14.38c1.49,1.77,3.91,2.74,6.06,5.1,2.15,2.36,2.68,6.43,.26,9.28Z" style="fill:#00ae52;"/><path d="M295.75,150.39c.11-3.91-1.75-7.41-4.38-10.23,2.99,2.4,5.47,6.27,4.71,10.26-.03,.2-.34,.17-.34-.03h0Z" style="fill:#009245;"/></g><g><path d="M297,156.52s9.66,3.38,12.47-8.81c-2.12,.73-4.63,.32-7.6,1.21-2.97,.89-5.45,4.01-4.86,7.6Z" style="fill:#00c735;"/><path d="M296.85,156.45c1.37-3.71,5.37-5.68,9.06-6.18-3.59,1.03-6.9,3.01-8.77,6.32-.1,.17-.37,.04-.3-.14h0Z" style="fill:#009245;"/></g><g><path d="M295.77,153.64s6.31-8.06-4.31-14.64c0,2.25-1.19,4.49-1.31,7.59s2.03,6.45,5.62,7.05Z" style="fill:#00c735;"/><path d="M295.65,153.76c-3.07-2.49-3.64-6.91-2.92-10.57-.18,3.74,.63,7.5,3.16,10.34,.13,.15-.09,.36-.23,.23h0Z" style="fill:#009245;"/></g><g><path d="M297.79,156.51s-7.76,7.8-16.19-2.66c2.4-.3,4.63-1.86,7.92-2.4,3.29-.54,7.15,1.32,8.27,5.06Z" style="fill:#00c735;"/><path d="M297.68,156.64c-3.37-2.32-7.48-2.68-11.45-2,3.81-1.25,8.61-1.23,11.67,1.72,.16,.14-.05,.4-.22,.28h0Z" style="fill:#009245;"/></g></g><g><g><path d="M308.42,159.01s12.41,6.66,18.83-9.29c-3.04,.53-6.36-.55-10.59,.01s-8.27,4.28-8.24,9.28Z" style="fill:#00ae52;"/><path d="M308.23,158.88c2.66-4.74,8.52-6.56,13.64-6.45-5.11,.63-10.02,2.62-13.27,6.71-.17,.21-.51-.03-.37-.26h0Z" style="fill:#009245;"/></g><g><path d="M308.18,152.32s-9.08-5.33-1.39-15.65c.84,2.15,2.83,3.85,4.11,6.77,1.28,2.92,.49,6.95-2.72,8.88Z" style="fill:#00ae52;"/><path d="M308.02,152.25c1.35-3.67,.71-7.58-.88-11.09,2.07,3.23,3.18,7.69,1.19,11.23-.09,.18-.38,.05-.31-.14h0Z" style="fill:#009245;"/></g><g><path d="M311.33,154.53s-5.12-9.21,6.75-14.19c-.36,2.28,.48,4.75,.11,7.92s-3.11,6.23-6.85,6.27Z" style="fill:#00ae52;"/><path d="M311.23,154.39c3.03-2.48,4.46-6.17,4.87-10,.14,3.83-1.16,8.24-4.68,10.28-.17,.11-.35-.15-.2-.28h0Z" style="fill:#009245;"/></g><g><path d="M307.4,159.35s3.77,9.52,14.82,3.67c-1.94-1.13-3.27-3.29-5.89-4.96s-6.6-1.5-8.93,1.29Z" style="fill:#00c735;"/><path d="M307.36,159.19c3.7-1.39,7.81,.35,10.6,2.81-3.13-2.04-6.79-3.24-10.52-2.49-.19,.04-.27-.26-.08-.32h0Z" style="fill:#009245;"/></g><g><path d="M308.78,156.53s10.22-.49,8.25-12.84c-1.7,1.47-4.17,2.04-6.59,3.97s-3.55,5.76-1.66,8.87Z" style="fill:#00c735;"/><path d="M308.61,156.52c-.12-3.95,2.85-7.28,6.08-9.13-2.94,2.31-5.26,5.38-5.75,9.15-.03,.19-.33,.17-.33-.02h0Z" style="fill:#009245;"/></g><g><path d="M307.94,159.94s-10.98-.76-8.58-13.99c1.79,1.62,4.44,2.29,7,4.42,2.56,2.14,3.68,6.27,1.58,9.57Z" style="fill:#00c735;"/><path d="M307.76,159.95c-.45-4.07-2.86-7.41-5.98-9.97,3.43,2.06,6.56,5.71,6.33,9.95,0,.21-.33,.23-.35,.02h0Z" style="fill:#009245;"/></g></g><g><path d="M298.68,162.11s12.2,7.04,19.11-8.71c-3.06,.44-6.34-.75-10.59-.31-4.24,.44-8.4,4.02-8.52,9.02Z" style="fill:#00ae52;"/><path d="M298.49,161.98c2.8-4.66,8.71-6.3,13.84-6.03-5.13,.48-10.1,2.31-13.47,6.3-.17,.2-.51-.05-.36-.27h0Z" style="fill:#009245;"/></g><g><path d="M297.58,163.72s-9.35-5.28-1.69-15.93c.9,2.18,2.95,3.88,4.31,6.83,1.36,2.96,.62,7.07-2.62,9.1Z" style="fill:#00ae52;"/><path d="M297.42,163.65c1.31-3.76,.59-7.74-1.09-11.29,2.16,3.26,3.38,7.78,1.41,11.42-.09,.18-.39,.06-.32-.13h0Z" style="fill:#009245;"/></g><g><path d="M298.16,163.83s-9.13,4.24-13.06-7.42c2.15,.51,4.57-.13,7.56,.45,3,.58,5.72,3.4,5.5,6.97Z" style="fill:#00ae52;"/><path d="M298.02,163.91c-2.15-3.06-5.57-4.68-9.19-5.34,3.66,.13,7.77,1.68,9.47,5.17,.09,.17-.17,.33-.28,.17h0Z" style="fill:#009245;"/></g><g><path d="M297.98,163.54s6.09,7.5,14.38-.91c-2.07-.47-3.88-2.03-6.71-2.79-2.83-.76-6.36,.52-7.67,3.7Z" style="fill:#00c735;"/><path d="M297.9,163.41c2.93-2.3,7.13-1.9,10.34-.48-3.4-.95-7.03-1-10.17,.74-.16,.09-.32-.15-.17-.26h0Z" style="fill:#009245;"/></g></g></g></g></g></svg>