<?xml version="1.0" encoding="UTF-8"?><svg xmlns="http://www.w3.org/2000/svg" xmlns:xlink="http://www.w3.org/1999/xlink" viewBox="0 0 500 500"><defs><linearGradient id="Degradado_sin_nombre_7" x1="251.38" y1="392.89" x2="248.59" y2="104.05" gradientUnits="userSpaceOnUse"><stop offset="0" stop-color="#fff"/><stop offset="1" stop-color="#00fbff"/></linearGradient><linearGradient id="Degradado_sin_nombre_6" x1="252.82" y1="430.1" x2="251.56" y2="299.76" gradientUnits="userSpaceOnUse"><stop offset="0" stop-color="#fff"/><stop offset="1" stop-color="#5eefff"/></linearGradient><linearGradient id="Degradado_sin_nombre_63" x1="149.07" y1="404.48" x2="350.73" y2="404.48" gradientUnits="userSpaceOnUse"><stop offset="0" stop-color="#2bf228"/><stop offset="1" stop-color="#00b555"/></linearGradient><radialGradient id="Degradado_sin_nombre_676" cx="250" cy="250" fx="250" fy="250" r="247.8" gradientUnits="userSpaceOnUse"><stop offset=".54" stop-color="#0ed3ff"/><stop offset=".79" stop-color="#0cd0ff"/><stop offset=".95" stop-color="#05c7ff"/><stop offset="1" stop-color="#02c3ff"/></radialGradient><radialGradient id="Degradado_sin_nombre_678" cx="250" cy="250" fx="250" fy="250" r="210.39" gradientUnits="userSpaceOnUse"><stop offset=".54" stop-color="#1495ea"/><stop offset=".81" stop-color="#1392ea"/><stop offset=".98" stop-color="#1189ea"/><stop offset="1" stop-color="#1188ea"/></radialGradient><linearGradient id="Degradado_sin_nombre_63-2" x1="113.79" y1="288.73" x2="212.49" y2="289" xlink:href="#Degradado_sin_nombre_63"/><linearGradient id="Degradado_sin_nombre_63-3" x1="160.65" y1="310.62" x2="195.71" y2="285.74" xlink:href="#Degradado_sin_nombre_63"/><linearGradient id="Degradado_sin_nombre_63-4" x1="237.88" y1="87.5" x2="252.18" y2="317.1" xlink:href="#Degradado_sin_nombre_63"/><linearGradient id="Degradado_sin_nombre_63-5" x1="246.32" y1="59.46" x2="242.44" y2="245.27" xlink:href="#Degradado_sin_nombre_63"/><linearGradient id="Degradado_sin_nombre_63-6" x1="245.23" y1="111.73" x2="242.34" y2="249.86" xlink:href="#Degradado_sin_nombre_63"/><linearGradient id="Degradado_sin_nombre_63-7" x1="-405.66" y1="292.03" x2="-308.31" y2="292.3" gradientTransform="translate(-36.64 1.03) rotate(177.18) scale(1 -1)" xlink:href="#Degradado_sin_nombre_63"/><linearGradient id="Degradado_sin_nombre_63-8" x1="278.62" y1="297.53" x2="312.69" y2="273.35" xlink:href="#Degradado_sin_nombre_63"/></defs><g style="isolation:isolate;"><g id="Capa_1"><g><circle cx="250" cy="250" r="247.8" style="fill:url(#Degradado_sin_nombre_7);"/><path d="M42.15,342c2,14,12,24,17,38,5,15,21,22,27,37,2,5,12,5,16,10,3,2,6,5,9,7,9,7,18,10,27,14,16,6,31,14,47,21,30,11,64,12,94,0,8-3,16-8,24-10,67-20,126-56,155-118,1.46-3.12,2.91-6.24,4.36-9.37-30-14.85-70.76-34.98-85.03-41.79-23.6-11.26-68.75,23.65-107.22,51.49-14.59-10.63-58.36-43.88-102.57-75.89-34.19-24.76-66.72-3.92-126.35,41.82,.5,11.76-1.02,22.83,.81,34.74Z" style="fill:url(#Degradado_sin_nombre_6);"/><path d="M48.59,388.08c44.97,62.64,118.41,103.45,201.41,103.45s156.44-40.81,201.41-103.45H48.59Z" style="fill:#8c5831;"/><path d="M268.16,420.88c85.76,0,96.44-23.96,69.42-32.79H149.07c1.3,8.1,11.64,11.77,39.34,11.77-17.76,14.28-6.01,21.02,79.76,21.02Z" style="fill:url(#Degradado_sin_nombre_63);"/><path d="M250,48.2c53.9,0,104.58,20.99,142.69,59.11,38.12,38.11,59.11,88.79,59.11,142.69s-20.99,104.58-59.11,142.69c-38.11,38.11-88.79,59.11-142.69,59.11s-104.58-20.99-142.69-59.11c-38.12-38.11-59.11-88.79-59.11-142.69s20.99-104.58,59.11-142.69c38.11-38.11,88.79-59.11,142.69-59.11m0-46C113.14,2.2,2.2,113.14,2.2,250s110.94,247.8,247.8,247.8,247.8-110.94,247.8-247.8S386.86,2.2,250,2.2h0Z" style="fill:url(#Degradado_sin_nombre_676);"/><path d="M250,48.2c53.9,0,104.58,20.99,142.69,59.11,38.12,38.11,59.11,88.79,59.11,142.69s-20.99,104.58-59.11,142.69c-38.11,38.11-88.79,59.11-142.69,59.11s-104.58-20.99-142.69-59.11c-38.12-38.11-59.11-88.79-59.11-142.69s20.99-104.58,59.11-142.69c38.11-38.11,88.79-59.11,142.69-59.11m0-8.59c-116.2,0-210.39,94.2-210.39,210.39s94.2,210.39,210.39,210.39,210.39-94.2,210.39-210.39S366.2,39.61,250,39.61h0Z" style="fill:url(#Degradado_sin_nombre_678);"/><g><path d="M309.55,267.95c-3.18-1.27-6.32-2.61-9.43-4.02-5.97,5.49-11.96,10.97-17.97,16.44-4.74,4.33-9.5,8.64-14.28,12.95-2.08-18.4-4.51-36.84-7.32-55.23h-30.43c-.49,5.66-.99,11.31-1.48,16.95-1.18,12.93-2.74,30.17-4.17,45.84-14.49-10.93-19.73-12.29-33.75-23.08-3.3-2.46-8.53,.73-5.88,3.57,4.54,4.71-1.3-1.15,3.19,3.59,11.16,11.73,23.35,24.46,34.53,36.56-.01,.14-.03,.29-.04,.43l-5.94,65.93,61.66,.26s-6.53-57.41-7.39-66.21c-.28-3.02-.6-6.04-.9-9.06,2.71-3.16,5.43-6.31,8.17-9.45,10.38-11.87,20.87-23.69,31.44-35.46Z" style="fill:#cc7f21;"/><g><path d="M179.23,311.46s-7.16,4.43-6.7-1.42c0,0-7.68,.29-4.91-5.2,0,0-9.47-1.28-5.6-7.22,0,0-9.52-3.43-1.61-9.22,0,0-5.49-8.64,2.6-8.71,0,0-1.9-8.35,5.38-6.17,0,0-.36-8.95,8-4.36,0,0,3.1-6.89,8.7-2.35,0,0,6.56-7.69,12.42-.98,0,0,10.28-3.47,7.81,3.47,0,0,10.05-3.31,7.79,3.82,0,0,7.64,.25,4.53,4.64,0,0,10.07,4.54,3.67,7.42,0,0,6.77,5.88-.83,7.78,0,0,2.11,8.37-4.31,6.08,0,0,4.25,5.51-2.83,6.2,0,0,.84,5.59-4.42,4.82,0,0,.36,3.59-4.41,1.97,0,0-5.42,4.03-8.54,.4,0,0-.59,4.77-5.17,.84,0,0-7.55,4.04-11.56-1.8Z" style="fill:url(#Degradado_sin_nombre_63-2);"/><path d="M221.31,285.17c6.4-2.88-3.67-7.42-3.67-7.42,3.11-4.39-4.53-4.64-4.53-4.64,2.26-7.13-7.79-3.82-7.79-3.82,2.46-6.94-7.81-3.47-7.81-3.47-5.86-6.7-12.42,.98-12.42,.98-5.6-4.54-8.7,2.35-8.7,2.35-8.36-4.58-8,4.36-8,4.36-.42-.13-.8-.21-1.16-.27-5.9-.97-4.22,6.45-4.22,6.45-8.09,.08-2.6,8.71-2.6,8.71-.76,.56-1.36,1.09-1.82,1.61-4.34,4.82,3.43,7.62,3.43,7.62-3.87,5.94,5.6,7.22,5.6,7.22-2.77,5.49,4.91,5.2,4.91,5.2-.46,5.85,6.7,1.42,6.7,1.42,4.01,5.84,11.56,1.8,11.56,1.8,4.58,3.93,5.17-.84,5.17-.84,3.12,3.63,8.54-.4,8.54-.4,4.77,1.62,4.41-1.97,4.41-1.97,5.26,.77,4.42-4.82,4.42-4.82,7.08-.69,2.83-6.2,2.83-6.2,6.42,2.29,4.31-6.08,4.31-6.08,7.6-1.9,.83-7.78,.83-7.78Zm-30.36,21.15c-1.31-.26-2.86-.61-4.38-1.14-4.47,2.35-9.5,3.34-14.54,.32-3.56-2.14-5.27-5.5-5.13-9.04-7.28-3.6-5.35-7.87,1.36-9.98-1.83-2.39-1.49-6.67-.34-8.95,0-.47,.27-1.49,.98-2.27,0,0,0,0,0,0,2.57,2.38,6.46,3.57,10.03,3.58,1.8,8.3,10.12,14.05,18.32,12.85,1.64,3.87,6.78,6.01,11.44,5.69-2.83,6.74-10.65,9.73-17.73,8.95Z" style="fill:url(#Degradado_sin_nombre_63-3); mix-blend-mode:multiply; opacity:.43;"/><g><path d="M167.52,282.84c1.34,4.16,2.96,4.85,6.96,4.1,.24-.05,.39,.29,.19,.43-3.86,3.09-8.5,.32-7.62-4.52,.05-.25,.42-.25,.47,0h0Z" style="fill:#02a21f;"/><g><path d="M179.37,299.18c2.04,1.96,3.44,2.09,5.69,.8,.31-.18,.62-.36,.97-.52,.12-.05,.27,0,.32,.13-.69,2.46-4.33,3.98-6.28,1.9-.42-.22-1.84-2.77-.72-2.31h0Z" style="fill:#02a21f;"/><path d="M184.29,297.38c3.95,3.32,8.16,3.98,12.61,1.52,.6-.33,1.18-.71,1.82-1.03,.12-.06,.26-.01,.32,.1,.05,.09,.03,.2-.04,.27-.48,.53-.98,1.04-1.52,1.53-2.83,2.44-7.27,3.1-10.48,.98-1.26-.79-2.34-1.82-3.09-3.08-.14-.23,.18-.48,.37-.29h0Z" style="fill:#02a21f;"/></g></g></g><path d="M246.03,388.01c3.21-17.85,8.02-75.64,6.03-93.95-4.17,21.16-9.99,78.16-12.98,93.95h6.95Z" style="fill:#cc7f21; mix-blend-mode:multiply; opacity:.71;"/><path d="M278.02,387.98c-.72-8.81-3-27.63-3.05-28.12-2.55,9.33-4.78,18.85-7.71,28.12h10.76Z" style="fill:#cc7f21; mix-blend-mode:multiply; opacity:.36;"/><path d="M236.44,322.44c-.03,.45,4.38-51.57,6.52-84.35h-7.36c-2.53,27.98,.87,83.9,.84,84.35Z" style="fill:#cc7f21; mix-blend-mode:multiply; opacity:.36;"/><path d="M300.13,273.2c-5.97,7.46-17.97,22.34-17.97,22.34l-14.91,15.31,5.48,30.38-2.78-28.37,33.01-37.79s-1.42-1-2.83-1.87Z" style="fill:#cc7f21; mix-blend-mode:multiply; opacity:.71;"/><g style="opacity:.54;"><path d="M247.15,264.67c.79,.72,1.61,1.35,2.45,1.9,2.57-1.48,5.09-3.11,7.55-4.9-2.46,1.79-4.98,3.43-7.55,4.9,4.33,2.89,9.26,3.75,14.33,3.44-1.06-10.65-2.18-21.29-3.37-31.93h-30.43c-.49,7.69-.99,15.37-1.48,23.03-.28,4.23-.59,8.8-.91,13.59,7.85-1.45,15.07-4.23,21.87-8.13-.84-.56-1.66-1.19-2.45-1.9Z" style="fill:#cc7f21; mix-blend-mode:multiply;"/></g><g><path d="M210.14,253.63s-23.22,17.03-23.22-3.04c0,0-26.12,3.04-18.14-16.42,0,0-32.65-1.82-21.04-23.11,0,0-33.38-9.12-7.98-31.01,0,0-21.04-27.97,6.53-30.41,0,0-8.71-27.97,16.69-22.5,0,0-3.63-30.41,26.12-17.03,0,0,8.71-24.32,29.02-10.34,0,0,20.32-27.97,42.08-6.69,0,0,34.1-14.59,27.57,9.73,0,0,33.38-13.99,27.57,10.95,0,0,26.12-1.22,16.69,14.59,0,0,35.55,12.77,14.51,24.32,0,0,24.67,18.24-.73,26.76,0,0,9.43,27.97-13.06,21.89,0,0,15.96,17.64-7.98,21.89,0,0,4.35,18.85-13.79,17.64,0,0,2.18,12.16-14.51,7.91,0,0-17.41,15.2-29.02,3.65,0,0-.73,16.42-17.41,4.26,0,0-24.67,15.81-39.91-3.04Z" style="fill:url(#Degradado_sin_nombre_63-4);"/><g><path d="M185.33,166.35c3.27,10.11,8.04,12.47,18.01,8.81,.39-.15,.7,.42,.36,.67-5.82,4.82-14.52,5.07-17.87-2.77-.93-2.13-1.36-4.37-1.26-6.63,.01-.43,.66-.49,.76-.08h0Z" style="fill:#02a21f;"/><path d="M279.26,178.78c6.59,8.33,11.89,8.88,19.95,1.96,.32-.28,.81,.15,.57,.5-3.77,6.55-11.84,9.83-17.72,3.64-1.62-1.67-2.8-3.62-3.5-5.77-.14-.41,.45-.69,.68-.34h0Z" style="fill:#02a21f;"/><path d="M251.44,129.64c7.5,7.52,12.83,7.46,20.05-.34,.28-.31,.82,.06,.63,.43-2.99,6.94-10.63,11.12-17.18,5.65-1.8-1.47-3.2-3.27-4.14-5.33-.19-.39,.36-.74,.64-.41h0Z" style="fill:#02a21f;"/><path d="M269.18,132.91c4.34,2.74,7.68,3.09,11.82-.06,.53-.43,1.07-.87,1.69-1.26,.18-.12,.42-.07,.54,.11,.07,.11,.08,.25,.03,.37-.6,1.36-1.43,2.63-2.56,3.63-2.26,2.21-6.32,2.75-8.99,.97-1.34-.82-2.42-1.9-3.11-3.27-.19-.36,.27-.73,.58-.49h0Z" style="fill:#02a21f;"/><g><path d="M214.53,215.32c6.11,6.17,10.49,4.61,16.56-.53,.31-.27,.79,.13,.59,.48-2.51,5.32-9.3,9.17-14.47,4.95-1.54-1.21-2.68-2.75-3.33-4.52-.15-.39,.39-.71,.66-.38h0Z" style="fill:#02a21f;"/><path d="M227.7,211.21c8.1,8.36,15.27,6.83,23.58-.21,.32-.28,.81,.16,.56,.51-4.1,6.62-12.92,10.93-19.9,5.82-2.12-1.49-3.8-3.43-4.89-5.71-.2-.39,.37-.75,.64-.41h0Z" style="fill:#02a21f;"/></g></g><path d="M346.55,152.68c21.04-11.55-14.51-24.32-14.51-24.32,9.43-15.81-16.69-14.59-16.69-14.59,5.8-24.93-27.57-10.95-27.57-10.95,6.53-24.32-27.57-9.73-27.57-9.73-21.77-21.28-42.08,6.69-42.08,6.69-20.32-13.99-29.02,10.34-29.02,10.34-29.75-13.38-26.12,17.03-26.12,17.03-25.4-5.47-16.69,22.5-16.69,22.5-27.57,2.43-6.53,30.41-6.53,30.41-25.4,21.89,7.98,31.01,7.98,31.01-11.61,21.28,21.04,23.11,21.04,23.11-7.98,19.46,18.14,16.42,18.14,16.42,0,20.07,23.22,3.04,23.22,3.04,15.24,18.85,39.91,3.04,39.91,3.04,16.69,12.16,17.41-4.26,17.41-4.26,11.61,11.55,29.02-3.65,29.02-3.65,16.69,4.26,14.51-7.91,14.51-7.91,18.14,1.22,13.79-17.64,13.79-17.64,23.94-4.26,7.98-21.89,7.98-21.89,22.49,6.08,13.06-21.89,13.06-21.89,25.4-8.51,.73-26.76,.73-26.76Zm-32.22,53.65c-10.05,6.69-13.96,2.13-24.62-1.4,22.23,40.7-33.8,24.71-39.02,21.7-17.86,28.64-47.18,5.16-51.6-6.8-20.61,10.37-37.61-12.46-28.07-28.35-27.93-4.31-12.64-35.36-2.15-43.6-10.06-24.68,15.45-26.9,20.14-25.08,11.09-24.26,29.79-10.43,34.55-6.37,17.23-25.31,40.88-15.89,45.54-1.44,16.25-7.05,82.81,11.27,43.4,54.65,8.18,11.46,11.88,30,1.83,36.69Z" style="fill:url(#Degradado_sin_nombre_63-5); mix-blend-mode:multiply; opacity:.3;"/><path d="M346.55,152.68c13.3-7.3,3.99-15.09-4.66-19.83,1.25,3.1,1.52,6.46,.16,10.1-.64,3.53-2.51,5.83-4.84,7.61,6.51,7.35,9.22,33.86-15.11,35.12,8,17.61,4.06,41.54-23.13,36.3,1.57,13.97-8.57,30.3-39.18,13.94-5.1,6.6-12.09,11.55-20.46,12.8-11.87,2.09-24.38,.34-31.65-9.37-7.17,7.16-17.79,10.5-27.7,6.33-5.65-2.51-5.6-9.68-3.7-15.11-6.91,.01-13.59-2.2-17.6-7.72-4.5-5.15-3.69-11.14,1.52-17.32-25.76-.83-26.04-16.03-12.55-26.37-8.08-6.39-13.35-16.04-11.54-26.32-10.83,7.94,3.66,27.21,3.66,27.21-25.4,21.89,7.98,31.01,7.98,31.01-11.61,21.28,21.04,23.11,21.04,23.11-7.98,19.46,18.14,16.42,18.14,16.42,0,20.07,23.22,3.04,23.22,3.04,15.24,18.85,39.91,3.04,39.91,3.04,16.69,12.16,17.41-4.26,17.41-4.26,11.61,11.55,29.02-3.65,29.02-3.65,16.69,4.26,14.51-7.91,14.51-7.91,18.14,1.22,13.79-17.64,13.79-17.64,23.94-4.26,7.98-21.89,7.98-21.89,22.49,6.08,13.06-21.89,13.06-21.89,25.4-8.51,.73-26.76,.73-26.76Z" style="fill:url(#Degradado_sin_nombre_63-6); mix-blend-mode:multiply; opacity:.43;"/></g><g><path d="M319.56,298.3s7.27,4.02,6.53-1.72c0,0,7.58-.09,4.58-5.36,0,0,9.27-1.72,5.17-7.38,0,0,9.21-3.84,1.14-9.16,0,0,4.99-8.78-2.99-8.46,0,0,1.46-8.32-5.6-5.82,0,0-.08-8.83-8.1-3.91,0,0-3.39-6.64-8.68-1.89,0,0-6.84-7.25-12.28-.36,0,0-10.29-2.92-7.53,3.8,0,0-10.06-2.77-7.48,4.15,0,0-7.52,.61-4.24,4.79,0,0-9.7,4.96-3.26,7.49,0,0-6.38,6.13,1.19,7.63,0,0-1.67,8.35,4.54,5.78,0,0-3.92,5.63,3.09,5.97,0,0-.55,5.55,4.59,4.54,0,0-.18,3.56,4.44,1.73,0,0,5.54,3.71,8.44-.02,0,0,.81,4.67,5.14,.58,0,0,7.64,3.61,11.3-2.34Z" style="fill:url(#Degradado_sin_nombre_63-7);"/><path d="M338.85,276.16c-.48-.48-1.09-.98-1.87-1.5,0,0,4.99-8.78-2.99-8.46,0,0,1.3-7.39-4.47-6.14-.35,.08-.73,.18-1.13,.32,0,0-.08-8.83-8.1-3.91,0,0-3.39-6.64-8.68-1.89,0,0-6.84-7.25-12.28-.36,0,0-10.29-2.92-7.53,3.8,0,0-10.06-2.77-7.48,4.15,0,0-7.52,.61-4.24,4.79,0,0-9.7,4.96-3.26,7.49,0,0-6.38,6.13,1.19,7.63,0,0-1.67,8.35,4.54,5.78,0,0-3.92,5.63,3.09,5.97,0,0-.55,5.55,4.59,4.54,0,0-.18,3.56,4.44,1.73,0,0,5.54,3.71,8.44-.02,0,0,.81,4.67,5.14,.58,0,0,7.64,3.61,11.3-2.34,0,0,7.27,4.02,6.53-1.72,0,0,7.58-.09,4.58-5.36,0,0,9.27-1.72,5.17-7.38,0,0,7.52-3.13,3.01-7.67Zm-7.88,6.76c.31,3.47-1.21,6.88-4.61,9.15-4.81,3.22-9.82,2.49-14.34,.39-1.47,.6-2.98,1.02-4.26,1.34-6.48,1.04-13.75-1.12-17.22-6.7-3.24,.2-5.35-.93-6.85-3.92-.69-2.75-.33-5.5,1.47-7.46-1.41-2.95-1.14-5.89,.34-8.84,2.29-2.29,5.65-3.49,8.96-2.93,4.16-8.25,15.87-7.87,23.9-3.74,2.73-2.33,13.97,.52,10.78,12.95,6.71,1.75,8.82,5.86,1.83,9.76Z" style="fill:url(#Degradado_sin_nombre_63-8); mix-blend-mode:multiply; opacity:.43;"/><g><path d="M329.8,268.99c.93,3.22-1.47,7.06-5.09,6.35-1.01-.16-1.93-.59-2.77-1.15-.12-.08-.15-.24-.07-.36,.06-.09,.15-.12,.25-.11,4.3,.59,5.98-.26,7.18-4.74,.06-.25,.44-.24,.5,0h0Z" style="fill:#02a21f;"/><g><path d="M317.61,285.94c-.39,2.99-3.75,4.5-6.2,2.67-.68-.5-1.23-1.12-1.65-1.84-.07-.12-.03-.28,.1-.36,.39-.1,.94,.35,1.28,.48,.81,.38,1.94,.84,2.77,.78,1.09,0,2.16-.86,3.24-1.93,.16-.2,.5-.05,.46,.2h0Z" style="fill:#02a21f;"/><path d="M312.24,284.37c-2.19,4.3-7.93,6.38-12.29,4.12-1.42-.62-2.63-1.63-3.7-2.72-.1-.1-.1-.26,0-.36,.08-.08,.19-.09,.28-.05,.69,.31,1.33,.68,1.99,1,4.85,2.37,9.3,1.45,13.31-2.28,.19-.22,.55,.04,.41,.29h0Z" style="fill:#02a21f;"/></g></g></g></g></g></g></g></svg>