<?xml version="1.0" encoding="UTF-8"?><svg xmlns="http://www.w3.org/2000/svg" xmlns:xlink="http://www.w3.org/1999/xlink" viewBox="0 0 500 500"><defs><linearGradient id="Degradado_sin_nombre_7" x1="251.38" y1="392.89" x2="248.59" y2="104.05" gradientUnits="userSpaceOnUse"><stop offset="0" stop-color="#fff"/><stop offset="1" stop-color="#00fbff"/></linearGradient><linearGradient id="Degradado_sin_nombre_6" x1="251.88" y1="455.16" x2="250.74" y2="337.79" gradientUnits="userSpaceOnUse"><stop offset="0" stop-color="#fff"/><stop offset="1" stop-color="#5eefff"/></linearGradient><linearGradient id="Degradado_sin_nombre_63" x1="247.96" y1="436.08" x2="250.92" y2="371.89" gradientUnits="userSpaceOnUse"><stop offset="0" stop-color="#2bf228"/><stop offset="1" stop-color="#00b555"/></linearGradient><radialGradient id="Degradado_sin_nombre_676" cx="250" cy="250" fx="250" fy="250" r="247.8" gradientUnits="userSpaceOnUse"><stop offset=".54" stop-color="#0ed3ff"/><stop offset=".79" stop-color="#0cd0ff"/><stop offset=".95" stop-color="#05c7ff"/><stop offset="1" stop-color="#02c3ff"/></radialGradient><radialGradient id="Degradado_sin_nombre_678" cx="250" cy="250" fx="250" fy="250" r="210.39" gradientUnits="userSpaceOnUse"><stop offset=".54" stop-color="#1495ea"/><stop offset=".81" stop-color="#1392ea"/><stop offset=".98" stop-color="#1189ea"/><stop offset="1" stop-color="#1188ea"/></radialGradient><linearGradient id="Degradado_sin_nombre_63-2" x1="248.3" y1="-.68" x2="243.27" y2="240.29" xlink:href="#Degradado_sin_nombre_63"/><linearGradient id="Degradado_sin_nombre_63-3" x1="248.3" y1="-.68" x2="243.27" y2="240.29" xlink:href="#Degradado_sin_nombre_63"/><linearGradient id="Degradado_sin_nombre_63-4" x1="246.88" y1="67.1" x2="243.14" y2="246.24" xlink:href="#Degradado_sin_nombre_63"/></defs><g style="isolation:isolate;"><g id="Capa_1"><g><circle cx="250" cy="250" r="247.8" style="fill:url(#Degradado_sin_nombre_7);"/><path d="M365.33,326.06c-19.49-9.3-56.77,19.53-88.54,42.52-12.05-8.78-48.19-36.24-84.7-62.67-36.51-26.44-70.72,10.08-154,72.61,43.46,71.51,122.11,119.28,211.91,119.28,55.67,0,107.04-18.36,148.41-49.35,26.53-19.87,48.95-44.95,65.74-73.7,0,0-79.33-39.39-98.82-48.69Z" style="fill:url(#Degradado_sin_nombre_6);"/><path d="M48.59,388.08c44.97,62.64,118.41,103.45,201.41,103.45s156.44-40.81,201.41-103.45H48.59Z" style="fill:#8c5831;"/><path d="M247.66,424.69c75.16-3.19,110.63-26.99,115.65-36.61H137.04c1,2.1,35.47,39.8,110.63,36.61Z" style="fill:url(#Degradado_sin_nombre_63);"/><path d="M250,48.2c53.9,0,104.58,20.99,142.69,59.11,38.12,38.11,59.11,88.79,59.11,142.69s-20.99,104.58-59.11,142.69c-38.11,38.11-88.79,59.11-142.69,59.11s-104.58-20.99-142.69-59.11c-38.12-38.11-59.11-88.79-59.11-142.69s20.99-104.58,59.11-142.69c38.11-38.11,88.79-59.11,142.69-59.11m0-46C113.14,2.2,2.2,113.14,2.2,250s110.94,247.8,247.8,247.8,247.8-110.94,247.8-247.8S386.86,2.2,250,2.2h0Z" style="fill:url(#Degradado_sin_nombre_676);"/><path d="M250,48.2c53.9,0,104.58,20.99,142.69,59.11,38.12,38.11,59.11,88.79,59.11,142.69s-20.99,104.58-59.11,142.69c-38.11,38.11-88.79,59.11-142.69,59.11s-104.58-20.99-142.69-59.11c-38.12-38.11-59.11-88.79-59.11-142.69s20.99-104.58,59.11-142.69c38.11-38.11,88.79-59.11,142.69-59.11m0-8.59c-116.2,0-210.39,94.2-210.39,210.39s94.2,210.39,210.39,210.39,210.39-94.2,210.39-210.39S366.2,39.61,250,39.61h0Z" style="fill:url(#Degradado_sin_nombre_678);"/><g><path d="M325.72,219.81c-1.82-1.44-4.47-1.13-5.91,.7-11.2,14.19-22.5,28.3-33.88,42.35-4.64,5.75-9.3,11.49-13.97,17.21-2.03-24.46-4.42-48.97-7.16-73.41h-29.77c-.48,7.52-.97,15.03-1.45,22.53-1.16,17.19-2.68,40.1-4.08,60.93-14.18-14.53-29.46-30.36-43.18-44.71-3.23-3.28-8.34,.97-5.75,4.75,4.44,6.26,8.89,12.5,13.28,18.8,10.92,15.59,22.84,32.52,33.78,48.6-.01,.19-.03,.38-.04,.57l-4.99,70.05h56.47c-.04-.94-.09-1.88-.13-2.82-1.1-22.43-2.46-44.85-4.07-67.25-.28-4.01-.59-8.03-.88-12.04,2.65-4.2,5.31-8.39,7.99-12.56,14.69-22.8,29.56-45.48,44.63-68.02,1.2-1.81,.84-4.28-.89-5.64Z" style="fill:#cc7f21;"/><polygon points="227.88 388.15 226.41 334.58 222.6 388.15 227.88 388.15" style="fill:#cc7f21; mix-blend-mode:multiply; opacity:.36;"/><path d="M248.66,388.15c4.54-35.34,11.24-70.58,8.34-106.88-6.41,44.25-11.07,75.32-15.03,106.88h6.69Z" style="fill:#cc7f21; mix-blend-mode:multiply; opacity:.71;"/><path d="M279.07,388.15c-.04-.94-.09-1.88-.13-2.82-1.1-22.43-2.46-44.85-4.07-67.25-.04-.65-.1-1.3-.14-1.94-4.86,24.14-10.49,48.06-16.6,72.02h20.95Z" style="fill:#cc7f21; mix-blend-mode:multiply; opacity:.36;"/><path d="M241.21,318.77c-.03,.6,4.28-68.55,6.38-112.12h-7.2c-2.47,37.19,.85,111.52,.82,112.12Z" style="fill:#cc7f21; mix-blend-mode:multiply; opacity:.36;"/><path d="M322.28,219c-.94,.19-1.83,.68-2.47,1.5-11.2,14.19-22.5,28.3-33.88,42.35-4.55,5.64-9.12,11.27-13.71,16.88-3.18,6.08-6.64,12.1-9.3,18.31,26.17-22.43,42.6-50.18,59.36-79.04Z" style="fill:#cc7f21; mix-blend-mode:multiply; opacity:.71;"/><path d="M223.42,305.6c-3.07-5.35-22.26-40-40.18-61.34-2.48,.31-4.51,3.21-2.68,5.88,4.44,6.26,8.89,12.5,13.28,18.8,10.92,15.59,33.78,48.6,33.78,48.6,0,0,5.95,1.69,8.76-7.39-6.55,3.88-9.89,.8-12.96-4.54Z" style="fill:#cc7f21; mix-blend-mode:multiply; opacity:.71;"/><g style="opacity:.54;"><path d="M180.57,250.14c3.54,4.99,7.08,9.99,10.6,15,3.27-1.25,6.43-3.04,8.89-5.42-4.68-4.86-9.3-9.67-13.74-14.32-3.23-3.28-8.34,.97-5.75,4.75Z" style="fill:#cc7f21; mix-blend-mode:multiply;"/><path d="M235.02,206.65c-.48,7.52-.97,15.03-1.45,22.53-.82,12.1-1.81,27.04-2.82,42.1,7.32,1.19,14.59-2.1,20.38-6.41,5.83,3.3,13.4,3.1,19.51,.05-1.73-19.42-3.67-38.86-5.85-58.26h-29.77Z" style="fill:#cc7f21; mix-blend-mode:multiply;"/><path d="M325.72,219.81c-1.82-1.44-4.47-1.13-5.91,.7-10.69,13.54-21.48,27.02-32.34,40.44,5.1,2.08,10.28,2.04,15.25,.62,7.91-12.07,15.87-24.11,23.89-36.11,1.2-1.81,.84-4.28-.89-5.64Z" style="fill:#cc7f21; mix-blend-mode:multiply;"/></g><path d="M201.38,251.13s-30.11,22.08-30.11-3.94c0,0-33.88,3.94-23.52-21.29,0,0-42.34-2.37-27.29-29.97,0,0-43.29-11.83-10.35-40.22,0,0-27.29-36.28,8.47-39.43,0,0-11.29-36.28,21.64-29.18,0,0-4.7-39.43,33.88-22.08,0,0,11.29-31.55,37.64-13.41,0,0,26.35-36.28,54.58-8.68,0,0,44.23-18.93,35.76,12.62,0,0,43.29-18.14,35.76,14.2,0,0,33.88-1.58,21.64,18.93,0,0,46.11,16.56,18.82,31.55,0,0,31.99,23.66-.94,34.7,0,0,12.23,36.28-16.94,28.39,0,0,20.7,22.87-10.35,28.39,0,0,5.65,24.45-17.88,22.87,0,0,2.82,15.77-18.82,10.25,0,0-22.58,19.72-37.64,4.73,0,0-.94,21.29-22.58,5.52,0,0-31.99,20.51-51.75-3.94Z" style="fill:url(#Degradado_sin_nombre_63-2);"/><g><path d="M169.21,137.94c4.28,13.14,10.38,16.16,23.36,11.42,.51-.19,.91,.55,.47,.87-7.65,6.28-18.8,6.58-23.18-3.6-1.21-2.76-1.77-5.66-1.64-8.59,.02-.56,.86-.64,.98-.1h0Z" style="fill:#02a21f;"/><path d="M291.02,154.06c8.6,10.82,15.37,11.52,25.88,2.55,.41-.36,1.04,.19,.74,.65-4.98,8.56-15.32,12.73-22.97,4.72-2.1-2.16-3.63-4.69-4.53-7.48-.18-.53,.58-.9,.89-.43h0Z" style="fill:#02a21f;"/><path d="M254.94,90.33c9.78,9.76,16.59,9.68,26-.45,.37-.4,1.06,.07,.81,.56-3.96,9.07-13.75,14.41-22.28,7.33-2.33-1.91-4.15-4.24-5.36-6.91-.24-.5,.47-.96,.83-.53h0Z" style="fill:#02a21f;"/><path d="M277.95,94.56c5.7,3.54,9.84,4.03,15.33-.08,.69-.55,1.39-1.12,2.19-1.64,.23-.15,.55-.09,.7,.15,.1,.15,.1,.33,.04,.48-.78,1.77-1.85,3.4-3.31,4.71-2.94,2.86-8.2,3.56-11.67,1.25-1.73-1.07-3.14-2.47-4.03-4.24-.25-.46,.35-.95,.76-.63h0Z" style="fill:#02a21f;"/><g><path d="M207.07,201.44c7.98,8.02,13.55,5.99,21.47-.69,.4-.35,1.02,.16,.77,.62-3.29,6.88-11.96,11.91-18.77,6.42-2-1.57-3.47-3.56-4.32-5.86-.2-.51,.51-.92,.85-.5h0Z" style="fill:#02a21f;"/><path d="M224.15,196.11c10.65,10.89,19.71,8.86,30.59-.27,.42-.36,1.05,.21,.73,.66-5.42,8.63-16.63,14.16-25.8,7.55-2.75-1.94-4.93-4.45-6.35-7.4-.25-.52,.46-.97,.83-.53h0Z" style="fill:#02a21f;"/></g></g><path d="M378.28,120.21c27.29-14.98-18.82-31.55-18.82-31.55,12.23-20.51-21.64-18.93-21.64-18.93,7.53-32.34-35.76-14.2-35.76-14.2,8.47-31.55-35.76-12.62-35.76-12.62-28.23-27.6-54.58,8.68-54.58,8.68-26.35-18.14-37.64,13.41-37.64,13.41-38.58-17.35-33.88,22.08-33.88,22.08-32.94-7.1-21.64,29.18-21.64,29.18-35.76,3.15-8.47,39.43-8.47,39.43-32.93,28.39,10.35,40.22,10.35,40.22-15.06,27.6,27.29,29.97,27.29,29.97-10.35,25.24,23.53,21.29,23.53,21.29,0,26.03,30.11,3.94,30.11,3.94,19.76,24.45,51.75,3.94,51.75,3.94,21.64,15.77,22.58-5.52,22.58-5.52,15.06,14.98,37.64-4.73,37.64-4.73,21.64,5.52,18.82-10.25,18.82-10.25,23.53,1.58,17.88-22.87,17.88-22.87,31.05-5.52,10.35-28.39,10.35-28.39,29.17,7.89,16.94-28.39,16.94-28.39,32.93-11.04,.94-34.7,.94-34.7Zm-50.24,57.44c-8.94,10.73-24.36,14.17-38.19,9.58,1.18,13.53-13.64,23.67-33.92,7.81-7.54,7.8-22.1,10.4-28.86,6.5-12.54,16.65-22.63,1.29-28.37-14.23-26.73,13.44-48.82-4.52-36.45-25.14-36.22-5.6-28.02-37.52-14.42-48.21-13.05-32.01,20.03-34.89,26.12-32.52,14.38-31.46,38.63-13.53,44.8-8.26,22.35-32.83,53.02-20.61,59.06-1.87,21.08-9.14,76.11,7.78,49.14,58.13,10.61,14.87,13.5,33.28,1.06,48.2Z" style="fill:url(#Degradado_sin_nombre_63-3); mix-blend-mode:multiply; opacity:.3;"/><path d="M378.28,120.21c17.25-9.47,5.18-19.57-6.04-25.72,1.62,4.02,1.98,8.38,.21,13.1-.83,4.58-3.25,7.57-6.28,9.87,8.45,9.53,11.96,43.91-19.59,45.54,10.37,22.84,5.26,53.87-30,47.07,2.03,18.12-11.11,39.29-50.81,18.07-6.62,8.56-15.68,14.98-26.54,16.6-15.39,2.72-31.61,.44-41.04-12.15-9.3,9.29-23.08,13.62-35.93,8.21-7.33-3.26-7.26-12.56-4.8-19.59-8.97,.01-17.62-2.85-22.83-10.01-5.84-6.67-4.79-14.45,1.96-22.46-33.41-1.08-33.78-20.79-16.28-34.19-10.48-8.29-17.32-20.8-14.96-34.14-14.05,10.3,4.74,35.29,4.74,35.29-32.93,28.39,10.35,40.22,10.35,40.22-15.06,27.6,27.29,29.97,27.29,29.97-10.35,25.24,23.53,21.29,23.53,21.29,0,26.03,30.11,3.94,30.11,3.94,19.76,24.45,51.75,3.94,51.75,3.94,21.64,15.77,22.58-5.52,22.58-5.52,15.06,14.98,37.64-4.73,37.64-4.73,21.64,5.52,18.82-10.25,18.82-10.25,23.53,1.58,17.88-22.87,17.88-22.87,31.05-5.52,10.35-28.39,10.35-28.39,29.17,7.89,16.94-28.39,16.94-28.39,32.93-11.04,.94-34.7,.94-34.7Z" style="fill:url(#Degradado_sin_nombre_63-4); mix-blend-mode:multiply; opacity:.43;"/></g></g></g></g></svg>