<svg width="48" height="48" viewBox="0 0 48 48" fill="none" xmlns="http://www.w3.org/2000/svg">
    <circle cx="24" cy="24" r="24" fill="#FFF6DA"/>
    <path fill-rule="evenodd" clip-rule="evenodd" d="M23.34 25.0213C23.73 25.4113 24.36 25.4113 24.75 25.0213L31.11 18.6613C31.5 18.2713 31.5 17.6413 31.11 17.2513L26.16 12.3013C25.78 11.9013 25.15 11.9013 24.76 12.2913L18.39 18.6613C18 19.0513 18 19.6813 18.39 20.0713L23.34 25.0213ZM25.46 14.4113L29 17.9513L24.05 22.9013L20.51 19.3613L25.46 14.4113ZM30.29 23.2913L32.41 25.4113C32.79 25.7913 33 26.3013 33 26.8313V30.0013C33 31.1113 32.1 32.0013 31 32.0013H17C15.9 32.0013 15 31.1013 15 30.0013V26.8313C15 26.3013 15.21 25.7913 15.58 25.4113L17.7 23.2913C17.89 23.1113 18.14 23.0013 18.41 23.0013H18.83L20.83 25.0013H18.78L17 27.0013H31L29.23 25.0013H27.32L29.32 23.0013H29.59C29.85 23.0013 30.11 23.1113 30.29 23.2913Z" fill="#FFC400"/>
</svg>