<svg width="48" height="48" viewBox="0 0 48 48" fill="none" xmlns="http://www.w3.org/2000/svg">
    <circle cx="24" cy="24" r="24" fill="#006630" fill-opacity="0.15"/>
    <path fill-rule="evenodd" clip-rule="evenodd" d="M20.7078 25.2745L29.4664 16.516C30.1544 15.828 31.2657 15.828 31.9625 16.516L33.1974 17.7508C33.8853 18.4388 33.8853 19.559 33.1974 20.247L21.9515 31.484C21.2635 32.172 20.1433 32.172 19.4553 31.484L14.516 26.5447C13.828 25.8567 13.828 24.7365 14.516 24.0485L15.7508 22.8137C16.4388 22.1257 17.559 22.1257 18.247 22.8137L20.7078 25.2745ZM31.3274 19.6207C31.6714 19.2767 31.6714 18.7299 31.3274 18.3859C30.9834 18.0419 30.4366 18.0419 30.0926 18.3859L20.7078 27.7707L17.6207 24.6836C17.2767 24.3396 16.7298 24.3396 16.3858 24.6836C16.2208 24.8466 16.1279 25.069 16.1279 25.301C16.1279 25.533 16.2208 25.7554 16.3858 25.9184L20.0904 29.6229C20.4344 29.9669 20.9812 29.9669 21.3252 29.6229L31.3274 19.6207Z" fill="#006630"/>
</svg>
