<svg width="48" height="48" viewBox="0 0 48 48" fill="none" xmlns="http://www.w3.org/2000/svg">
    <circle cx="24" cy="24" r="24" fill="#005C8A" fill-opacity="0.15"/>
    <path fill-rule="evenodd" clip-rule="evenodd" d="M24.2081 27C24.8981 27 25.3581 26.31 25.1081 25.68L20.8581 14.87C20.6481 14.34 20.1481 14 19.5881 14C19.0281 14 18.5281 14.34 18.3181 14.87L14.0681 25.68C13.8181 26.31 14.2881 27 14.9681 27C15.3681 27 15.7281 26.75 15.8781 26.37L16.7581 24H22.3981L23.2981 26.38C23.4481 26.75 23.8081 27 24.2081 27ZM17.5181 22L19.5881 16.48L21.6581 22H17.5181ZM24.5881 30.68L31.9781 23.29C32.3581 22.91 32.9981 22.91 33.3781 23.3C33.7681 23.69 33.7681 24.32 33.3781 24.71L25.2981 32.8C24.9081 33.19 24.2781 33.19 23.8881 32.8L20.2081 29.12C19.8181 28.73 19.8181 28.1 20.2081 27.71C20.3949 27.5227 20.6485 27.4175 20.9131 27.4175C21.1776 27.4175 21.4312 27.5227 21.6181 27.71L24.5881 30.68Z" fill="#005C8A"/>
</svg>